<?xml version="1.0" encoding="utf-8"?>
<!-- Generator: Adobe Illustrator 25.4.1, SVG Export Plug-In . SVG Version: 6.00 Build 0)  -->
<svg version="1.1" id="Layer_1" xmlns="http://www.w3.org/2000/svg" xmlns:xlink="http://www.w3.org/1999/xlink" x="0px" y="0px"
	 viewBox="0 0 90 90" style="enable-background:new 0 0 90 90;" xml:space="preserve">
<path d="M68,39.2c0.7,0.8,1.3,1.6,2.2,2.7c-2,0.9-3.9,1.7-5.8,2.6c0.3,0.2,0.6,0.5,1,0.8c3.3,2.2,6.5,4.5,9.8,6.7
	c0.9,0.6,1.4,0.6,2.1-0.2c3.1-3.3,7-5.5,11-8c0.6,0.9,1.1,1.7,1.7,2.7c-1.5,1-3,1.8-4.4,2.8c-2.3,1.8-4.5,3.6-6.7,5.5
	c-0.4,0.3-0.6,1.1-0.6,1.7c0.1,2.5-0.9,4.4-3,5.6c-0.7,0.4-0.9,0.8-0.8,1.7c0.8,4.1-1.8,7.4-5.9,7.6c-0.9,0-1.9,0.2-2.6,0.6
	c-0.4,0.2-0.7,1.1-0.7,1.6c0.1,1.3-0.3,2.2-1.6,2.6c-1.9,0.6-3.7,0.5-5.5-0.6c-1-0.6-2-1.3-3-2c-0.2,0.5-0.4,0.9-0.6,1.3
	c-1.5,3.3-5.4,4.5-8.5,2.6c-1.5-0.9-3-2-4.5-3c-3.4,5.7-9.4,4.5-11.5-0.1c-3.6,1.1-6.3,0-8.1-3.4c-4.8,1.4-9-1.5-8.4-7
	c-1.1-0.6-2.2-1-3.1-1.7c-2.3-1.8-2.8-4.9-1.3-7.5c0.2-0.4,0.5-0.8,0.7-1.1c2.1-2.9,2.2-2.9-0.6-5.3c-3-2.5-6.1-4.9-9.4-7.5
	c0.5-0.8,1.1-1.6,1.9-2.7c4.2,3.4,8.2,6.6,12.3,9.9c4.5-2.1,6.1-1.8,9.4,2.1c2.5-1.3,4.9-1.4,7.1,0.5c2.3,1.9,2.5,4.4,1.6,7.1
	c3.5,1.1,5.2,3.3,4.9,7c0.3,0.1,0.7,0.3,1,0.4c1.7,0.6,3,1.8,3.3,3.6c0.3,1.7,1.4,2.6,2.7,3.5c1.1,0.7,2.2,1.5,3.4,2.3
	c1.4,0.9,2.9,0.5,3.7-0.7c0.8-1.3,0.5-2.6-0.9-3.6c-3.2-2.2-6.5-4.5-9.9-6.8c0.6-0.9,1.2-1.8,1.8-2.7c4.3,2.9,8.4,5.8,12.6,8.7
	c1.5,1.1,3,2.1,4.6,3.1c1.6,1.1,3.2,0.9,4.1-0.4c0.9-1.3,0.5-2.6-1.1-3.8c-4.6-3.2-9.1-6.3-13.8-9.6c0.6-0.9,1.2-1.8,1.8-2.7
	c1.8,1.2,3.5,2.4,5.2,3.6c3.7,2.6,7.4,5.2,11.1,7.7c1,0.7,2.1,0.9,3.2,0.2c1.1-0.8,1.5-1.9,1.2-3.2c-0.2-0.7-0.8-1.4-1.4-1.8
	c-4.9-3.5-9.9-6.9-14.9-10.4c-0.5-0.4-1.1-0.7-1.7-1.2c0.6-0.9,1.1-1.7,1.8-2.7c0.6,0.4,1.1,0.7,1.6,1.1c4.5,3.1,9,6.2,13.5,9.3
	c0.7,0.5,1.6,1,2.3,0.8c0.9-0.2,1.8-1,2.3-1.8c0.7-1.2-0.1-2.2-1.1-2.9c-3-2.1-6.1-4.2-9.1-6.3c-6.3-4.5-12.6-9-19-13.5
	c-1.9-1.3-2.1-1.3-3.4,0.6c-1.3,1.9-2.6,3.9-4.3,5.6c-2.8,2.7-6.2,3.6-10,2.4c-3.7-1.2-4.7-4.3-2.4-7.4c1.4-2,2.9-3.9,4.4-5.9
	c0.3-0.4,0.6-0.8,0.8-1.2c-0.1-0.2-0.2-0.3-0.2-0.3c-3.5,0.3-6.3-1.2-8.9-3.3c-4-3.2-8.1-6.2-12.1-9.4c-0.4-0.3-0.8-0.7-1.3-1.1
	c0.7-0.8,1.4-1.5,2.1-2.4c0.8,0.7,1.6,1.3,2.4,1.9c4.3,3.3,8.6,6.6,12.9,9.8c2.4,1.8,7,1.6,9.4-0.2c2.1-1.6,4.5-2.1,7-2.2
	c7.8-0.3,15.5,0.7,23,2.9c1.2,0.4,2.1,0.2,3.2-0.5c5.7-3.6,11.2-7.5,16.2-12.2c0.2-0.2,0.4-0.3,0.7-0.5c0.7,0.7,1.4,1.4,2.3,2.4
	c-2.7,2.2-5.2,4.6-8,6.6c-3.6,2.6-7.4,5-11,7.5c-0.9,0.6-1.7,0.6-2.7,0.3c-7.5-2.3-15.1-3.4-22.9-3.3c-3.4,0.1-6,1.2-7.9,4
	c-2,3-4.3,5.9-6.5,8.8c-1.2,1.6-1,2.1,1,2.7c2.3,0.7,4.5,0.2,6.1-1.5c1.5-1.6,2.8-3.5,4.1-5.3c2.2-3.3,4.6-3.8,7.8-1.4
	c2.8,2.1,5.6,4.2,8.5,6.2C59.6,41.2,63.6,42.1,68,39.2z M19.9,68.1c0.3-0.2,1.2-0.4,1.7-1c2.6-3.5,5.1-7,7.6-10.6
	c0.8-1.2,0.4-2.7-0.7-3.4c-1.1-0.8-2.7-0.7-3.5,0.4c-2.6,3.5-5.2,7-7.6,10.6C16.2,65.8,17.5,68.1,19.9,68.1z M17.8,50.1
	c-0.3,0.2-1.1,0.3-1.5,0.8c-1.5,1.8-2.9,3.7-4.2,5.6c-0.8,1.1-0.3,2.7,0.8,3.4c1,0.7,2.6,0.7,3.4-0.4c1.5-1.8,2.9-3.7,4.1-5.7
	C21.4,52.3,20.1,50.2,17.8,50.1z M30.9,61.2c-0.3,0.2-1.1,0.5-1.6,1.1c-1.3,1.6-2.5,3.3-3.7,5.1c-0.8,1.2-0.6,2.7,0.5,3.5
	c1.1,0.9,2.8,0.9,3.6-0.2c1.4-1.8,2.9-3.6,4.1-5.5C34.8,63.3,33.4,61.2,30.9,61.2z M38.9,71.4c-0.1-0.5-0.1-0.7-0.2-1
	c-0.2-1.2-0.8-2-2.1-2.3c-1.2-0.3-1.6,0.6-2.1,1.3c-0.3,0.4-0.7,0.9-0.9,1.4c-0.8,1.4-0.4,3,0.9,3.8c1.4,0.8,3.1,0.2,3.8-1.3
	C38.6,72.7,38.8,72,38.9,71.4z"/>
</svg>
