<?xml version="1.0" encoding="utf-8"?>
<!-- Generator: Adobe Illustrator 25.4.1, SVG Export Plug-In . SVG Version: 6.00 Build 0)  -->
<svg version="1.1" id="Layer_1" xmlns="http://www.w3.org/2000/svg" xmlns:xlink="http://www.w3.org/1999/xlink" x="0px" y="0px"
	 viewBox="0 0 90 90" style="enable-background:new 0 0 90 90;" xml:space="preserve">
<path d="M48.6,0.1c2.1,0.7,2.9,2.2,2.8,4.4c-0.1,1.4,0,2.8,0,4.4c0.4,0,0.7,0,1,0c3.2,0,6.5,0,9.7,0c8.1,0,14.3,6.1,14.3,14.2
	c0,8.7,0,17.4,0,26.1c0,1.5-0.5,2.7-1.9,3.4c-1.2,0.6-2.4,0.6-3.5-0.1c-1.2-0.8-1.6-1.9-1.6-3.3c0-5.1,0-10.2,0-15.3
	c0-3.5,0-7,0-10.5c0-4.6-3-7.6-7.6-7.6c-3.4,0-6.9,0-10.5,0c0.3,4.3-1,7.9-4.6,10.4c-2,1.4-4.3,2-6.8,1.8c-3-0.3-5.5-1.6-7.4-4
	c-1.9-2.4-2.4-5.1-2.2-8.2c-0.4,0-0.6,0-0.9,0c-3.2,0-6.4,0-9.6,0c-4.5,0-7.5,3-7.5,7.5c0,17.3,0,34.6,0,51.9c0,4.6,3,7.6,7.6,7.6
	c6.3,0,12.5,0,18.8,0c0.6,0,1.3,0.1,1.9,0.3c1.4,0.6,2.1,1.7,2.1,3.2c0,1.4-0.7,2.5-2,3.2c-0.3,0.1-0.5,0.2-0.8,0.4
	c-7.4,0-14.7,0-22.1,0c-0.1,0-0.2-0.1-0.3-0.1C10.8,88.9,5.2,83,5.2,75.3c0.1-17.4,0-34.7,0-52.1c0-8.2,6.1-14.3,14.3-14.4
	c3.2,0,6.5,0,9.7,0c0.3,0,0.6,0,1,0c0-1.5,0.1-3,0-4.4c-0.1-2.2,0.7-3.7,2.8-4.4C38.3,0.1,43.4,0.1,48.6,0.1z M37.3,7.2
	c0,3.7-0.1,7.3,0,10.8c0,1.5,1,2.5,2.4,3c2.3,0.8,4.6-0.9,4.6-3.5c0-3.3,0-6.7,0-10c0-0.1,0-0.2-0.1-0.4C42,7.2,39.7,7.2,37.3,7.2z"
	/>
<path d="M59.8,89.9c-3-0.4-5.2-2.1-7.2-4.2c-3-3.1-6.1-6-9.2-9c-1.8-1.7-1.7-4.2,0.2-5.5c1.3-0.9,3-0.9,4.2,0.1
	c0.8,0.7,1.6,1.5,2.4,2.2c2.9,2.8,5.8,5.6,8.7,8.4c1.4,1.4,2.6,1.3,3.8-0.3c5.5-7.7,11-15.4,16.6-23.1c1.2-1.6,2.5-2.2,4.1-1.7
	c2.1,0.6,3.1,3,2.1,4.9c-0.2,0.4-0.4,0.7-0.7,1c-5.5,7.7-11.1,15.4-16.6,23.1c-1.5,2.1-3.5,3.5-6.1,3.9c-0.1,0-0.2,0.1-0.3,0.1
	C61.1,89.9,60.4,89.9,59.8,89.9z"/>
<path d="M46.8,46.1c-3.9,0-7.9,0-11.8,0c-1.4,0-2.5-0.6-3.2-1.9c-0.6-1.2-0.6-2.4,0.2-3.6c0.8-1.1,1.9-1.6,3.2-1.6
	c5.8,0,11.6,0,17.4,0c1.9,0,3.9,0,5.8,0c2.4,0,4.1,1.4,4,3.5c0,2.1-1.6,3.5-4,3.5C54.5,46.1,50.7,46.1,46.8,46.1z"/>
<path d="M47,60.1c-3.9,0-7.9,0-11.8,0c-1.4,0-2.5-0.6-3.2-1.9c-0.6-1.2-0.5-2.4,0.2-3.5c0.7-1.1,1.8-1.6,3.1-1.6c4.1,0,8.1,0,12.2,0
	c3.8,0,7.6,0,11.4,0c1.4,0,2.5,0.6,3.1,1.9c0.6,1.2,0.6,2.4-0.2,3.5c-0.7,1.2-1.8,1.6-3.2,1.6C54.7,60.1,50.8,60.1,47,60.1z"/>
<path d="M22.7,46c-1.9,0-3.5-1.6-3.5-3.6c0-1.9,1.6-3.5,3.6-3.4c1.9,0,3.4,1.6,3.4,3.5C26.3,44.5,24.6,46.1,22.7,46z"/>
<path d="M22.8,53.1c1.9,0,3.5,1.6,3.5,3.5c0,1.9-1.6,3.4-3.5,3.5c-1.9,0-3.5-1.6-3.5-3.5C19.3,54.6,20.8,53.1,22.8,53.1z"/>
</svg>
