<?xml version="1.0" encoding="utf-8"?>
<!-- Generator: Adobe Illustrator 25.4.1, SVG Export Plug-In . SVG Version: 6.00 Build 0)  -->
<svg version="1.1" id="Layer_1" xmlns="http://www.w3.org/2000/svg" xmlns:xlink="http://www.w3.org/1999/xlink" x="0px" y="0px"
	 viewBox="0 0 90 90" style="enable-background:new 0 0 90 90;" xml:space="preserve">
<path d="M45.5,0c0.3,0.2,0.6,0.3,0.9,0.6c4,4.1,9.1,6.5,14.5,7.9c5.9,1.6,12,2.1,18.1,2.2c3.1,0.1,3.3,0.3,3.4,3.3
	c0.2,7.4,0.5,14.9,0.5,22.3c0.1,6.5-0.4,13-1.8,19.4c-2,9-7,16-14.3,21.6c-5.7,4.3-12,7.8-18.3,11.2c-1,0.5-2,1.1-3,1.6
	c-0.3,0-0.6,0-0.9,0c-5.8-3-11.6-6.1-17.1-9.7c-4.8-3.2-9.3-6.8-12.8-11.5c-3.5-4.8-5.4-10.2-6.4-16c-1.3-8-1.3-16-1.2-24.1
	c0.1-4.9,0.3-9.8,0.5-14.7c0-0.4,0-0.8,0.1-1.2c0.1-1.4,0.7-2,2.1-2c2.6-0.1,5.2-0.2,7.7-0.4c6.5-0.5,12.9-1.6,18.9-4.6
	c2.6-1.3,4.9-2.9,7-5c0.3-0.3,0.7-0.6,1.1-0.8C44.9,0,45.2,0,45.5,0z M11.3,14.4c0,0.3-0.1,0.5-0.1,0.8c-0.2,4.7-0.4,9.5-0.5,14.2
	c-0.2,7.4-0.1,14.7,1,22c1.4,9.5,5.9,17.1,13.6,22.9c5.6,4.3,11.8,7.6,17.9,11c1.3,0.7,2.3,0.7,3.7,0c6.2-3.4,12.4-6.8,18.1-11.1
	c6.6-5.1,11-11.5,12.8-19.7c1.3-5.9,1.7-11.9,1.6-18C79.3,29.3,79,22.1,78.8,15c0-0.2-0.1-0.4-0.1-0.5c-4.3-0.4-8.5-0.8-12.6-1.3
	c-5.1-0.7-10-2-14.5-4.4c-2.3-1.3-4.5-2.8-6.8-4.3c-2.1,1.9-4.7,3.6-7.4,4.9c-5.6,2.6-11.5,3.8-17.5,4.4C17,14,14.2,14.1,11.3,14.4z
	"/>
<path d="M69.2,22.7c-8.6-0.4-17.1-1.1-24.1-6.8c-5.7,4.7-12.4,6-19.5,6.6c-1.5,0.1-3.1,0.2-4.7,0.3c-0.1,2.2-0.3,4.4-0.3,6.5
	c0,5.3-0.1,10.5,0.1,15.8c0.2,4.7,1.1,9.2,3.5,13.4c2,3.6,4.9,6.4,8.3,8.6c3.9,2.5,8,4.8,12.1,7.2c0.2,0.1,0.6,0.1,0.9,0
	c4.9-2.6,9.9-5.3,14.3-8.7c5.3-4.2,8.2-9.7,9.1-16.3c0.2-1.7,0.9-2.4,2.2-2.3c1.1,0.2,1.6,1,1.4,2.7c-1.1,8.4-5.2,15-12.1,20
	c-4.6,3.3-9.5,5.9-14.4,8.5c-0.4,0.2-1.2,0.2-1.7,0c-5.6-2.9-11.2-5.8-16.1-9.8c-6-4.8-9.3-11-10.4-18.5c-0.8-5.6-0.9-11.3-0.7-16.9
	c0.1-3.9,0.3-7.7,0.4-11.6c0-1.3,0.6-1.9,2-2c3.8-0.3,7.7-0.5,11.5-1c4.1-0.6,8-1.9,11.3-4.6c0.5-0.4,1-1,1.6-1.4
	c0.8-0.7,1.8-0.8,2.5-0.1c4,4,9,5.6,14.4,6.3c3.2,0.4,6.4,0.5,9.6,0.7c1.8,0.1,2.4,0.6,2.5,2.4c0.1,3.3,0.2,6.7,0.4,10
	c0,0.3,0,0.6,0,0.9c-0.1,1.1-0.8,1.8-1.8,1.8c-1,0-1.7-0.7-1.7-1.7c-0.1-3-0.2-5.9-0.3-8.9C69.2,23.4,69.2,23.1,69.2,22.7z"/>
<path d="M34.5,52.4c0.8-3.2-0.4-5.7-2.5-7.9c-0.9-1-1.7-2.2-2.5-3.3c-0.9-1.3-0.5-2.5,1-3c2.5-0.8,4.9-1.5,7.4-2.3
	c0.4-0.1,0.9-0.5,1.1-0.8c1.5-2,2.9-4.1,4.3-6.1c1.1-1.6,2.4-1.5,3.5,0c1.4,2,2.9,4.1,4.3,6.1c0.3,0.3,0.7,0.7,1.1,0.8
	c2.4,0.8,4.9,1.5,7.3,2.3c1.7,0.5,2.1,1.7,1,3.2c-1.5,2-3.1,4.1-4.6,6.1c-0.3,0.3-0.4,0.8-0.4,1.3c0,2.5,0.1,5,0.1,7.5
	c0,1.9-1,2.7-2.8,2.1c-2.4-0.8-4.7-1.6-7.1-2.4c-0.4-0.1-1-0.1-1.4,0c-2.4,0.8-4.8,1.6-7.1,2.4c-1.8,0.6-2.8-0.2-2.8-2
	c0-0.6,0-1.3,0-1.9C34.5,53.7,34.5,53,34.5,52.4z M45,32.6c-1,1.4-2,2.7-2.9,4.2c-0.9,1.4-2,2.2-3.6,2.6c-1.6,0.4-3.1,1-4.8,1.5
	c1.3,1.8,2.6,3.4,3.7,5c0.4,0.5,0.6,1.3,0.6,1.9c0.1,1.8,0,3.6,0,5.4c0,0.3,0,0.6,0,1c1.5-0.5,2.9-0.8,4.1-1.4c2-0.9,3.8-0.9,5.8,0
	c1.3,0.6,2.6,0.9,4,1.4c0-1.3,0.1-2.4,0-3.5c-0.4-2.7,0.4-5,2.3-7c0.8-0.8,1.4-1.8,2.1-2.8c-2.1-0.6-4.1-1.2-6-1.9
	c-0.6-0.2-1.3-0.7-1.7-1.2C47.4,36.1,46.3,34.4,45,32.6z"/>
<path d="M71.3,42.2c-1,0-1.8-0.8-1.7-1.8c0-1,0.8-1.7,1.8-1.7c1,0,1.8,0.8,1.8,1.8C73.1,41.5,72.3,42.2,71.3,42.2z"/>
</svg>
