<?xml version="1.0" encoding="utf-8"?>
<!-- Generator: Adobe Illustrator 25.4.1, SVG Export Plug-In . SVG Version: 6.00 Build 0)  -->
<svg version="1.1" id="Layer_1" xmlns="http://www.w3.org/2000/svg" xmlns:xlink="http://www.w3.org/1999/xlink" x="0px" y="0px"
	 viewBox="0 0 90 90" style="enable-background:new 0 0 90 90;" xml:space="preserve">
<path d="M15.7,40.5c0-0.5,0-0.9,0-1.3c0-4-0.1-8.1,0.2-12.1c0.7-11.6,8.6-21.8,19.6-25.5c16.7-5.6,34.4,4.3,38.1,21.6
	c0.5,2.1,0.6,4.4,0.7,6.6c0.1,3.2,0,6.3,0,9.5c0,0.4,0,0.8,0,1.2c0.5,0.1,1,0.1,1.4,0.2c3.3,0.7,5.3,3.4,5.3,7c0,9.8,0,19.6,0,29.4
	c0,1.9,0,3.9,0,5.8c0,4.2-2.9,7.1-7.1,7.1c-19.3,0-38.5,0-57.8,0C11.8,90,9,87.2,9,82.8c0-11.6,0-23.3,0-34.9
	C9,43.6,11.2,41,15.7,40.5z M45,85.5c9.5,0,19.1,0,28.6,0c2.2,0,2.9-0.7,2.9-2.9c0-11.6,0-23.2,0-34.8c0-2.1-0.7-2.8-2.9-2.8
	c-19.1,0-38.2,0-57.3,0c-2.1,0-2.8,0.7-2.8,2.9c0,11.6,0,23.2,0,34.8c0,2.1,0.8,2.8,2.9,2.8C25.9,85.5,35.4,85.5,45,85.5z
	 M69.7,40.5c0-0.4,0-0.8,0-1.2c0-2.7,0-5.3,0-8c0-2,0-4.1-0.3-6.1C67.3,12.6,55.8,3.6,43.3,4.5c-13,1-22.8,11.4-23,24.4
	c-0.1,3.5,0,7.1,0,10.7c0,0.3,0,0.5,0.1,0.9c2.2,0,4.4,0,6.7,0c0-0.5,0-0.9,0-1.2c0-3.6-0.1-7.2,0-10.9c0.3-9.1,8-16.8,17.1-17.1
	c10.4-0.3,18.6,7.5,18.8,17.9c0.1,3.4,0,6.8,0,10.1c0,0.4,0,0.7,0,1.2C65.3,40.5,67.4,40.5,69.7,40.5z M58.5,40.5c0-2.4,0-4.7,0-7.1
	c0-2.1,0.1-4.2-0.2-6.3c-0.9-6.5-6.7-11.4-13.3-11.4c-6.6,0-12.5,4.9-13.2,11.3c-0.4,4.4-0.2,8.8-0.2,13.3c0,0,0,0.1,0.1,0.1
	C40.5,40.5,49.4,40.5,58.5,40.5z"/>
<path d="M51.1,67c0.6,0.8,1.3,1.5,1.9,2.3c1.1,1.5,1.4,3.1,0.6,4.7c-0.8,1.6-2.2,2.4-4,2.4c-3,0-6,0-9,0c-1.8,0-3.2-0.8-4-2.5
	c-0.8-1.6-0.7-3.3,0.6-4.6c1.4-1.5,1.8-2.6,0.7-4.6c-1.5-2.9-0.5-6.4,1.8-8.7c2.3-2.2,5.7-2.8,8.6-1.5c2.9,1.3,4.8,4.2,4.7,7.4
	C53,63.6,52.4,65,51.1,67z M49.3,72c-0.6-0.7-1-1.3-1.5-1.9c-1.7-2.1-1.7-3.9-0.2-6.1c0.6-0.9,0.9-1.8,0.6-2.9
	c-0.3-1.4-1.4-2.4-2.8-2.5c-1.4-0.2-2.6,0.3-3.3,1.6c-0.8,1.3-0.7,2.6,0.2,3.8c1.6,2.3,1.6,4.1-0.2,6.3c-0.4,0.5-0.9,1.1-1.4,1.7
	C43.6,72,46.4,72,49.3,72z"/>
</svg>
