<?xml version="1.0" encoding="utf-8"?>
<!-- Generator: Adobe Illustrator 25.4.1, SVG Export Plug-In . SVG Version: 6.00 Build 0)  -->
<svg version="1.1" id="Layer_1" xmlns="http://www.w3.org/2000/svg" xmlns:xlink="http://www.w3.org/1999/xlink" x="0px" y="0px"
	 viewBox="0 0 90 90" style="enable-background:new 0 0 90 90;" xml:space="preserve">
<path d="M82,28.7c0.1,8.6-0.6,17.8-3.2,26.8c-3.1,10.7-8.4,20-17.3,26.9c-4.2,3.3-8.9,5.8-14.1,7.2c-1.7,0.5-3.4,0.5-5.1,0
	C31.9,86.5,24,80.1,18.1,71c-5-7.7-7.6-16.2-9-25.1c-1.5-9.8-1-19.6-1-29.4c0-3.1,2.7-5.3,6-5.4c3.5-0.1,7-0.2,10.5-0.5
	c4.4-0.4,8.2-2.2,11.6-4.9c1.6-1.3,3.1-2.7,4.7-4.1c2.3-2.1,5.1-2.2,7.6-0.3c0.7,0.6,1.5,1.1,2.2,1.7c6.8,6.5,15,8.6,24.1,8.1
	c0.4,0,0.9,0,1.3,0c3.4,0,5.8,2.4,5.9,5.8C82,20.6,82,24.3,82,28.7z M44.9,5.5c-8.4,9.4-19.1,12.1-31,11.3c-0.1,0.4-0.1,0.7-0.1,0.9
	c0.2,8.3,0.1,16.6,0.7,24.9c0.7,8.5,3.1,16.6,7.6,23.9c4.9,8.2,11.6,14.2,20.7,17.4c1.5,0.5,2.9,0.5,4.3,0c9-3.1,15.8-9.1,20.7-17.1
	c5.1-8.3,7.5-17.5,8.1-27c0.5-7.2,0.3-14.5,0.4-21.8c0-0.3-0.1-0.7-0.2-1.2C64.1,17.7,53.4,14.6,44.9,5.5z"/>
<path d="M39.5,52.4c0.4-0.4,0.8-0.7,1.1-1c6.8-6.8,13.6-13.6,20.4-20.4c0.9-0.9,1.8-1.5,3.1-1.5c1.3,0.1,2.3,0.7,2.8,1.9
	c0.6,1.2,0.5,2.4-0.3,3.5c-0.3,0.4-0.6,0.7-1,1.1C58,43.6,50.3,51.3,42.6,59c-2.2,2.2-3.9,2.2-6.2,0c-4.2-4.2-8.5-8.4-12.7-12.7
	c-1.2-1.2-1.4-2.7-0.7-4.1c0.7-1.3,2.1-2.1,3.5-1.7c0.8,0.2,1.6,0.7,2.2,1.3c3.2,3.2,6.4,6.4,9.6,9.6C38.8,51.7,39.1,52,39.5,52.4z"
	/>
</svg>
