<?xml version="1.0" encoding="utf-8"?>
<!-- Generator: Adobe Illustrator 25.4.1, SVG Export Plug-In . SVG Version: 6.00 Build 0)  -->
<svg version="1.1" id="Layer_1" xmlns="http://www.w3.org/2000/svg" xmlns:xlink="http://www.w3.org/1999/xlink" x="0px" y="0px"
	 viewBox="0 0 90 90" style="enable-background:new 0 0 90 90;" xml:space="preserve">
<g>
	<path d="M44.3,45.7c-0.8,0-1.3,0-1.8,0c-12.9,0-25.9,0-38.8,0c-0.4,0-0.9,0.1-1.3,0c-0.5-0.2-0.9-0.7-1.4-1
		c0.5-0.4,0.9-1.1,1.4-1.2c2.2-0.1,4.4-0.1,6.6-0.1c0.3,0,0.5,0,0.8-0.1c-2.7-1.2-4.8-3-6.1-5.5c-1.3-2.6-1.7-5.3-1-8.1
		c1.2-5,5.8-8.7,10.7-8.7c5.4-0.1,10.1,3.4,11.5,8.4c1.5,5.6-0.8,10.3-7,14c18.3,0,36.4,0,54.9,0c-3.1-1.3-5.3-3.2-6.5-6
		c-1.3-2.8-1.5-5.6-0.5-8.5c1.7-4.9,6.2-8,11.6-7.9c4.9,0.2,9.4,4,10.5,8.8c1,4.5-0.3,10.2-7.3,13.6c2.6,0,4.9-0.1,7.2,0.1
		c0.6,0,1.7,0.7,1.7,1.1c0.1,1-0.8,1.1-1.7,1.1c-13.1,0-26.3,0-39.4,0c-0.6,0-1.2,0-2,0c0.3,0.6,0.5,1.1,0.7,1.6
		c3.2,6.4,6.4,12.9,9.7,19.3c1,1.9,0.6,2.5-1.5,2.5c-6.6,0-13.1,0-19.7,0c-2.1,0-2.4-0.6-1.5-2.4C37.3,59.8,40.7,52.8,44.3,45.7z
		 M76.6,23.2c-5.1,0-9.3,4.2-9.3,9.2c0,5.1,4.2,9.2,9.3,9.2c5,0,9.1-4.1,9.2-9.1C85.9,27.5,81.7,23.2,76.6,23.2z M14,23.2
		c-5.2-0.1-9.4,4.1-9.4,9.3c0,5,4.1,9.1,9.1,9.2c5.1,0.1,9.3-4.1,9.3-9.2C23.1,27.5,19,23.3,14,23.2z M45.2,48.9
		c-3.1,6.1-5.9,11.9-8.9,17.8c6,0,11.8,0,17.8,0C51.2,60.8,48.3,55,45.2,48.9z"/>
	<path d="M45.2,69.7c-3.3,0-6.6,0-9.9,0c-0.9,0-2-0.1-2.4-0.8c-0.5-0.7-0.1-1.7,0.3-2.5c2.5-4.9,4.9-9.9,7.5-14.9l2.6-5.1l-39.6,0
		c-0.1,0-0.2,0-0.3,0c-0.4,0-0.8,0.1-1.2-0.1C1.7,46,1.4,45.7,1,45.4c-0.1-0.1-0.2-0.2-0.4-0.3L0,44.6l0.6-0.5
		C0.7,44,0.9,43.9,1,43.7c0.4-0.4,0.8-0.9,1.4-0.9c1.6-0.1,3.3-0.1,4.9-0.1c0,0,0.1,0,0.1,0c-1.9-1.2-3.3-2.7-4.3-4.7
		c-1.4-2.7-1.8-5.6-1.1-8.5c1.3-5.3,6.1-9.2,11.4-9.2c0.1,0,0.1,0,0.2,0c5.6,0,10.5,3.6,12,8.9c1.4,5.2-0.5,9.9-5.4,13.5h50
		c-2-1.3-3.5-2.9-4.5-5c-1.4-3-1.6-6-0.6-9c1.8-5.2,6.5-8.5,12.2-8.3c5.2,0.2,10,4.2,11.1,9.4c0.5,2,1.3,8.6-5.5,13.1
		c1.6,0,3.2,0,4.7,0.1c0.8,0,2.2,0.8,2.3,1.7c0.1,0.6-0.1,1-0.3,1.2c-0.5,0.5-1.2,0.6-2,0.6c0,0,0,0,0,0c-10.5,0-21,0-31.6,0h-8.9
		c0.1,0.2,0.2,0.5,0.3,0.7c1.6,3.2,3.2,6.4,4.8,9.6c1.6,3.2,3.2,6.5,4.9,9.7c0.5,0.9,0.8,1.9,0.4,2.6c-0.5,0.7-1.5,0.8-2.5,0.8
		C51.8,69.7,48.5,69.7,45.2,69.7z M45.3,45.2L41.9,52c-2.5,5-5,10-7.5,14.9c-0.5,1-0.4,1.2-0.4,1.2c0,0,0.1,0.2,1.3,0.2
		c6.6,0,13.1,0,19.7,0c1.2,0,1.4-0.2,1.4-0.2c0,0,0.1-0.2-0.4-1.3c-1.6-3.2-3.2-6.5-4.9-9.7c-1.6-3.2-3.2-6.4-4.8-9.6
		c-0.2-0.3-0.3-0.7-0.5-1.1c-0.1-0.2-0.2-0.4-0.3-0.6L45.3,45.2z M2,44.6c0.2,0.2,0.5,0.4,0.7,0.5c0.1,0,0.4,0,0.5,0
		c0.2,0,0.3,0,0.5,0l41.5,0l0,0h10.9c10.5,0,21,0,31.6,0c0,0,0,0,0,0c0.8,0,1-0.1,1-0.2c0,0,0-0.1,0-0.2c-0.1-0.2-0.8-0.6-1.1-0.6
		C86,44,84.3,44,82.6,44c-0.7,0-1.4,0-2.2,0h-2.9l2.6-1.3c2.1-1,8.8-5,7-12.9c-1-4.5-5.4-8.2-9.9-8.3c-5-0.2-9.3,2.7-10.9,7.4
		c-0.9,2.7-0.8,5.4,0.5,8.1c1.2,2.5,3.1,4.3,6.2,5.6L76,44H15.5l2.1-1.2c5.9-3.5,8.2-7.9,6.7-13.2c-1.3-4.7-5.8-8-10.9-7.9
		c-4.7,0.1-9,3.5-10.1,8.2C2.7,32.5,3,35,4.3,37.5c1.2,2.3,3.1,4.1,5.8,5.2l1.6,0.7L10,43.9c-0.4,0.1-0.8,0.1-1,0.1
		c-0.6,0-1.1,0-1.7,0c-1.6,0-3.2,0-4.8,0.1C2.4,44.1,2.2,44.4,2,44.6z M88.7,44.7L88.7,44.7L88.7,44.7z M55.2,67.4H35.3l10-19.9
		L55.2,67.4z M37.4,66.1h15.6l-7.8-15.7L37.4,66.1z M76.6,42.3c-2.6,0-5.1-1-6.9-2.9c-1.9-1.9-2.9-4.4-2.9-7c0-2.6,1-5.1,2.9-7
		c1.9-1.9,4.4-2.9,7-2.9c0,0,0,0,0,0l0,0c2.6,0,5.2,1.1,7,3c1.9,1.9,2.9,4.4,2.8,7C86.4,37.9,82.1,42.2,76.6,42.3
		C76.6,42.3,76.6,42.3,76.6,42.3z M76.6,23.8c-2.3,0-4.4,0.9-6.1,2.5c-1.6,1.6-2.5,3.8-2.5,6c0,2.3,0.9,4.4,2.6,6
		c1.6,1.6,3.8,2.5,6,2.5c0,0,0,0,0.1,0c4.7,0,8.5-3.8,8.5-8.5c0-2.2-0.8-4.4-2.5-6C81.1,24.8,78.9,23.9,76.6,23.8
		C76.6,23.8,76.6,23.8,76.6,23.8z M13.9,42.3c-0.1,0-0.1,0-0.2,0c-5.4-0.1-9.8-4.5-9.8-9.8c0-2.6,1-5.1,2.9-7
		c1.9-1.9,4.5-2.9,7.1-2.9c5.3,0.1,9.8,4.6,9.7,9.9c0,2.6-1.1,5.1-3,7C18.9,41.3,16.5,42.3,13.9,42.3z M13.9,23.8
		c-2.3,0-4.4,0.9-6.1,2.5c-1.6,1.6-2.5,3.8-2.5,6.1c0,4.6,3.8,8.5,8.5,8.5c2.3,0,4.4-0.8,6.1-2.4c1.7-1.6,2.6-3.8,2.6-6.1
		c0-4.6-3.8-8.6-8.4-8.6C14,23.8,13.9,23.8,13.9,23.8z"/>
</g>
</svg>
