<?xml version="1.0" encoding="utf-8"?>
<!-- Generator: Adobe Illustrator 25.4.1, SVG Export Plug-In . SVG Version: 6.00 Build 0)  -->
<svg version="1.1" id="Layer_1" xmlns="http://www.w3.org/2000/svg" xmlns:xlink="http://www.w3.org/1999/xlink" x="0px" y="0px"
	 viewBox="0 0 90 90" style="enable-background:new 0 0 90 90;" xml:space="preserve">
<path d="M90,73.1c-0.5,1.6-0.8,3.3-1.6,4.7c-2.3,4.5-6,7-11.1,7.4c-1,0.1-2,0.1-3.1,0.1c-19.9,0-39.9,0-59.8,0
	c-3.5,0-6.7-0.8-9.4-3.1c-5.3-4.6-6.6-11.5-3-17.6C12.3,46.8,22.7,29,33.1,11.2c2.7-4.6,6.8-7,12.1-6.9c5.3,0.1,9.2,2.7,11.9,7.3
	c9.7,16.6,19.3,33.2,29,49.8c1.2,2,2.2,4.2,3.2,6.3c0.4,0.8,0.5,1.7,0.7,2.6C90,71.2,90,72.2,90,73.1z M45,79.1
	c10.3,0,20.6,0,30.9,0c1.6,0,3-0.3,4.4-1.1c3.2-2,4.6-6.4,2.2-10.5C74.1,53.3,65.9,39,57.5,24.7c-2-3.4-4-6.9-6-10.3
	c-1.6-2.7-3.9-4-7-3.9c-2.8,0.1-4.8,1.6-6.2,4c-4.2,7.3-8.5,14.6-12.8,21.9c-6,10.3-12,20.6-18,30.9c-1,1.8-1.6,3.6-1.2,5.6
	c0.7,3.6,3.7,6,7.5,6C24.2,79.1,34.6,79.1,45,79.1z"/>
<path d="M48.1,44.6c0,4.3,0,8.7,0,13c0,2.5-2.2,4.1-4.3,3.2c-1.4-0.6-1.9-1.7-1.9-3.2c0-3.3,0-6.6,0-9.8c0-5.4,0-10.7,0-16.1
	c0-2,1.2-3.3,2.9-3.4c1.9-0.1,3.3,1.3,3.3,3.3c0,3.6,0,7.3,0,10.9C48.1,43.2,48.1,43.9,48.1,44.6z"/>
<path d="M48.1,69.3c0,0.6,0,1.2,0,1.8c-0.1,1.8-1.4,3-3.1,3c-1.7,0-3-1.2-3.1-3c-0.1-1.2-0.1-2.4,0-3.6c0.1-1.8,1.4-3.1,3.2-3.1
	c1.7,0,3,1.3,3.1,3.1C48.2,68.2,48.1,68.8,48.1,69.3C48.1,69.3,48.1,69.3,48.1,69.3z"/>
</svg>
