<?xml version="1.0" encoding="utf-8"?>
<!-- Generator: Adobe Illustrator 25.4.1, SVG Export Plug-In . SVG Version: 6.00 Build 0)  -->
<svg version="1.1" id="Layer_1" xmlns="http://www.w3.org/2000/svg" xmlns:xlink="http://www.w3.org/1999/xlink" x="0px" y="0px"
	 viewBox="0 0 90 90" style="enable-background:new 0 0 90 90;" xml:space="preserve">
<path d="M37,41.3c0-2.1,0-3.9,0-5.9c-0.5,0-1-0.1-1.5-0.1c-8,0-16.1,0-24.1,0c-0.4,0-0.8,0-1.3,0c-1.8-0.1-2.6-1.6-1.6-3.2
	c1.5-2.2,3.1-4.5,4.7-6.6c0.6-0.8,0.7-1.4,0-2.3c-1.5-2-2.9-4-4.3-6c-0.6-0.8-1.3-1.7-0.6-2.8c0.6-1,1.6-1,2.6-1c8,0,15.9,0,23.9,0
	c0.7,0,1.4,0,2.2,0c0-0.6,0.1-1.1,0.1-1.6c0-3.1,0-6.2,0-9.3c0-1.7,0.7-2.4,2.4-2.4c3.4,0,6.8,0,10.2,0c1.6,0,2.3,0.7,2.3,2.3
	c0,3.6,0,7.1,0,10.9c0.6,0,1.2,0,1.7,0c8.6,0,17.1,0,25.7,0c1.2,0,2,0.3,2.8,1.2c2.3,2.7,4.6,5.3,6.9,8c1.3,1.5,1.3,2.1,0,3.6
	c-2.3,2.6-4.6,5.2-6.8,7.9c-0.8,0.9-1.6,1.3-2.8,1.3c-8.6,0-17.1,0-25.7,0c-0.5,0-1.1,0-1.7,0c0,2,0,3.9,0,5.9c0.6,0,1.1,0,1.7,0
	c6.9,0,13.8,0,20.8,0c1.1,0,2.2-0.2,2.8,1c0.7,1.3-0.2,2.1-0.8,3c-1.4,2-2.9,4.1-4.4,6c-0.5,0.7-0.5,1.2,0,1.8
	c1.6,2.1,3.1,4.2,4.6,6.4c0.6,0.8,1.3,1.8,0.5,2.6c-0.5,0.6-1.6,1-2.4,1c-7,0.1-14,0-21.1,0c-0.6,0-1.1,0-1.9,0c0,0.6,0,1.2,0,1.7
	c0,7.4,0,14.9,0,22.3c0,2-0.7,2.6-2.6,2.6c-3.3,0-6.6,0-9.8,0c-2,0-2.6-0.6-2.6-2.6c0-7.4,0-14.9,0-22.3c0-0.5,0-1.1,0-1.7
	c-1.1,0-2,0-3,0c-7.8,0-15.6,0-23.4,0c-1.2,0-2.1-0.4-2.9-1.3c-2.3-2.7-4.6-5.3-6.9-8c-1.1-1.3-1.1-2.1,0-3.4
	c2.3-2.6,4.6-5.2,6.8-7.9c0.8-1,1.7-1.4,3-1.4c8.2,0,16.5,0,24.7,0C35.8,41.3,36.3,41.3,37,41.3z M13.8,31.4c0.5,0.1,0.8,0.1,1,0.1
	c21.2,0,42.4,0,63.6,0c0.4,0,1-0.1,1.3-0.4c2-2.2,3.9-4.4,5.8-6.7c-1.8-2.1-3.6-4.2-5.4-6.2c-0.5-0.5-1.3-0.9-2-0.9c-21,0-42,0-63,0
	c-0.4,0-0.7,0-1.3,0.1c1.3,1.9,2.5,3.5,3.7,5.2c1.2,1.7,1.2,2,0,3.7C16.3,27.9,15.1,29.6,13.8,31.4z M71.8,45.3
	c-0.4-0.1-0.5-0.1-0.7-0.1c-19.9,0-39.8,0-59.6,0c-0.4,0-1,0.2-1.2,0.5c-1.9,2.2-3.8,4.4-5.8,6.6c1.8,2.1,3.6,4,5.2,6.1
	c0.6,0.8,1.3,1,2.3,1c19.4,0,38.8,0,58.2,0c0.4,0,0.9,0,1.6-0.1c-1.4-1.9-2.6-3.7-3.9-5.4c-0.9-1.1-0.9-2.1,0-3.3
	C69.2,49,70.4,47.2,71.8,45.3z M41,63.4c0,7.7,0,15.2,0,22.6c2.4,0,4.7,0,7,0c0-7.6,0-15.1,0-22.6C45.6,63.4,43.3,63.4,41,63.4z
	 M48,4.2c-2.4,0-4.7,0-7.1,0c0,3.1,0,6.1,0,9.1c2.4,0,4.7,0,7.1,0C48,10.2,48,7.3,48,4.2z M40.9,41.2c2.5,0,4.8,0,7.1,0
	c0-2,0-3.8,0-5.7c-2.4,0-4.7,0-7.1,0C40.9,37.4,40.9,39.3,40.9,41.2z"/>
</svg>
