<?xml version="1.0" encoding="utf-8"?>
<!-- Generator: Adobe Illustrator 25.4.1, SVG Export Plug-In . SVG Version: 6.00 Build 0)  -->
<svg version="1.1" id="Layer_1" xmlns="http://www.w3.org/2000/svg" xmlns:xlink="http://www.w3.org/1999/xlink" x="0px" y="0px"
	 viewBox="0 0 90 90" style="enable-background:new 0 0 90 90;" xml:space="preserve">
<path d="M43.2,90c-0.9-0.1-1.7-0.2-2.6-0.4c-9.5-1.5-16.8-6.3-22-14.4c-3.3-5.1-4.8-10.8-4.8-16.8c0-10.4,0-20.8,0-31.2
	c0-3.6,1.5-6.3,4.7-7.9c1.8-0.9,3.7-1.1,5.6-0.6c0.3,0.1,0.6,0.2,0.8,0.2c0.1,0,0.1,0,0.2,0c0-1.7,0-3.4,0-5.1
	c0.1-3.5,1.6-6.1,4.7-7.7c2-1,4.1-1.1,6.2-0.4c0.2,0.1,0.5,0.2,0.8,0.3C38.4,2.2,41,0,45,0c4,0,6.7,2.2,8.1,5.9
	c1.8-0.8,3.6-0.9,5.4-0.4c4,1.1,6.3,4.2,6.3,8.4c0,4,0,8,0,12c0,0.3,0,0.6,0,0.8c1.4-0.1,2.7-0.4,4-0.2c4.4,0.5,7.4,3.7,7.4,8.2
	c0.1,8.9,0.1,17.8-0.2,26.6c-0.1,5.6-2.2,10.6-5.3,15.2c-4,5.7-9.3,9.8-16,11.9c-2.3,0.7-4.7,1-7.1,1.5c-0.3,0.1-0.5,0.1-0.8,0.1
	C45.6,90,44.4,90,43.2,90z M42.4,70c0-3.8,1-7.3,2.9-10.4c3.3-5.2,8.1-8.2,14.2-9.2c0-0.3,0-0.6,0-0.8c0-11.9,0-23.7,0-35.6
	c0-0.2,0-0.5,0-0.7c-0.1-1.4-1.2-2.5-2.6-2.7c-1.3-0.2-2.8,0.5-3.3,1.8c-0.2,0.6-0.3,1.2-0.3,1.8c0,10,0,20,0,30c0,0.3,0,0.7,0,1
	c-1.8,0-3.5,0-5.3,0c0-0.4,0-0.7,0-1.1c0-11.7,0-23.4,0-35.1c0-0.4,0-0.7,0-1.1c-0.2-1.4-1.2-2.5-2.6-2.7c-1.3-0.2-2.8,0.6-3.3,1.9
	c-0.2,0.6-0.3,1.2-0.3,1.8c0,11.7,0,23.4,0,35.2c0,0.3,0,0.7,0,1.1c-1.8,0-3.5,0-5.3,0c0-0.4,0-0.8,0-1.1c0-8.6,0-17.3,0-25.9
	c0-1.5,0-3,0-4.6c0-1.7-1.4-3-3-3.1c-1.7,0-3,1.3-3.1,3c0,0.3,0,0.6,0,0.9c0,9.9,0,19.8,0,29.7c0,0.3,0,0.7,0,1c-1.8,0-3.5,0-5.3,0
	c0-3.9,0-7.6,0-11.4c0-2.3,0-4.6,0-6.9c0-2.3-2.2-3.7-4.2-2.9c-1.4,0.6-1.9,1.8-1.9,3.3c0,10.3,0,20.6,0,30.9
	c0,5.3,1.2,10.3,4.2,14.7c4.5,6.9,10.9,10.8,19.1,11.7c5.9,0.7,11.5-0.6,16.5-3.9c7.1-4.6,11.2-11.2,11.9-19.6
	c0.3-3.3,0.2-6.6,0.2-9.8c0-5.4,0-10.8,0-16.3c0-1.6-0.8-2.7-2-3.2c-2.1-0.7-4.1,0.8-4.1,3.2c0,6.5,0,13,0,19.5c0,0.3,0,0.7,0,1.1
	c-1.1,0-2.1,0-3.1,0c-4.1,0.2-7.5,1.7-10.2,4.8c-2.3,2.5-3.6,5.5-3.7,9c0,0.4,0,0.8-0.6,0.8C45.6,70,44.1,70,42.4,70z"/>
</svg>
