<?xml version="1.0" encoding="utf-8"?>
<!-- Generator: Adobe Illustrator 25.4.1, SVG Export Plug-In . SVG Version: 6.00 Build 0)  -->
<svg version="1.1" id="Layer_1" xmlns="http://www.w3.org/2000/svg" xmlns:xlink="http://www.w3.org/1999/xlink" x="0px" y="0px"
	 viewBox="0 0 90 90" style="enable-background:new 0 0 90 90;" xml:space="preserve">
<path d="M12.1,90c0-0.4,0.1-0.8,0.1-1.2c0-21.1,0-42.2,0-63.2c0-0.4,0-0.8,0-1.3c0.4,0,0.8,0,1.1,0c6.9,0.1,13.8,0.1,20.7,0.2
	c0.9,0,1.6-0.2,2.1-0.9c-7.3-6.8-4.7-16.2,0.1-20.3c5.2-4.4,12.9-4.2,17.9,0.5c5.1,4.8,6,14-0.4,19.8c0.5,0.8,1.3,1,2.2,1
	c6.9,0,13.9,0.1,20.8,0.1c0.3,0,0.7,0,1.1,0c0,0.4,0,0.6,0,0.9c0,7-0.1,14.1-0.1,21.1c0,3.6-2.2,6.4-5.7,7.3
	c-0.9,0.2-1.9,0.2-2.8,0.2c-0.3,0-0.7-0.4-0.9-0.7c-1.3-2.1-3.1-3.5-5.6-4c-3.9-0.8-8.1,1.8-9.2,5.5c-1.2,4.3,0.9,8.5,4.9,9.9
	c3.8,1.3,7.5,0,9.7-3.5c0.4-0.7,0.9-0.9,1.7-0.9c4.6,0.1,7.7,3.2,7.7,7.8c0,7.3-0.1,14.7-0.1,22C55.8,90,34,90,12.1,90z M71.5,48.4
	c0.8-0.6,1-1.3,1-2.2c0-5.2,0-10.4,0-15.6c0-0.3,0-0.5-0.1-0.8c-0.4,0-0.7,0-1.1,0c-5.2,0-10.4-0.1-15.7-0.1c-4.6,0-7.6-3.1-7.7-7.7
	c0-0.9,0.3-1.3,1-1.8c3.1-2,4.5-5.2,3.8-8.6c-0.9-4.4-5.5-7.2-9.8-6.1c-4.5,1.2-7.1,5.8-5.8,10.1c0.6,2.1,2,3.7,3.9,4.8
	c0.3,0.2,0.7,0.6,0.7,0.9c0,0.9,0,1.9-0.2,2.8c-0.9,3.5-3.7,5.6-7.3,5.6c-5.2,0-10.4-0.1-15.6-0.1c-0.3,0-0.7,0-1,0
	c0,18.4,0,36.7,0,55.1c18.2,0,36.4,0,54.6,0c0-0.1,0.1-0.1,0.1-0.2c0-5.6,0.1-11.2,0.1-16.8c0-0.7-0.3-1.4-1-1.7
	c-6.1,6.5-15,5.4-19.7,0.5c-5-5.2-5-13.1-0.2-18.4C56.2,43,65.5,41.7,71.5,48.4z"/>
</svg>
