<?xml version="1.0" encoding="utf-8"?>
<!-- Generator: Adobe Illustrator 25.4.1, SVG Export Plug-In . SVG Version: 6.00 Build 0)  -->
<svg version="1.1" id="Layer_1" xmlns="http://www.w3.org/2000/svg" xmlns:xlink="http://www.w3.org/1999/xlink" x="0px" y="0px"
	 viewBox="0 0 90 90" style="enable-background:new 0 0 90 90;" xml:space="preserve">
<path d="M45,79.3c-5,0-9.9-0.7-14.8-2c-0.5-0.1-1.1,0-1.6,0.2c-3.3,2-6.6,4.1-9.9,6.1c-3.4,2.1-7.7,0.5-8.6-3.3
	c-0.2-0.9-0.2-1.8,0-2.7c0.5-3.2,1-6.4,1.6-9.6c0.1-0.8-0.3-1.1-0.7-1.5c-4.4-4.2-7.7-9-9.5-14.9c-3.2-10.9-1.1-20.7,5.9-29.5
	C14.5,13.3,24,8.5,35,6.4c10.9-2,21.6-0.9,31.8,3.7C75.2,14,82,19.8,86.3,28.2C92.2,39.7,90.5,53,82,63.1
	c-6.9,8.2-15.9,13-26.4,15.1c-3.5,0.7-7.1,0.9-10.7,1.4C45,79.5,45,79.4,45,79.3z M15.6,78.9c0.5-0.3,0.8-0.4,1-0.6
	c3.5-2.2,7-4.3,10.4-6.5c1.1-0.7,2.1-0.8,3.3-0.4c8.3,2.6,16.7,3,25.1,1.1c8.9-2,16.6-6.1,22.5-13.2c7.2-8.7,8.2-20.2,2.7-29.8
	c-3.6-6.3-9-10.8-15.5-13.9c-10.5-5-21.5-5.8-32.6-2.9c-8.4,2.2-15.7,6.3-21,13.4C5,34.6,3.8,43.8,8.3,53.5
	c1.9,4.1,4.7,7.4,8.1,10.3c1,0.9,1.4,1.9,1.1,3.2c-0.2,1.2-0.4,2.3-0.6,3.5C16.5,73.2,16.1,75.9,15.6,78.9z"/>
<path d="M54.1,41.5c0,5-4.1,9.1-9.2,9.1c-5.1,0-9.2-4.1-9.2-9.2c0-5.1,4.1-9.2,9.2-9.2C50,32.2,54.1,36.3,54.1,41.5z M44.8,45
	c2,0,3.7-1.6,3.6-3.6c0-1.9-1.6-3.5-3.5-3.6c-1.9,0-3.6,1.6-3.6,3.5C41.3,43.3,42.9,45,44.8,45z"/>
<path d="M22.5,50.6c-5.1-0.1-9.1-4.2-9.1-9.3c0-5,4.2-9.1,9.3-9.1c5.1,0,9.2,4.2,9.2,9.3C31.7,46.6,27.6,50.7,22.5,50.6z M22.6,37.8
	c-1.9,0-3.6,1.6-3.6,3.6c0,1.9,1.6,3.6,3.6,3.6c2,0,3.6-1.6,3.6-3.6C26.1,39.5,24.5,37.8,22.6,37.8z"/>
<path d="M67.3,32.2c5.1,0,9.2,4.2,9.2,9.3c0,5.1-4.2,9.2-9.4,9.1c-5,0-9-4.2-9-9.2C58.1,36.3,62.2,32.2,67.3,32.2z M70.8,41.4
	c0-1.9-1.7-3.6-3.6-3.5c-1.9,0-3.6,1.7-3.5,3.6c0,2,1.7,3.6,3.6,3.5C69.2,45,70.9,43.3,70.8,41.4z"/>
</svg>
