<?xml version="1.0" encoding="utf-8"?>
<!-- Generator: Adobe Illustrator 25.4.1, SVG Export Plug-In . SVG Version: 6.00 Build 0)  -->
<svg version="1.1" id="Layer_1" xmlns="http://www.w3.org/2000/svg" xmlns:xlink="http://www.w3.org/1999/xlink" x="0px" y="0px"
	 viewBox="0 0 90 90" style="enable-background:new 0 0 90 90;" xml:space="preserve">
<path d="M9.5,90c-1.4-0.5-1.8-1.1-1.8-2.5c0-1.7,0-3.4,0-5.2c-1.9,0-3.7,0-5.6,0c-1.6,0-2.5-1.4-2-2.7c0.3-0.9,1-1.3,2-1.3
	c1.8,0,3.7,0,5.6,0c0-0.4,0-0.8,0-1.2c0-24.8,0-49.6,0-74.4c0-1.5,0.4-2.1,1.8-2.6c0.2,0,0.5,0,0.7,0c1.1,0.5,1.6,1.2,1.6,2.5
	c0,12.1,0,24.2,0,36.3c0,12.8,0,25.6,0,38.4c0,0.3,0,0.6,0,1c1.1,0,2.2,0,3.2,0c22.3,0,44.6,0,66.9,0c1.9,0,3.9,0,5.8,0
	c1.3,0,2.3,0.9,2.3,2c0,1.1-1,2-2.2,2c-0.2,0-0.5,0-0.7,0c-24.7,0-49.4,0-74.1,0c-0.4,0-0.7,0-1.2,0c0,1.8-0.1,3.5,0,5.2
	c0.1,1.3-0.4,2.1-1.6,2.6C9.9,90,9.7,90,9.5,90z"/>
<path d="M56.2,52.9c-2.8-1.7-5.5-3.4-8.2-5c-0.2-0.1-0.7-0.1-0.9,0c-1.9,1.4-4,1.7-6.3,1.1c-0.2-0.1-0.7,0.1-0.8,0.3
	c-3.7,4.4-7.3,8.9-11,13.3c-0.3,0.4-0.4,0.6-0.1,1.1c2.6,4.4-0.4,9.9-5.3,10.3c-4.1,0.4-7.5-2.6-7.6-6.8c-0.1-3.9,3.1-7,6.9-6.9
	c0.4,0,0.9-0.1,1.2,0.1c0.9,0.4,1.3,0.1,1.9-0.6c3.7-4.5,7.4-9,11.1-13.5c-2-3.3-1.1-6.7,1-8.8c2-2,5.4-2.6,7.8-1.3
	c3,1.5,4.4,4.4,3.8,8c2.8,1.7,5.6,3.4,8.3,5.1c0.2,0.1,0.5,0.1,0.7,0c1.5-1,3.1-1.6,4.9-1.4c0.2,0,0.5-0.3,0.6-0.5
	c1.8-3.8,3.6-7.6,5.4-11.3c2.8-5.8,5.5-11.5,8.3-17.2c0.2-0.5,0.2-0.7-0.2-1.1c-2.3-2.5-2.2-6.6,0.2-9.2c2.3-2.5,6.4-2.9,9.2-0.8
	c2.3,1.8,3.2,4.2,2.6,7c-0.6,2.8-2.4,4.6-5.2,5.3C84,20,83.4,20.1,82.8,20c-0.8-0.2-1.1,0.2-1.4,0.8c-4.5,9.4-9,18.8-13.5,28.2
	c-0.2,0.4-0.2,0.6,0.1,1c1.9,2.1,2.3,4.5,1.4,7.1c-0.9,2.4-2.7,3.9-5.2,4.4c-4.6,0.8-8.3-2.8-8.2-7C56.1,54,56.1,53.5,56.2,52.9z
	 M40,42.4c0,1.6,1.2,2.8,2.8,2.9c1.5,0,2.9-1.3,2.9-2.8c0-1.6-1.2-2.9-2.8-2.9C41.3,39.5,40.1,40.8,40,42.4z M85.8,13.1
	c0-1.6-1.3-2.9-2.8-2.9c-1.6,0-2.9,1.3-2.9,2.8c0,1.6,1.3,2.9,2.9,2.9C84.5,15.9,85.8,14.7,85.8,13.1z M22.8,70
	c1.5,0,2.8-1.3,2.8-2.8c0-1.5-1.3-2.8-2.8-2.8c-1.5,0-2.8,1.3-2.8,2.8C20,68.8,21.2,70,22.8,70z M65.7,54.7c0-1.6-1.2-2.9-2.8-2.9
	c-1.6,0-2.9,1.2-2.9,2.8c0,1.6,1.2,2.9,2.8,2.9C64.5,57.5,65.7,56.3,65.7,54.7z"/>
</svg>
