<?xml version="1.0" encoding="utf-8"?>
<!-- Generator: Adobe Illustrator 25.4.1, SVG Export Plug-In . SVG Version: 6.00 Build 0)  -->
<svg version="1.1" id="Layer_1" xmlns="http://www.w3.org/2000/svg" xmlns:xlink="http://www.w3.org/1999/xlink" x="0px" y="0px"
	 viewBox="0 0 90 90" style="enable-background:new 0 0 90 90;" xml:space="preserve">
<path d="M31.3-0.1C33.2,0.2,35.1,0.4,37,1c11.4,3.5,18.3,11.2,20.8,22.8c0.9,4.1,0.6,8.2-0.5,12.3c-0.2,0.6,0.1,0.9,0.5,1.3
	c10,10,19.9,20,29.9,29.9c1.6,1.6,2.4,3.2,2.3,5.4c-0.1,2.7,0,5.4,0,8.1c0,5.3-3.7,9.1-9,9.2c-1.1,0-2.2,0.1-3.3,0.1
	c-2.4,0-4.7,0-7.1,0c-0.7-0.6-1.5-1.1-2.2-1.7c-1.7-1.6-3.3-3.3-5-5c-1.1-1-1.3-2.1-1-3.5c0.3-1.5,0.5-3,0.8-4.6
	c-1,0.2-1.8,0.3-2.7,0.4c-0.8,0.1-1.6,0.3-2.3,0.4c-1.1,0.2-2.1-0.1-2.9-0.9c-1.4-1.4-2.8-2.8-4.2-4.2c-0.8-0.8-1.2-1.8-0.9-3
	c0.4-1.5,0.7-3,1.1-4.7c-1.6,0.3-3.1,0.6-4.5,0.9c-1.3,0.3-2.4,0-3.4-1c-1.9-2-3.9-3.9-5.8-5.9c-0.4-0.4-0.7-0.5-1.2-0.3
	C20.5,61,4.9,51.6,0.9,36C-3.3,19.9,7.4,3.2,23.8,0.4c1-0.2,2.1-0.3,3.1-0.5C28.3-0.1,29.8-0.1,31.3-0.1z M77,84.4
	C77,84.3,77,84.3,77,84.4c1.1-0.1,2.2-0.1,3.3-0.1c2.8,0,4-1.2,3.9-4c0-2.5-0.1-5-0.1-7.5c0-0.6-0.2-1.1-0.6-1.5
	C73.1,60.8,62.7,50.4,52.2,40c-1.2-1.2-1.5-2.3-0.9-3.9c1.1-3.4,1.4-6.9,0.9-10.4c-1.8-13-14.1-22-27-19.7C16.2,7.5,9.9,12.8,7,21.4
	c-2.9,8.7-1.1,16.8,5.1,23.5c6.6,7.1,14.9,8.9,24.2,6.2c1.5-0.4,2.7-0.2,3.7,0.9c1.7,1.8,3.6,3.5,5.3,5.3c0.8,0.9,1.6,1.2,2.8,0.8
	c2-0.5,4-0.9,6-1.3c2.3-0.5,4,1.2,3.5,3.5c-0.3,1.7-0.6,3.4-1.2,5c-0.7,2-0.3,3.4,1.4,4.5c0.3,0.2,0.7,0.4,1.1,0.3
	c1.4-0.2,2.8-0.5,4.2-0.7c0.9-0.2,1.7-0.3,2.6-0.5c2.6-0.4,4.1,1.1,3.6,3.7c-0.4,2.1-0.7,4.3-1.2,6.4c-0.1,0.7,0,1.2,0.5,1.7
	c1.1,1,2.1,2,3.1,3c0.4,0.4,0.8,0.6,1.4,0.6C74.5,84.3,75.8,84.4,77,84.4z"/>
<path d="M30.1,21.9c0,4.7-3.7,8.3-8.4,8.3c-4.5,0-8.2-3.7-8.2-8.3c0-4.5,3.8-8.2,8.3-8.2C26.4,13.7,30.1,17.4,30.1,21.9z M24.4,22
	c0-1.4-1.1-2.5-2.5-2.5c-1.4,0-2.5,1.1-2.6,2.5c0,1.4,1.1,2.6,2.5,2.6C23.2,24.5,24.3,23.3,24.4,22z"/>
</svg>
