<?xml version="1.0" encoding="utf-8"?>
<!-- Generator: Adobe Illustrator 25.4.1, SVG Export Plug-In . SVG Version: 6.00 Build 0)  -->
<svg version="1.1" id="Layer_1" xmlns="http://www.w3.org/2000/svg" xmlns:xlink="http://www.w3.org/1999/xlink" x="0px" y="0px"
	 viewBox="0 0 50 50" style="enable-background:new 0 0 50 50;" xml:space="preserve">
<style type="text/css">
	.st0{fill:#F37A7B;}
</style>
<path class="st0" d="M7.9,23.4c-0.1,0.1-0.2,0.1-0.2,0.2c-1,0.9-2.1,1.8-3.1,2.7c-1.5,1.3-3.9,0.7-4.4-1.3c-0.3-1,0-2,0.8-2.7
	c2.1-1.9,4.3-3.7,6.5-5.6c2.5-2.2,5.1-4.4,7.6-6.6c2.7-2.4,5.5-4.7,8.2-7.1c1-0.9,2.6-0.9,3.6,0c2.5,2.2,5,4.3,7.5,6.5
	c0.1,0.1,0.3,0.2,0.5,0.4c0-0.2,0-0.3,0-0.3c0-2.1,0-4.1,0-6.2c0-0.8,0.4-1.1,1.1-1.1c1.2,0,2.4,0,3.6,0c0.7,0,1.1,0.4,1.1,1.1
	c0,3.7,0,7.5,0,11.2c0,0.3,0.1,0.5,0.3,0.7c2.6,2.3,5.3,4.6,7.9,6.9c1.6,1.4,1.2,3.8-0.6,4.6c-1,0.4-2,0.3-2.8-0.4
	c-0.9-0.8-1.8-1.6-2.8-2.4c-0.1-0.1-0.2-0.1-0.3-0.2c0,0.2,0,0.3,0,0.4c0,1.2,0,2.4,0,3.6c0,5.2,0,10.4,0,15.6c0,2-1,3.4-2.8,4.3
	c-0.5,0.2-1.1,0.3-1.7,0.3c-2.6,0-5.1,0-7.7,0c-0.3,0-0.3,0-0.3-0.3c0-4.8,0-9.6,0-14.4c0-0.5-0.1-0.9-0.4-1.3
	c-0.4-0.4-0.8-0.7-1.4-0.7c-2.1,0-4.1,0-6.2,0c-1,0-1.8,0.8-1.8,1.9c0,4.8,0,9.6,0,14.4c0,0.4,0,0.4-0.4,0.4c-2.4,0-4.8,0-7.2,0
	c-2,0-3.7-1.2-4.3-3.1c-0.2-0.5-0.2-1-0.2-1.5c0-6.5,0-13,0-19.4C7.9,23.7,7.9,23.5,7.9,23.4z"/>
</svg>
