<?xml version="1.0" encoding="utf-8"?>
<!-- Generator: Adobe Illustrator 25.4.1, SVG Export Plug-In . SVG Version: 6.00 Build 0)  -->
<svg version="1.1" id="Layer_1" xmlns="http://www.w3.org/2000/svg" xmlns:xlink="http://www.w3.org/1999/xlink" x="0px" y="0px"
	 viewBox="0 0 128 128" style="enable-background:new 0 0 128 128;" xml:space="preserve">
<style type="text/css">
	.st0{fill:#FF7B7B;}
</style>
<path class="st0" d="M87.8,102.3c0.9,0,1.2,0.3,1.1,1.2c-0.1,1.3,0,6.6,0,6.6c5.5,0,11,0,16.6,0c0,1.4,0,2.7,0,4.1
	c-27.6,0-55.2,0-82.9,0c0-1.3,0-2.6,0-4c5.5,0,10.9,0,16.6,0c0-1.1,0-2,0-2.9c0-1.3,0.1-2.5,0-3.8c-0.1-0.9,0.2-1.2,1.1-1.2
	c3.9,0,7.8,0,11.7,0c1.7,0,3.5,0,5.2,0c0.7,0,1-0.2,0.9-0.9c0-0.2,0-0.3,0-0.5c0-22.6,0-45.2,0-67.8c0-0.7-0.2-1.1-0.7-1.6
	c-0.9-1.1-1.7-2.3-2.4-3.5c-0.3-0.5-0.5-0.7-1.1-0.6c-8.2,0.9-16.4,1.8-24.7,2.6c-0.6,0.1-0.9,0.3-1.2,0.8c-0.5,0.8-1.1,1.6-1.8,2.2
	c-0.6,0.5-0.7,0.8-0.5,1.5c2.2,7.2,4.4,14.4,6.6,21.6c0.4,1.4,0.9,2.8,1.3,4.2c0.2,0.9,0.6,1.2,1.5,1.2c2.9-0.1,5.8,0,8.7,0
	c0.8,0,1.1,0.2,1,1c0,0.4,0,0.8,0,1.2c0,0.5,0.2,1.2-0.1,1.6c-0.2,0.3-1,0.2-1.5,0.3c-0.2,0.1-0.5,0.3-0.6,0.5
	C41,74.8,30.5,82,18.7,80.1c-5.9-0.9-10.8-3.6-14.2-8.6c-1-1.5-1.6-3.2-2.2-4.9c-0.3-0.9-0.6-1.3-1.6-1.2c-0.2,0-0.4,0-0.8-0.1
	c0-1.2,0-2.3,0-3.5c0-0.7,0.5-0.6,0.9-0.6c2.9,0,5.8,0,8.7,0c0.9,0,1.3-0.3,1.5-1.2c2.6-8.7,5.3-17.4,8-26.1c0.2-0.6,0-1-0.4-1.4
	c-2-1.7-2.6-4-1.9-6.5c0.8-2.4,2.5-3.8,5-4.1c2.6-0.3,4.7,0.7,6,3c0.3,0.6,0.7,0.7,1.3,0.6c6-0.6,11.9-1.3,17.9-1.9
	c2.1-0.2,4.2-0.5,6.3-0.7c0.7-0.1,1-0.3,1.1-1c1.5-7.2,9.8-10.3,15.6-5.8c1.9,1.5,3.1,3.4,3.6,5.8c0.1,0.7,0.5,0.9,1.1,1
	c8.2,0.8,16.3,1.5,24.5,2.3c0.7,0.1,1.1-0.1,1.6-0.7c1.4-2.1,3.5-3,6-2.5s4.2,2,4.8,4.6c0.6,2.5-0.2,4.6-2.2,6.1
	c-0.5,0.4-0.7,0.7-0.5,1.3c2.7,8.6,5.3,17.3,7.9,26c0.2,0.8,0.6,1.1,1.5,1.1c2.9-0.1,5.8,0,8.7,0c0.7,0,1.1,0.2,1,1
	c-0.1,1,0,2,0,3.2c-2-0.6-2.2,0.8-2.6,2.1c-1.7,5.1-5.3,8.6-10.2,10.7c-8.4,3.6-16.5,2.8-23.9-2.8c-3.3-2.5-5.3-5.8-6.1-9.8
	c-0.1-0.1-0.2-0.1-0.2-0.1c-1.8-0.2-1.8-0.2-1.8-2c0-2.1,0-2.1,2.1-2.1c2.6,0,5.1,0,7.7,0c0.7,0,1.1-0.2,1.3-0.9
	c2.6-8.7,5.3-17.4,8-26.2c0.2-0.7,0.1-1.1-0.4-1.6c-0.7-0.6-1.2-1.4-1.6-2.2c-0.3-0.6-0.6-0.9-1.3-0.9c-6.1-0.6-12.3-1.2-18.4-1.8
	c-2.1-0.2-4.1-0.4-6.2-0.6c-0.7-0.1-1,0.1-1.4,0.8c-0.7,1.2-1.6,2.3-2.4,3.4c-0.3,0.4-0.6,1-0.6,1.5c0,22.7,0,45.4,0,68.1
	c0,1,0.3,1.2,1.2,1.2C71.1,102.3,83.9,102.4,87.8,102.3z M89.6,65.6c0.3,2.1,1.8,4.7,3.9,6.4c4.8,4,10.4,5.1,16.4,3.8
	c4.8-1,8.6-3.5,11-7.9c0.4-0.7,0.6-1.5,0.9-2.3C110.9,65.6,100.3,65.6,89.6,65.6z M6.3,65.6c0.4,1.7,1.2,3.2,2.2,4.4
	c2.8,3.5,6.5,5.4,10.9,6c6,0.9,11.4-0.5,15.9-4.8c1.6-1.5,2.7-3.4,3.2-5.6C27.8,65.6,17.1,65.6,6.3,65.6z M62.2,34
	c0,22.8,0,45.4,0,68.2c0.9,0,1.7-0.1,2.5,0c0.9,0.1,1.2-0.2,1.2-1.1c0-22,0-44,0-66c0-0.4,0-0.8,0-1.2C64.5,34,63.4,34,62.2,34z
	 M22.5,38c-0.1,0-0.2,0-0.3,0c-2.4,7.8-4.7,15.5-7.1,23.4c4.9,0,9.7,0,14.5,0C27.3,53.5,24.9,45.7,22.5,38z M112.9,61.4
	c-2.4-7.9-4.8-15.7-7.2-23.4c-0.1,0-0.2,0-0.2,0c-2.4,7.8-4.7,15.6-7.1,23.4C103.2,61.4,108,61.4,112.9,61.4z M43.2,110
	c13.9,0,27.7,0,41.6,0c0-0.8,0-1.6,0-2.3c0-1.3,0-1.3-1.3-1.3c-12.9,0-25.9,0-38.8,0c-0.3,0-0.6-0.1-0.8,0s-0.6,0.4-0.6,0.6
	C43.2,108,43.2,109,43.2,110z M69.7,24.3c0-3.1-2.6-5.7-5.7-5.7c-3.1,0-5.7,2.6-5.7,5.8c0,3.1,2.6,5.6,5.7,5.6
	C67.1,30,69.7,27.4,69.7,24.3z M107.7,28.3c0-1-0.9-2-1.9-2s-1.9,0.9-1.9,1.9s0.8,1.9,1.9,1.9C106.7,30.2,107.6,29.3,107.7,28.3z
	 M24.5,28.2c0-1-0.9-1.9-1.9-1.9c-1.1,0-2,0.9-2,1.9s0.9,1.9,1.9,1.9C23.6,30.2,24.5,29.3,24.5,28.2z"/>
<path class="st0" d="M64,26.2c-2.1,0-2.1,0-2.1-2s-0.4-1.8,1.9-1.8c2.2,0,2.2,0,2.2,2.2C66,26.4,66.4,26.1,64,26.2z"/>
</svg>
