<?xml version="1.0" encoding="utf-8"?>
<!-- Generator: Adobe Illustrator 25.4.1, SVG Export Plug-In . SVG Version: 6.00 Build 0)  -->
<svg version="1.1" id="Layer_1" xmlns="http://www.w3.org/2000/svg" xmlns:xlink="http://www.w3.org/1999/xlink" x="0px" y="0px"
	 viewBox="0 0 50 50" style="enable-background:new 0 0 50 50;" xml:space="preserve">
<style type="text/css">
	.st0{fill:#F37A7B;}
</style>
<g>
	<path class="st0" d="M0,17c1,0.6,2,1.2,3,1.8c6.7,4.1,13.4,8.2,20.2,12.3c1.2,0.8,2.4,0.8,3.7,0c7.5-4.6,15.1-9.2,22.6-13.8
		c0.2-0.1,0.3-0.2,0.6-0.3c0,0.2,0,0.3,0,0.5c0,6.1,0,12.3,0,18.4c0,4.4-3.2,7.6-7.5,7.6c-11.6,0-23.3,0-34.9,0
		c-3.9,0-6.8-2.5-7.5-6.4C0.1,37,0,37,0,36.9C0,30.3,0,23.6,0,17z"/>
	<path class="st0" d="M0.2,12.3c0.5-2.9,3.3-5.4,6.2-5.7C6.9,6.6,7.5,6.6,8,6.6c11.4,0,22.9,0,34.3,0c3.3,0,5.6,1.5,7,4.4
		c0.6,1.3,0.6,1.3-0.6,2c-7.8,4.7-15.5,9.5-23.3,14.2c-0.3,0.2-0.6,0.2-0.9,0c-8-4.9-15.9-9.8-23.9-14.6C0.5,12.5,0.4,12.4,0.2,12.3
		z"/>
</g>
</svg>
