<?xml version="1.0" encoding="utf-8"?>
<!-- Generator: Adobe Illustrator 25.4.1, SVG Export Plug-In . SVG Version: 6.00 Build 0)  -->
<svg version="1.1" id="Layer_1" xmlns="http://www.w3.org/2000/svg" xmlns:xlink="http://www.w3.org/1999/xlink" x="0px" y="0px"
	 viewBox="0 0 50 50" style="enable-background:new 0 0 50 50;" xml:space="preserve">
<style type="text/css">
	.st0{fill:#F37A7B;}
</style>
<path class="st0" d="M42.5,50c-1.6-0.5-3.1-0.8-4.5-1.5C22.2,39.9,10,27.7,1.5,11.9C0.8,10.6,0.4,9,0.3,7.6c-0.1-1,0.4-2.3,1.1-2.9
	c1.9-1.6,4-2.9,6-4.2C8.7-0.3,10-0.1,11.2,1c2.6,2.5,5.2,5,7.7,7.6c1.1,1.1,1.2,2.2,0.2,3.5c-0.9,1.1-1.7,2.3-2.5,3.5
	c-1.1,1.6-1.2,3.3,0.1,4.7c4.2,4.4,8.6,8.7,13,13c1.5,1.5,3.3,1.3,5,0c1.1-0.8,2.2-1.6,3.3-2.4c1.2-0.9,2.3-0.9,3.3,0.1
	c2.7,2.6,5.3,5.3,7.8,8.1c0.6,0.7,0.9,2.3,0.4,3.1c-1.2,2.3-2.8,4.5-4.4,6.6C44.6,49.4,43.5,49.6,42.5,50z"/>
</svg>
