<?xml version="1.0" encoding="utf-8"?>
<!-- Generator: Adobe Illustrator 25.4.1, SVG Export Plug-In . SVG Version: 6.00 Build 0)  -->
<svg version="1.1" id="Layer_1" xmlns="http://www.w3.org/2000/svg" xmlns:xlink="http://www.w3.org/1999/xlink" x="0px" y="0px"
	 viewBox="0 0 128 128" style="enable-background:new 0 0 128 128;" xml:space="preserve">
<style type="text/css">
	.st0{fill:#F37A7B;}
</style>
<path class="st0" d="M99.8,40.3c3,0,5.8,0,8.5,0c0.4,0,0.9,0.4,1.1,0.8c5.8,10.7,8.2,22.1,7.1,34.2c-1.2,12.5-5.7,23.6-13.7,33.2
	c-6.9,8.4-16,13.7-26.3,17.1c-4.8,1.6-9.7,2.5-14.7,2.3c-2.2-0.1-4.5-0.1-6.8,0c-8.4,0.2-16.1-2.2-23.4-6C14.6,113,4.2,98.9,0.8,80
	c-5.3-30.2,12.9-58.4,42.6-66.4c15.1-4.1,29.7-2.2,43.5,5.1c0.4,0.2,0.9,0.7,0.9,1c0.1,3,0,6,0,9.2C74,19.6,59.2,16.7,43.3,21.4
	C31.7,24.8,22.7,31.8,16,41.8C2.9,61.6,5.4,89.5,23.9,106.9c17,16,44.8,17.9,64,3.8C99,102.5,106,91.6,108.3,78
	C110.6,64.4,107.7,51.9,99.8,40.3z"/>
<path class="st0" d="M74.6,41.9c-1.8,1.8-3.5,3.5-5.2,5.2c-0.2,0.2-0.9,0.1-1.3-0.1c-6.2-2.7-12.5-2.9-18.7-0.4
	c-8.7,3.5-14,10-15.4,19.3c-1.4,9.4,2,17.2,9.5,23C51,94.7,59.3,95.8,68,92s13.6-10.6,14.7-20.1c0.5-4.3-0.2-8.5-2-12.4
	c-0.1-0.3-0.2-0.9,0-1.1c1.7-1.8,3.4-3.5,5.2-5.2c7.5,12,6.3,29-5.7,40.1c-12.2,11.3-31.6,11.2-43.8,0c-12.5-11.6-14-30.8-3.3-44.1
	C43.2,36.6,60.8,33.6,74.6,41.9z"/>
<path class="st0" d="M111.9,0.1c0,2,0,3.9,0,5.7c-0.1,2.3-0.2,4.5-0.3,6.8c-0.1,1.5,2,3.6,3.5,3.6c3.7,0,7.3,0,11,0
	c0.5,0,0.9,0,1.6,0c-0.4,0.5-0.6,0.7-0.8,1c-6,6-12,12-18,18.1c-0.7,0.7-1.4,0.9-2.3,0.9c-2.8-0.1-5.6-0.1-8.4,0
	c-0.9,0-1.9,0.4-2.5,1C86,46.8,76.4,56.5,66.8,66.1c-0.4,0.4-0.6,1.1-0.5,1.6c0.9,4.6-1.9,8.9-6.4,9.8c-4.4,0.9-8.6-1.9-9.7-6.3
	c-1-4.4,1.8-8.8,6.2-9.8c0.7-0.2,1.4-0.3,2.1-0.2c1.3,0.2,2.1-0.3,2.9-1.1c9.8-9.7,19.7-19.5,29.6-29.2c0.7-0.7,1.2-1.3,1.2-2.4
	c0-2.6,0-5.2,0-7.7c0-0.6,0.1-1.4,0.5-1.8c6.2-6.3,12.5-12.5,18.7-18.8C111.6,0.3,111.7,0.3,111.9,0.1z"/>
</svg>
