<?xml version="1.0" encoding="utf-8"?>
<!-- Generator: Adobe Illustrator 25.4.1, SVG Export Plug-In . SVG Version: 6.00 Build 0)  -->
<svg version="1.1" id="Layer_1" xmlns="http://www.w3.org/2000/svg" xmlns:xlink="http://www.w3.org/1999/xlink" x="0px" y="0px"
	 viewBox="0 0 90 90" style="enable-background:new 0 0 90 90;" xml:space="preserve">
<path d="M43.4,0c1.1,0.3,2.2,0.5,3.2,0.9c2.5,0.9,4.6,2.4,6.1,4.6c0.2,0.3,0.6,0.6,0.9,0.7c4.4,1.4,7.1,5,7.2,9.6c0,2.4,0,4.9,0,7.4
	c0.5,0,1,0,1.4,0c2.7,0,4.4,1.7,4.4,4.4c0,1.8,0,3.5,0,5.3c0,2.9-1.7,4.6-4.6,4.6c-0.4,0-0.8,0-1.2,0c-0.2,0.9-0.3,1.7-0.5,2.5
	c-0.8,3.1-2.4,5.8-4.8,8c-0.3,0.3-0.5,0.8-0.5,1.2c-0.1,1-0.1,2,0,3c0,0.3,0.3,0.8,0.5,0.9c1.3,0.7,2.5,1.4,3.8,1.9
	c0.7,0.3,1.5,0.3,2.2,0.2c2.4,0,4.6,0.3,6.7,1.4c4.5,2.5,6.9,6.2,7,11.4c0.1,5.5-0.1,11,0.1,16.5c0.1,2.6-0.8,4.5-3.4,5.4
	c-14.9,0-29.8,0-44.6,0c-0.6-0.4-1.1-0.9-0.8-1.7c0.3-0.8,1-0.9,1.7-0.9c3,0,6,0,9,0c0.7,0,1.3,0,2.2,0c-0.6-0.8-1.1-1.5-1.7-2.2
	c-1.1-1.4-1.3-2.8-0.7-4.5c1.1-3.2,2.1-6.4,3.2-9.6c0.5-1.4,0.1-2.4-0.4-3.7c-0.4,0.3-0.8,0.5-1.1,0.7c-1.9,1.3-3.6,0.8-4.6-1.2
	c-1.1-2.2-2.2-4.4-3.3-6.6c-1.3-2.5-1.3-2.5-4.1-2.4c-4.9,0.2-9.4,4.6-9.5,9.5c-0.1,6.1,0,12.1,0,18.2c0,1,0.6,1.6,1.6,1.7
	c0.8,0,1.5,0,2.3,0c0.7,0,1.4,0,1.7,0.9c0.3,0.8-0.2,1.3-0.7,1.8c-1.4,0-2.8,0-4.2,0c-0.7-0.4-1.5-0.7-2.1-1.2
	c-0.9-0.7-1.3-1.8-1.3-3c0-6-0.1-12,0-18c0.1-6.6,5.7-12.3,12.3-12.4c2.3,0,4.4-0.6,6.4-1.6c1.3-0.7,1.7-1.4,1.7-2.8
	c0-1.6-0.3-2.8-1.6-4c-2.3-2.2-3.6-5.1-4.1-8.3c-0.1-0.3-0.1-0.7-0.2-1.1c-0.5,0-0.9,0-1.4,0c-2.6,0-4.4-1.8-4.4-4.4
	c0-1.8,0-3.7,0-5.5c0-2.6,1.7-4.3,4.3-4.3c0.5,0,0.9,0,1.5,0c0-0.4,0-0.7,0-1c0-3.3,0-6.6,0-9.9c0-2.3,0.8-4.5,2.1-6.4
	c0.6-0.9,1.3-1.1,2.2-0.6c0.6,0.4,0.7,1.2,0.2,2c-1.2,1.9-1.7,4-1.7,6.3c0,1.6,0,3.3,0,5c1-0.4,1.8-0.7,2.7-1.1
	c0.2-0.1,0.3-0.4,0.3-0.6c0-0.3-0.1-0.6-0.1-1c0.1-0.9,0.7-1.4,1.5-1.4c0.8,0,1.4,0.6,1.4,1.5c0.1,2,0.8,3.7,2.3,5.2
	c0.5,0.5,0.8,0.5,1.3,0c1.4-1.4,2.1-3,2.2-4.9c0.1-1.1,0.6-1.8,1.5-1.8c0.9,0,1.5,0.8,1.4,1.9c-0.2,2.1-0.9,4.1-2.2,5.8
	c-0.2,0.2-0.3,0.5-0.6,0.8c1.6,0.3,3,0.1,4.3-0.5c2.8-1.4,4.2-3.6,4.3-6.7c0-2.2,0.2-4.5-0.7-6.6c-1.6-3.6-4.4-5.7-8.3-6.3
	c-1.8-0.3-3.5,0.1-5.2,0.7c-1.2,0.5-2,0.1-2.2-1c-0.1-0.7,0.2-1.2,0.9-1.5C38,0.7,39.2,0.4,40.4,0C41.4,0,42.4,0,43.4,0z M58.3,30.7
	C58.2,30.7,58.2,30.7,58.3,30.7c-0.1-2-0.1-4-0.1-6c0-0.1,0-0.2,0-0.3c-0.1-1.9-1.3-3.5-3.1-4.1c-0.6-0.2-0.9-0.1-1.3,0.5
	c-1.9,3.4-4.9,5.1-8.8,5.1c-3.9,0-6.8-1.7-8.7-5.1c-0.3-0.6-0.7-0.7-1.3-0.5c-1.9,0.6-3.1,2.2-3.2,4.3c0,3.8,0,7.6,0,11.4
	c0.1,7.1,4.4,12.2,11.5,13.2c6,0.9,13.4-2.5,14.6-11C58.3,35.8,58.2,33.2,58.3,30.7z M50.6,87.3c0.2,0,0.3,0.1,0.4,0.1
	c6.7,0,13.4,0,20,0c1.2,0,1.8-0.6,1.8-1.8c0-5.8,0-11.7,0-17.5c0-2.5-0.9-4.6-2.5-6.5c-2.4-2.7-5.4-3.7-9-3.6c-0.7,0-1,0.2-1.3,0.8
	c-1.3,2.8-2.7,5.6-4.1,8.3c-1,2-2.7,2.4-4.5,1.2c-0.4-0.3-0.8-0.5-1.2-0.8c-0.9,1.8-0.9,2.1-0.4,3.7c1,3.1,2,6.2,3.1,9.2
	c0.6,1.8,0.4,3.4-0.8,4.9C51.6,85.9,51.1,86.6,50.6,87.3z M44.7,87.3c0.7,0,1.1,0,1.5,0c0.8,0.1,1.2-0.2,1.7-0.8
	c0.6-1,1.3-1.9,2-2.7c0.6-0.8,0.8-1.5,0.4-2.5c-0.9-2.6-1.7-5.2-2.6-7.7c-0.8-2.4-0.8-2.4-3.4-2.4c-0.2,0-0.5-0.1-0.7,0
	c-0.3,0.1-0.7,0.3-0.8,0.6c-1.1,3.3-2.2,6.7-3.4,10c-0.2,0.7-0.1,1.3,0.3,1.8c0.5,0.7,1.2,1.4,1.6,2.2C42.3,87,43.3,87.8,44.7,87.3z
	 M37.6,50.4c0,0.6,0,1.1,0,1.6c-0.1,0.9,0.2,1.5,0.8,2.1c1.7,1.6,3.3,3.3,5,5c0.5,0.5,1,1.1,1.5,1.6c2.5-2.5,4.8-4.8,7.2-7.2
	c0.1-0.1,0.2-0.3,0.2-0.4c0-0.8,0-1.6,0-2.5C47.4,52.7,42.5,52.7,37.6,50.4z M32.2,57.2c1.5,3.1,3,6,4.6,9.1c2.1-1.4,4.1-2.7,6-4
	c-2.3-2.3-4.6-4.6-6.9-6.9C34.7,56,33.5,56.6,32.2,57.2z M53.2,66.4c1.5-3.1,3-6.1,4.6-9.1c-1.3-0.7-2.5-1.3-3.6-1.8
	c-2.4,2.4-4.7,4.6-7,6.9C49.2,63.7,51.1,65,53.2,66.4z M60.9,30.4c0,1.3,0,2.5,0,3.8c0,0.2,0.1,0.6,0.2,0.7c1.2,0.7,2.8-0.3,2.9-1.7
	c0-1.6,0-3.3,0-4.9c0-1.9-0.4-2.2-2.3-2.3c-0.7,0-0.9,0.3-0.9,0.9C60.9,28.1,60.9,29.2,60.9,30.4z M29.1,30.5c0-1.2,0-2.5,0-3.7
	c0,0,0-0.1,0-0.1c-0.1-0.2-0.1-0.6-0.3-0.7c-1.3-0.7-2.8,0.3-2.8,1.7c0,1.6,0,3.3,0,4.9c0,1.8,0.5,2.3,2.3,2.2
	c0.6,0,0.8-0.2,0.8-0.8C29,32.9,29.1,31.7,29.1,30.5z M44.9,68.4c2.1,0,2.2,0,2.7-2c0.1-0.2-0.1-0.6-0.3-0.8
	c-2.2-1.7-2.2-1.7-4.6-0.1c0,0-0.1,0.1-0.1,0.1c-0.1,0.3-0.3,0.5-0.3,0.8C42.9,68.4,42.9,68.4,44.9,68.4z"/>
<path d="M44.9,43.4c-2.2,0-4.5,0-6.7,0c-1.8,0-2.8-0.6-3.2-2c-0.4-1.4,0.2-3,1.5-3.8c4.8-3,9.9-3.7,15.1-1c0.5,0.3,1.1,0.5,1.6,0.8
	c1,0.6,1.5,1.4,1.8,2.5c0.4,1.9-0.9,3.4-2.9,3.5C49.8,43.4,47.3,43.4,44.9,43.4z M37.7,40.4c0.3,0.1,0.4,0.1,0.5,0.1
	c3.6,0,7.1,0,10.7,0c0.7,0,0.8-0.4,0.5-0.9c-0.2-0.3-0.4-0.6-0.7-0.8c-1-0.8-2.2-1.1-3.5-1.1c-2.5,0-4.8,0.9-6.9,2.1
	C38.1,40,37.9,40.2,37.7,40.4z"/>
<path d="M40.5,31.2c0,1.4-0.4,2-1.3,2c-0.9,0-1.3-0.7-1.3-2c0-0.3,0-0.6,0-1c0.1-0.7,0.6-1.1,1.3-1.1c0.8,0,1.2,0.4,1.3,1.2
	C40.5,30.6,40.5,30.9,40.5,31.2z"/>
<path d="M49.5,31.1c0-0.3,0-0.6,0-0.9c0.1-0.7,0.5-1.1,1.2-1.1c0.7,0,1.2,0.3,1.3,1c0.1,0.6,0.1,1.3,0,1.9c-0.1,0.7-0.6,1.1-1.3,1.1
	c-0.7,0-1.2-0.5-1.3-1.3C49.5,31.7,49.5,31.4,49.5,31.1C49.5,31.1,49.5,31.1,49.5,31.1z"/>
<path d="M62.5,81.2c-1.4,0-2.9,0-4.3,0c-1.7,0-2.8-1.1-2.8-2.8c0-1,0-1.9,0-2.9c0-1.5,1.1-2.7,2.6-2.7c3,0,6,0,9,0
	c1.5,0,2.6,1.2,2.6,2.7c0,1,0,2,0,3c0,1.6-1.2,2.7-2.7,2.7C65.4,81.3,63.9,81.2,62.5,81.2z M58,78.5c3,0,5.9,0,8.8,0c0-1,0-2,0-2.9
	c-3,0-5.9,0-8.8,0C58,76.5,58,77.5,58,78.5z"/>
</svg>
