<?xml version="1.0" encoding="utf-8"?>
<!-- Generator: Adobe Illustrator 25.4.1, SVG Export Plug-In . SVG Version: 6.00 Build 0)  -->
<svg version="1.1" id="Layer_1" xmlns="http://www.w3.org/2000/svg" xmlns:xlink="http://www.w3.org/1999/xlink" x="0px" y="0px"
	 viewBox="0 0 90 90" style="enable-background:new 0 0 90 90;" xml:space="preserve">
<path d="M42.7,0c1.5,0.2,3,0.4,4.5,0.7c4,0.7,7.8,2.1,11.4,4.2c3.7,2.2,5.3,5.7,4.5,9.8c-0.6,3.2-1.2,6.3-1.8,9.5
	c-0.1,0.5,0,0.8,0.4,1.1c1.6,1.3,2.2,3.3,1.6,5.2c-0.6,1.9-2.3,3.1-4.3,3.2c-0.7,0-1.7-0.2-2.1,0.1c-0.5,0.3-0.5,1.3-0.7,2
	c-1,2.5-2.8,4.1-5.1,5.3c-1.1,0.5-1.1,1.5-0.2,2.2c0.8,0.6,1.5,1.3,2.3,2c0.2,0.2,0.5,0.3,0.8,0.3c2.3,0.1,4.7,0.2,7,0.2
	c0.2,0,0.4-0.1,0.5-0.2c1.3-1,2.1-1.1,3.5-0.3c3.3,1.9,6.6,3.8,9.9,5.7c1.6,0.9,3.2,1.8,4.8,2.8c1.6,1,2,2.5,1.1,4.1
	c-2,3.6-4.1,7.1-6.1,10.6c-0.3,0.4-0.3,0.7,0.1,1.1c1.8,1.9,2.1,4.4,0.9,6.4c-1.3,2.1-3.6,2.9-6.2,2.1c-0.1,0-0.2,0-0.3,0
	c-0.9,1.1-1.2,2.7-2.7,3.4c-1.6,0.7-2.7-0.4-4.1-1.1c0,1,0,1.8,0,2.7c0,1.4,0,2.9,0,4.3c0,1.6-0.9,2.5-2.5,2.5c-1.2,0-2.3,0-3.5,0
	c-0.9,0-1.5-0.6-1.5-1.3c0-0.8,0.6-1.3,1.4-1.3c1.1,0,2.2,0,3.4,0c0-2.4-0.1-4.8,0-7.1c0-1-0.3-1.6-1.2-2c-3.1-1.7-6.2-3.6-9.4-5.4
	c-1.8-1.1-2.2-2.4-1.1-4.3c3.7-6.4,7.4-12.8,11.1-19.2c0.2-0.3,0.3-0.6,0.6-1c-1.8,0-3.5,0-5.3,0c0.3,1.8-0.3,3.5-1.1,5.1
	c-0.4,0.9-0.8,1.9-1.3,2.8c-0.7,1.5-2.1,1.9-3.4,0.9c-1.3-1-2.6-1.9-3.8-2.9c-0.7-0.5-1.3-0.5-2,0c-1.3,1-2.6,2-3.8,2.9
	c-1.4,1-2.7,0.7-3.4-0.9c-0.5-1.1-1-2.3-1.5-3.4c-0.6-1.4-1-2.8-0.8-4.4c-0.3,0-0.6-0.1-0.9-0.1c-1.7,0-3.4-0.1-5.1,0.2
	c-2.2,0.3-3.9,1.6-5,3.5c-0.6,1-1.2,2-1.8,2.9c-0.5,0.8-1.2,1-1.9,0.6c-0.6-0.4-0.8-1.1-0.3-1.9c0.7-1.1,1.3-2.3,2-3.4
	c1.9-2.7,4.5-4.3,7.9-4.5c1.8-0.1,3.6-0.1,5.4,0c0.5,0,0.9-0.2,1.3-0.6c0.7-0.7,1.4-1.3,2.2-1.8c0.6-0.4,0.6-0.9,0.5-1.3
	c-0.1-0.3-0.4-0.6-0.6-0.8c-3-1.5-5.1-3.7-5.7-7c0-0.1-0.1-0.3-0.2-0.5c-0.7,0-1.5,0-2.2,0c-2.1-0.1-3.8-1.3-4.4-3.2
	c-0.6-1.9,0-3.9,1.6-5.2c0.4-0.3,0.5-0.6,0.4-1c-0.7-3.4-1.3-6.8-2-10.3c-0.4-2.1,0.4-3.8,2.5-4.4c1.4-0.4,2.9-0.6,4.3-0.8
	c0.5-0.1,0.8-0.2,1.1-0.6c1-1.6,2.1-3.2,3-4.8c0.9-1.6,2-2.9,3.8-3.4C40.2,0,41.5,0,42.7,0z M30.9,24.2c0.1-0.3,0.1-0.7,0.2-1
	c0.5-2.7,1-5.5,2.3-8c0.6-1.1,1.5-2,2.4-2.9c0.8-0.7,1.4-0.6,2.1,0.2c0.8,0.7,1.7,1.5,2.6,2.1c3.7,2.3,7.8,3.5,12.1,4.3
	c2.2,0.4,3.3,1.5,3.7,3.8c0.3,1.6,0.3,1.6,2,1.6c0.1,0,0.1,0,0.2-0.1c0-0.2,0.1-0.4,0.2-0.6c0.6-3.1,1.2-6.3,1.8-9.4
	C61,11,60,8.7,57.1,7.1c-5.2-3-10.8-4.3-16.7-4.4c-1.1,0-1.8,0.4-2.4,1.3c-1.3,2.2-2.7,4.3-4.1,6.5c-0.5,0.8-1,1-1.9,1.1
	c-1.4,0.1-2.7,0.2-4.1,0.5c-1,0.2-1.2,0.6-1,1.7c0.3,1.8,0.7,3.6,1,5.3c0.3,1.7,0.7,3.5,1,5.2C29.7,24.2,30.3,24.2,30.9,24.2z
	 M36.6,15.1c-0.2,0.3-0.4,0.5-0.6,0.8c-0.3,0.5-0.6,1-0.8,1.6c-1.8,4.9-2.3,9.9-1.9,15.1c0.2,2.7,1.5,4.7,3.9,5.8
	c4.3,2.1,8.6,2,12.9-0.1c2-1,3.3-2.6,3.7-4.9c0.6-3.6,0.3-7.2-0.3-10.7c-0.1-0.7-0.5-1.1-1.2-1.2c-0.4-0.1-0.8-0.2-1.2-0.2
	C46,20.2,40.9,18.6,36.6,15.1z M66.3,49.1c-1.1-0.6-2-1.2-3-1.7c-1.5,2.7-3,5.2-4.6,7.9c1.7,0,2.8,0.7,3.8,1.7
	c2.4,2.5,4.8,5,7.3,7.5c0.8,0.8,1.7,1.6,2.6,2.5c2-3.5,4.1-7.1,6.2-10.8c-1-0.6-2-1.1-3-1.7c-0.5,0.9-1,1.7-1.4,2.5
	c-0.8,1.4-2.2,1.7-3.5,1c-1.6-0.9-3.2-1.8-4.8-2.8c-1.4-0.8-1.7-2.2-1-3.6C65.4,50.8,65.8,50,66.3,49.1z M54.2,63.2
	c-1.4,2.4-2.7,4.7-4.1,7.1c5.1,3,10.2,5.9,15.3,8.9c0.5-1,1-1.8,1.6-2.7C62.7,72,58.5,67.7,54.2,63.2z M61.2,66.7
	c2.7,2.8,5.5,5.7,8.4,8.5c1,1,2.5,0.9,3.4-0.1c0.9-1,1-2.5,0.1-3.5c-1-1.1-2.1-2.2-3.2-3.3c-1.8-1.7-3.6-3.4-5.5-5.1
	C63.5,64.2,62.4,65.4,61.2,66.7z M40.1,42.4c0,1.4,0,2.9,0,4.3c0,0.4,0.3,0.8,0.5,1.1c1,0.9,2.1,1.8,3.1,2.7
	c1.1-0.9,2.1-1.8,3.1-2.7c0.3-0.3,0.6-0.7,0.6-1.1c0.1-1.5,0-3,0-4.3C45,42.4,42.6,42.4,40.1,42.4z M62.8,60.9
	c-0.8-0.8-1.7-1.6-2.7-2.5c-0.6-0.5-1.3-0.6-1.9-0.1c-0.6,0.5-1.3,1-1.7,1.7c-0.3,0.4-0.3,1.3-0.1,1.7c0.8,1.1,1.8,2,2.8,3
	C60.4,63.4,61.5,62.2,62.8,60.9z M37.7,54.7c1.3-0.9,2.4-1.8,3.6-2.8c-1.9-1.6-4.1-2.9-3.9-5.8c-1.6,1-2.1,3-1.4,4.7
	C36.5,52.1,37.1,53.4,37.7,54.7z M49.9,54.8c0.7-1.7,1.4-3.2,1.8-4.8c0.4-1.5-0.4-3.2-1.6-3.7c0,1.3-0.4,2.4-1.2,3.3
	c-0.8,0.8-1.8,1.6-2.7,2.4C47.4,52.9,48.6,53.8,49.9,54.8z M72,55.7c0.5-0.9,0.9-1.6,1.4-2.5c-1.6-0.9-3.2-1.8-4.7-2.7
	c-0.5,0.8-0.9,1.6-1.4,2.4C68.8,53.8,70.3,54.7,72,55.7z M56.9,27c0,1.4,0,2.7,0,4c0.7,0,1.3,0,2,0c1.1-0.1,1.9-0.8,2-1.9
	c0.1-1.1-0.6-2-1.8-2.1C58.3,26.9,57.6,27,56.9,27z M30.6,26.9c-0.8,0-1.7,0-2.4,0.2c-1,0.2-1.5,1.1-1.5,2.1c0.1,1,0.8,1.8,1.8,1.8
	c0.7,0.1,1.4,0,2.1,0C30.6,29.6,30.6,28.3,30.6,26.9z"/>
<path d="M25.1,82.1c0-2.2,0-4.2,0-6.3c0-0.2-0.3-0.5-0.5-0.7c-1.4-1.2-2.8-2.5-4.2-3.7c-1.8-1.6-2.1-3.4-0.9-5.5
	c1.6-2.8,3.3-5.5,4.9-8.3c0.5-0.8,0.7-1.5,0.7-2.4c0-0.5,0-0.9,0-1.4c0.1-0.8,0.7-1.3,1.4-1.3c0.7,0,1.2,0.6,1.2,1.3
	c0,0.3,0,0.5,0,0.8c0,10.5,0,21,0,31.5c0,0.3,0,0.7,0,1.2c0.4,0,0.7,0,1.1,0c6.9,0,13.7,0,20.6,0c0.3,0,0.6,0,0.9,0
	c0.6,0.2,1,0.6,1,1.2c0,0.7-0.4,1.2-1,1.3c-0.2,0.1-0.5,0-0.8,0c-7.2,0-14.4,0-21.6,0c-2,0-2.8-0.8-2.7-2.8c0.1-1.1-0.3-1.9-1.2-2.6
	c-4.2-3.6-8.3-7.2-12.5-10.8c-2.3-2-2.7-4.6-1.2-7.2c1.4-2.4,2.9-4.8,4.3-7.2c0.6-1,1.3-1.2,2-0.8c0.7,0.4,0.8,1.2,0.3,2.1
	c-1.4,2.4-2.8,4.7-4.2,7.1c-1,1.7-0.8,2.9,0.6,4.2c3.7,3.2,7.3,6.4,11,9.6C24.6,81.7,24.8,81.8,25.1,82.1z M25.1,72
	c0-3.4,0-6.7,0-10.1c-1.2,2-2.3,3.8-3.4,5.7c-0.3,0.5-0.4,1.1,0.1,1.5C22.8,70.1,23.9,71,25.1,72z"/>
<path d="M36.2,71.7c-1.3,0-2.6,0-3.9,0c-1.3,0-2-0.7-2-2c0-1.6,0-3.2,0-4.8c0-1.3,0.7-2,2-2c2.6,0,5.3,0,7.9,0c1.4,0,2.1,0.7,2.1,2
	c0,1.6,0,3.2,0,4.7c0,1.4-0.7,2-2.1,2C38.8,71.8,37.5,71.7,36.2,71.7z M39.5,65.6c-2.3,0-4.5,0-6.7,0c0,1.2,0,2.3,0,3.4
	c2.3,0,4.5,0,6.7,0c0-1,0-1.9,0-2.8C39.6,66.1,39.6,65.9,39.5,65.6z"/>
<path d="M44.1,35.5c-1-0.3-1.9-0.4-2.8-0.8c-0.8-0.3-1-1-0.8-1.7c0.3-0.7,1-1,1.7-0.7c1.2,0.5,2.4,0.5,3.6,0c0.7-0.3,1.4,0,1.7,0.7
	c0.3,0.6,0.1,1.4-0.6,1.7C46,35,45,35.2,44.1,35.5z"/>
<path d="M50.1,27c0,0.9-0.5,1.5-1.3,1.5c-0.8,0-1.3-0.6-1.3-1.4c0-0.9,0.6-1.5,1.3-1.5C49.6,25.5,50.1,26.1,50.1,27z"/>
<path d="M37.4,27.1c0-0.9,0.5-1.5,1.3-1.5c0.7,0,1.3,0.6,1.3,1.5c0,0.9-0.5,1.5-1.3,1.5C37.9,28.5,37.4,27.9,37.4,27.1z"/>
</svg>
