<?xml version="1.0" encoding="utf-8"?>
<!-- Generator: Adobe Illustrator 25.4.1, SVG Export Plug-In . SVG Version: 6.00 Build 0)  -->
<svg version="1.1" id="Layer_1" xmlns="http://www.w3.org/2000/svg" xmlns:xlink="http://www.w3.org/1999/xlink" x="0px" y="0px"
	 viewBox="0 0 90 90" style="enable-background:new 0 0 90 90;" xml:space="preserve">
<path d="M87.3,29.5C73.9,25,60.5,20.6,47.2,16.2c-1.3-0.4-2.9-0.4-4.2,0C29.5,20.6,16.2,25,2.9,29.5c-1,0.3-1.9,1.1-2.9,1.6
	c0,0.6,0,1.1,0,1.7c0.8,0.6,1.6,1.4,2.5,1.7C5.9,35.8,9.3,37,12.8,38c1.1,0.4,1.5,0.9,1.5,2.1c-0.1,2.9,0.2,5.8-0.1,8.6
	c-0.3,2.9,1,4.6,3.2,6C32.3,64.4,48,65,64.4,59.3c1.6-0.6,2.3-1.7,1.7-3.3c-0.6-1.6-2-1.7-3.4-1.1c-6.8,2.8-13.9,3.6-21.2,3.2
	c-7.5-0.5-14.6-2.5-20.9-6.9c-0.6-0.4-1.5-1.2-1.5-1.8c-0.2-3-0.1-6-0.1-9.1c0.7,0.2,1.2,0.3,1.7,0.5c7.4,2.5,14.9,5,22.4,7.3
	c1.2,0.4,2.8,0.4,4,0c3.4-1,6.8-2.2,10.2-3.3c4.6-1.5,9.1-3,13.8-4.6c0.3,2.3,0.4,4-1.9,5.5c-3.8,2.5-3.6,8.2,0.1,11
	c1.2,0.9,1.2,1.6,0.9,2.8c-1.2,4.5-2.3,9.1-3.4,13.7c-0.7,3,0,4,3.2,4c2.4,0,4.8,0,7.2,0c3,0,3.8-1,3.1-3.9
	c-1.3-5.2-2.6-10.3-3.8-15.5c0.4-0.3,0.8-0.6,1.2-0.9c4-3,3.9-9-0.3-11.6c-1.2-0.8-1.6-1.5-1.5-2.8c0.1-0.7,0.1-1.4,0-2.1
	c-0.2-1.4,0.4-2,1.7-2.4c3.3-1,6.5-2.1,9.8-3.2c1.3-0.4,2.6-0.9,2.7-2.5C90.1,30.4,88.6,30,87.3,29.5z M71.8,72.3c0.5-2,1-4,1.4-6
	c0.2,0,0.3,0,0.5,0c0.5,1.9,0.9,3.9,1.4,5.9C74,72.3,73,72.3,71.8,72.3z M76.3,51.2c0,1.6-1.3,2.8-2.8,2.8s-2.8-1.3-2.8-2.8
	c0-1.6,1.3-2.8,2.8-2.8S76.3,49.7,76.3,51.2z M67.6,33.6c-7.1-1.4-14.2-2.5-21.3-3.7c-2.1-0.3-3.5,0.4-3.6,1.9
	c-0.1,1.8,1.1,2.5,2.8,2.7c5.8,0.9,11.6,1.9,17.4,2.9c0,0.1,0,0.3,0,0.4c-5.8,1.9-11.5,3.9-17.3,5.8c-0.4,0.1-1,0.1-1.4-0.1
	c-11.3-3.7-22.6-7.5-34.4-11.5c2.6-0.9,4.8-1.6,6.9-2.3c8.9-3,17.8-6,26.7-8.9c0.9-0.3,2-0.4,2.8-0.1C57.1,24.4,68,28,78.8,31.6
	c0.3,0.1,0.6,0.3,1,0.5C75.9,34.3,71.9,34.5,67.6,33.6z"/>
</svg>
