<?xml version="1.0" encoding="utf-8"?>
<!-- Generator: Adobe Illustrator 25.4.1, SVG Export Plug-In . SVG Version: 6.00 Build 0)  -->
<svg version="1.1" id="Layer_1" xmlns="http://www.w3.org/2000/svg" xmlns:xlink="http://www.w3.org/1999/xlink" x="0px" y="0px"
	 viewBox="0 0 90 90" style="enable-background:new 0 0 90 90;" xml:space="preserve">
<path d="M16.5,90c-0.8-0.4-1.1-1.1-1.1-2c0-3.6,0-7.3,0-10.9c0.1-9.8,7.7-17.4,17.4-17.6c1.4,0,2.8,0,4.4,0c0-1.4,0-2.7,0-4
	c0-0.2-0.4-0.4-0.7-0.5c-3.6-1.4-6.7-3.5-9.2-6.5c-1.6-1.9-2.9-3.9-3.8-6.2c-0.2-0.6-0.6-0.9-1.2-1c-5-0.9-7.9-5.7-6.4-10.6
	c0.2-0.5,0.2-1,0.2-1.6c0.1-2.2,0-4.4,0.4-6.6c0.6-3.1,2.6-5.4,5.4-6.8c0.7-0.4,1.1-0.8,1.4-1.5C27,5.6,33.6,0.5,43-0.2
	c9.3-0.7,16.4,3.4,21.3,11.3c0.7,1.1,1.1,2.4,1.7,3.6c0.2,0.3,0.4,0.7,0.7,0.8C71,17.6,73,21.1,73,25.8c0,0.7,0,1.4,0,2
	c0.1,1.2,0.2,2.5,0.5,3.6c1,4.5-2,9.1-6.5,9.9c-0.7,0.1-1,0.4-1.3,1c-2.5,6-6.8,10.2-12.9,12.6c-0.6,0.2-0.9,0.5-0.9,1.3
	c0.1,1,0,1.9,0,2.9c0,0.1,0,0.2,0.1,0.4c1.1,0,2.3,0,3.5,0c2.3,0,4.6,0.3,6.7,1.1c6.6,2.7,10.7,7.5,11.2,14.8
	c0.3,4.4,0.2,8.7,0.2,13.1c0,0.5-0.6,1-0.9,1.5C54,90,35.2,90,16.5,90z M24.4,28.2c0.1,0,0.2,0,0.3,0c0,2.6-0.2,5.3,0,7.8
	c1.3,11.7,12.5,19.6,24,17.1c8.6-1.9,15-9.1,15.6-17.9c0.3-4.2,0.1-8.5,0.1-12.7c0-2.5-0.4-4.9-1.3-7.2c-2.4-6.1-6.7-10.2-12.9-12
	C42.5,1.2,35.7,3.2,30,8.9c-2.8,2.8-4.6,6.3-5.1,10.3C24.7,22.2,24.6,25.2,24.4,28.2z M60.8,87.1c0-0.4,0-0.7,0-1.1
	c0-5.4,0-10.8,0-16.1c0-2,0-4.1,0-6.1c0-0.5-0.1-0.7-0.6-0.9c-0.7-0.2-1.1-0.1-1.5,0.5c-4.2,5.9-8.3,11.7-12.5,17.6
	c-1.1,1.6-2,1.6-3.2,0c-4.2-5.9-8.4-11.8-12.6-17.7c-0.5-0.7-0.9-0.5-1.5-0.4c-0.7,0.1-0.6,0.6-0.6,1.1c0,7.4,0,14.8,0,22.2
	c0,0.3,0,0.6,0,0.9C39.2,87.1,49.9,87.1,60.8,87.1z M63.7,64.4c0,7.7,0,15.2,0,22.7c2.4,0,4.7,0,7.1,0c0-3.6,0-7.1,0-10.7
	c0-0.6-0.1-1.2-0.2-1.8C69.8,70.2,67.6,66.9,63.7,64.4z M25.4,64.4c-0.2,0.1-0.4,0.2-0.5,0.3c-4.3,2.9-6.5,7-6.7,12.2
	c-0.1,3.2,0,6.4,0,9.6c0,0.2,0,0.4,0.1,0.7c2.4,0,4.7,0,7.1,0C25.4,79.6,25.4,72.1,25.4,64.4z M48.7,62.3c1.4,1.2,0.7,2.3,0.1,3.3
	c-0.2,0.3-0.4,0.7-0.6,1.1c-0.6,0.8-0.7,1.7-0.4,2.6c0.3,1,0.5,2.1,0.8,3.4c2.5-3.5,4.9-6.9,7.4-10.4C53.5,62.3,51.2,62.3,48.7,62.3
	z M40.6,72.6c0.2-0.8,0.3-1.4,0.5-2.1c0.7-1.8,0.5-3.3-0.7-4.8c-0.8-1-1.3-2.1,0-3.3c-2.5,0-4.8,0-7.2,0c2.4,3.4,4.8,6.7,7.1,10
	C40.4,72.4,40.4,72.4,40.6,72.6z M49,56.4c-3,0-5.9,0-8.9,0c0,1,0,2,0,3c3,0,5.9,0,8.9,0C49,58.3,49,57.3,49,56.4z M67.2,38.3
	c1.9-0.3,3.6-2.6,3.6-4.9c0-2.3-1.5-4.6-3.2-4.9C67.4,31.7,67.3,35,67.2,38.3z M22,38.3c-0.1-3.3-0.3-6.6-0.4-9.9
	c-1.9,0.7-3.4,2.9-3.3,5.1C18.4,35.8,20,37.9,22,38.3z M44.7,69c-0.3,0.4-0.4,0.5-0.5,0.7c-0.5,1.9-0.9,3.8-1.3,5.7
	c0,0.1-0.1,0.3,0,0.4c0.5,0.8,1.1,1.5,1.7,2.4c0.5-0.7,0.8-1.2,1.2-1.7c0.4-0.5,0.5-1,0.3-1.6c-0.3-1.2-0.6-2.4-0.9-3.6
	C45.1,70.6,44.9,69.9,44.7,69z M19,26.2c0.6-0.2,1.1-0.5,1.7-0.7c0.8-0.2,1-0.7,1-1.5c0-1.6,0-3.1,0-4.7
	C19.7,21.1,18.9,23.4,19,26.2z M70,26.2c0.3-2.7-0.8-5.7-2.5-6.7c0,1.7,0,3.5,0,5.3c0,0.1,0.2,0.3,0.3,0.4
	C68.5,25.6,69.2,25.9,70,26.2z M44.4,66.4c0.3-0.1,0.6-0.1,0.7-0.2c0.4-0.7,0.9-1.4,1.2-2.1c0.1-0.3-0.4-0.8-0.7-1.1
	c-0.6-0.8-1.5-0.8-2.1,0c-0.7,0.8-0.8,1.5-0.1,2.3c0.2,0.2,0.3,0.5,0.5,0.7C44,66.1,44.2,66.2,44.4,66.4z"/>
<path d="M39.7,47.9c-4-0.1-6.5-1.4-8.5-3.8c-0.3-0.4-0.4-1.1-0.3-1.5c0.2-0.4,0.8-0.8,1.2-0.9c1.7-0.2,2.9-0.9,3.7-2.6
	c1.1-2.3,2.6-4.5,5.3-5c3.4-0.6,6.9-1.1,9.7,1.7c1,1,1.8,2.2,2.4,3.4c0.7,1.5,1.8,2.3,3.4,2.4c0.7,0.1,1.2,0.2,1.5,0.9
	c0.3,0.7,0,1.2-0.4,1.8c-3.1,3.6-7.9,4.6-12.1,2.4c-0.8-0.4-1.4-0.4-2.2,0C42.1,47.3,40.5,47.6,39.7,47.9z M53.9,43.8
	c-1.7-0.8-2.5-2.1-3.2-3.6c-0.3-0.7-0.8-1.4-1.3-2c-0.7-0.9-1.6-1.5-2.7-1.6c-1.3-0.1-2.7-0.1-4,0c-2.1,0.2-3.2,1.8-4,3.5
	c-0.8,1.5-1.5,2.9-3.2,3.6c1.1,0.9,2.8,1.4,4,1.1c1.3-0.3,2.6-0.7,3.7-1.3c1.1-0.6,2-0.7,3,0c0.5,0.4,1.1,0.6,1.7,0.9
	C49.8,45.2,51.8,45.1,53.9,43.8z"/>
<path d="M44.5,18c3.3,0,6.5,0,9.8,0c0.3,0,0.6,0,1,0c0.7,0.1,1.1,0.6,1.2,1.3c0,0.7-0.3,1.2-1,1.4c-0.3,0.1-0.7,0.1-1,0.1
	c-6.5,0-13.1,0-19.6,0c-0.4,0-0.8,0-1.1-0.1c-0.7-0.2-1-0.7-0.9-1.4c0-0.7,0.4-1.1,1.1-1.3c0.3-0.1,0.6-0.1,1-0.1
	C38,18,41.3,18,44.5,18z"/>
<path d="M44.6,15.8c-2.7,0-5.4,0-8.1,0c-1.1,0-1.8-0.7-1.6-1.7c0.2-0.8,0.7-1.2,1.7-1.2c1.5,0,3,0,4.5,0c3.7,0,7.3,0,11,0
	c0.3,0,0.7,0,1,0.1c0.8,0.2,1.3,0.8,1.2,1.5c-0.1,0.8-0.6,1.2-1.3,1.3c-1.3,0-2.6,0-3.9,0C47.6,15.8,46.1,15.8,44.6,15.8z"/>
<path d="M34.5,27.5c1.5,0,2.8,1.2,2.8,2.8c0,1.5-1.3,2.8-2.8,2.8c-1.5,0-2.7-1.2-2.8-2.7C31.7,28.8,33,27.5,34.5,27.5z"/>
<path d="M54.6,33.1c-1.5,0-2.8-1.2-2.8-2.8c0-1.5,1.2-2.7,2.7-2.8c1.6,0,2.8,1.2,2.9,2.7C57.4,31.8,56.2,33.1,54.6,33.1z"/>
</svg>
