<?xml version="1.0" encoding="utf-8"?>
<!-- Generator: Adobe Illustrator 25.4.1, SVG Export Plug-In . SVG Version: 6.00 Build 0)  -->
<svg version="1.1" id="Layer_1" xmlns="http://www.w3.org/2000/svg" xmlns:xlink="http://www.w3.org/1999/xlink" x="0px" y="0px"
	 viewBox="0 0 90 90" style="enable-background:new 0 0 90 90;" xml:space="preserve">
<path d="M45,75.6c-13.5,0-27,0-40.5,0c-1.9,0-3.3-0.5-4.1-2.3c-0.8-1.8-0.2-3.2,1-4.6c3.5-4,7.1-8.1,10.5-12.2
	c0.4-0.5,0.7-1.2,0.7-1.8c0-11.6,0-23.2,0-34.8c0-3.7,1.7-5.4,5.3-5.4c18.1,0,36.2,0,54.3,0c3.4,0,5.3,2.3,5.3,5.3
	c-0.1,11.6-0.1,23.3,0,34.9c0,0.7,0.4,1.4,0.8,2c3.5,4.2,7.1,8.2,10.6,12.4c2,2.3,1,5.8-1.8,6.5c-0.5,0.1-1.1,0.1-1.7,0.1
	C72,75.6,58.5,75.6,45,75.6z M16.4,52.4c19.1,0,38.1,0,57.1,0c0-11.4,0-22.7,0-34c-19.1,0-38,0-57.1,0C16.4,29.7,16.4,41,16.4,52.4z
	 M26.2,66.3c0,0.7,0,1.3,0,2c5.9,0,11.7,0,17.4,0c0-0.7,0-1.3,0-2C37.8,66.3,32,66.3,26.2,66.3z M23.6,56.9c-1.1,0-2.2,0-3.4,0
	c-0.2,0-0.5,0.4-0.6,0.6c-0.3,1.3,0,1.6,1.3,1.6c0.4,0,0.8,0,1.2,0c1.9,0,1.9,0,1.6-1.9C23.8,57.1,23.8,57.1,23.6,56.9z M26.3,59.1
	c1,0,1.7,0,2.5,0c1.8,0.1,1.9,0,1.8-1.8c0-0.1-0.1-0.2-0.2-0.4c-1.1,0-2.3,0-3.4,0c-0.2,0-0.6,0.4-0.7,0.7
	C26.2,58,26.3,58.4,26.3,59.1z M39.7,59.1c1.2,0,2.4,0,3.7,0c0.2,0,0.5-0.6,0.5-1c0-0.4-0.3-1.1-0.5-1.1c-1.2-0.1-2.4-0.1-3.7-0.1
	C39.7,57.7,39.7,58.3,39.7,59.1z M57.1,56.9c-1.2,0-2.4,0-3.5,0c-0.3,0-0.6,0.4-0.7,0.7c-0.1,0.4,0,0.9,0,1.4c1.5,0,2.8,0,4.2,0
	C57.1,58.3,57.1,57.7,57.1,56.9z M70.5,59c0-0.5,0.1-1,0-1.4c-0.1-0.3-0.3-0.6-0.5-0.6c-1.2-0.1-2.4,0-3.6,0c0,0.8,0,1.5,0,2.1
	C67.7,59,69,59,70.5,59z M33,57c0,0.6-0.1,1-0.1,1.5c0,0.2,0.4,0.6,0.6,0.6c1.2,0.1,2.4,0,3.5,0c0-0.8,0-1.5,0-2.1
	C35.7,57,34.4,57,33,57z M50.4,57c-1.5,0-2.8,0-4,0c-0.3,2.1-0.3,2.1,1.6,2.1c0.5,0,1,0,1.5,0c0.7,0,1.1-0.2,1-1
	C50.4,57.7,50.4,57.4,50.4,57z M59.7,56.9c-0.4,2.2-0.3,2.3,1.6,2.2c0.5,0,1,0,1.6,0c0.7,0,0.9-0.3,0.8-1c-0.1-0.5,0.2-1.3-0.8-1.3
	C61.9,56.9,60.9,56.9,59.7,56.9z M72.6,66.4c0,0.8,0,1.4,0,2c1.4,0,2.8,0,4.1,0c0-0.7,0-1.3,0-2C75.3,66.4,74,66.4,72.6,66.4z
	 M83.3,66.3c-1.3,0-2.4,0-3.6,0c-0.2,0-0.6,0.5-0.6,0.8c0,0.4,0.2,1.3,0.4,1.3c1.2,0.1,2.5,0.1,3.8,0.1C83.3,67.6,83.3,67,83.3,66.3
	z M66.1,66.3c0,0.7,0,1.3,0,2c1.4,0,2.8,0,4.1,0c0-0.7,0-1.3,0-2C68.8,66.3,67.5,66.3,66.1,66.3z M63.7,68.4c0-0.5,0.1-1,0-1.5
	c0-0.2-0.3-0.5-0.5-0.5c-1.2,0-2.4,0-3.7,0c0,0.8,0,1.4,0,2.1C60.9,68.4,62.2,68.4,63.7,68.4z M52.8,66.3c0,0.7,0,1.3,0,2
	c1.4,0,2.7,0,4.1,0c0-0.7,0-1.4,0-2C55.5,66.3,54.3,66.3,52.8,66.3z M46.2,66.4c0,0.8,0,1.4,0,2c1.4,0,2.7,0,4.1,0c0-0.7,0-1.3,0-2
	C48.9,66.4,47.6,66.4,46.2,66.4z M19.6,68.4c1.4,0,2.7,0,4.1,0c0-0.7,0-1.3,0-2c-1.4,0-2.7,0-4.1,0C19.6,67.1,19.6,67.7,19.6,68.4z
	 M13.3,68.3c1.4,0,2.8,0,4.1,0c0-0.7,0-1.3,0-2c-1.4,0-2.7,0-4.1,0C13.3,67.1,13.3,67.7,13.3,68.3z M76.8,61.6c-1.1,0-2.1,0.1-3.1,0
	c-0.9-0.1-1.2,0.3-1.1,1.1c0,0.3,0.1,0.6,0.1,0.9c1.4,0,2.7,0,4.1,0C76.8,63,76.8,62.4,76.8,61.6z M59.5,61.6c0,0.7,0,1.4,0,2
	c1.4,0,2.7,0,4.1,0c0-0.7,0-1.4,0-2C62.2,61.6,60.9,61.6,59.5,61.6z M46.2,61.6c0,0.7,0,1.3,0,2c1.4,0,2.8,0,4.1,0c0-0.7,0-1.3,0-2
	C48.9,61.6,47.6,61.6,46.2,61.6z M32.9,63.6c1.4,0,2.8,0,4.1,0c0.2-2,0.2-2-1.6-2c-0.5,0-1,0-1.6,0c-0.8-0.1-1.1,0.3-1,1
	C32.9,62.9,32.9,63.3,32.9,63.6z M19.6,63.7c1.4,0,2.8,0,4.1,0c0-0.7,0-1.3,0-2c-1.4,0-2.8,0-4.1,0C19.6,62.4,19.6,62.9,19.6,63.7z
	 M13.3,61.7c0,0.6-0.1,1,0,1.5c0,0.2,0.3,0.5,0.5,0.6c1.2,0,2.4,0,3.7,0c0-0.8,0-1.4,0-2.1C16.1,61.7,14.8,61.7,13.3,61.7z
	 M7.1,68.3c1.5,0,2.8,0,4.1,0c0-0.7,0-1.3,0-1.9c-1.4,0-2.7,0-4.1,0C7.1,67.1,7.1,67.7,7.1,68.3z M66.2,63.7c1.4,0,2.7,0,4.1,0
	c0-0.7,0-1.3,0-2c-1.4,0-2.7,0-4.1,0C66.2,62.4,66.2,63,66.2,63.7z M57,61.6c-0.9,0-1.7,0-2.5,0c-1.8,0-1.8,0-1.6,1.9
	c0,0.1,0.1,0.1,0.1,0.2c1.3,0,2.7,0,4,0C57,63,57,62.4,57,61.6z M43.7,61.7c-1.4,0-2.7,0-4.1,0c0,0.7,0,1.4,0,2c1.4,0,2.7,0,4.1,0
	C43.7,63,43.7,62.4,43.7,61.7z M30.4,61.7c-1.5,0-2.8,0-4.1,0c0,0.7,0,1.3,0,1.9c1.4,0,2.7,0,4.1,0C30.4,63,30.4,62.4,30.4,61.7z"/>
</svg>
