<?xml version="1.0" encoding="utf-8"?>
<!-- Generator: Adobe Illustrator 25.4.1, SVG Export Plug-In . SVG Version: 6.00 Build 0)  -->
<svg version="1.1" id="Layer_1" xmlns="http://www.w3.org/2000/svg" xmlns:xlink="http://www.w3.org/1999/xlink" x="0px" y="0px"
	 viewBox="0 0 90 90" style="enable-background:new 0 0 90 90;" xml:space="preserve">
<path d="M45,74.1c-11.7,0-23.5,0-35.2,0c-6,0-9.7-3.8-9.8-9.8c0-13.5,0-27,0-40.5c0-6,3.8-9.7,9.7-9.7c23.5,0,47,0,70.5,0
	c6,0,9.7,3.8,9.8,9.7c0,13.5,0,27,0,40.5c0,6-3.8,9.8-9.7,9.8C68.5,74.1,56.7,74.1,45,74.1z M10.4,20.2c0.3,0.3,0.5,0.5,0.7,0.7
	c8.5,8.5,17.1,17.1,25.6,25.6c0.7,0.7,1.4,1.3,2.2,1.8c4.7,3,10.3,2.3,14.5-1.9c8.5-8.5,17-17,25.6-25.5c0.2-0.2,0.4-0.5,0.7-0.8
	C56.5,20.2,33.5,20.2,10.4,20.2z M10.6,68c22.9,0,45.9,0,68.6,0c-6.4-6.4-12.9-13-19.5-19.6c-0.7,0.8-1.5,1.6-2.2,2.4
	c-7.1,7.1-17.8,7.1-25,0.1c-0.8-0.8-1.6-1.7-2.3-2.4C23.6,55,17.1,61.5,10.6,68z M6.1,63.4c6.5-6.5,13-13,19.3-19.3
	C19,37.7,12.5,31.2,6.1,24.8C6.1,37.6,6.1,50.6,6.1,63.4z M83.9,63.4c0-12.9,0-25.8,0-38.7c-6.5,6.5-13,13-19.2,19.4
	C71,50.5,77.5,57,83.9,63.4z"/>
</svg>
