<?xml version="1.0" encoding="utf-8"?>
<!-- Generator: Adobe Illustrator 25.4.1, SVG Export Plug-In . SVG Version: 6.00 Build 0)  -->
<svg version="1.1" id="Layer_1" xmlns="http://www.w3.org/2000/svg" xmlns:xlink="http://www.w3.org/1999/xlink" x="0px" y="0px"
	 viewBox="0 0 90 90" style="enable-background:new 0 0 90 90;" xml:space="preserve">
<style type="text/css">
	.st0{fill:#468AF7;}
</style>
<path class="st0" d="M45,90c-12.5,0-25.1,0-37.6,0c-1.8,0-3.2-1.4-3.2-3.2c0-3.5,0-7,0-10.5c0-1.7,1.4-3.1,3.1-3.1
	c0.2,0,0.5,0,0.7,0c0.4,0,0.4,0,0.4-0.4c0-0.2,0-0.5,0-0.7c0-7.4,0-14.8,0-22.2c0-0.4-0.1-0.6-0.4-0.7c-2.4-1.4-3.7-3.5-3.8-6.4
	c0-0.9-0.1-1.8,0-2.7c0.3-2.7,1.6-4.7,4-5.9c1.1-0.6,2.4-0.8,3.7-0.8c0.8,0,0.7,0.1,0.7-0.7c0-2.2,0-4.4,0-6.6
	c0-1.8,1.4-3.2,3.2-3.2c0.8,0,1.5,0,2.3,0c0.2,0,0.3-0.1,0.4-0.3c1.1-2.9,2.6-5.6,4.5-8c2.2-2.7,4.8-5,7.8-6.7
	c2.2-1.3,4.6-2.3,7.1-2.9c1.2-0.3,2.5-0.5,3.7-0.7c0.2,0,0.3-0.1,0.3-0.3c0-0.5,0-1,0.1-1.4C42.1,1.1,43.5,0,45,0
	c1.5,0,2.9,1.1,3.1,2.6c0.1,0.5,0,1,0.1,1.5c0,0.2,0.1,0.3,0.3,0.3c2.5,0.3,5,0.9,7.3,1.9c3,1.2,5.7,2.9,8.1,5.1
	c2.9,2.6,5.2,5.7,6.8,9.3c0.3,0.7,0.6,1.4,0.9,2.1c0.1,0.2,0.2,0.3,0.4,0.2c0.8,0,1.6,0,2.3,0c1.8,0,3.2,1.4,3.2,3.2
	c0,2.3,0,4.5,0,6.8c0,0.4,0,0.4,0.4,0.4c1,0,1.9,0,2.8,0.3c2.6,0.9,4.3,2.7,4.9,5.3c0.1,0.6,0.2,1.2,0.2,1.8c0,0.7,0,1.3,0,2
	c-0.1,2.9-1.4,5-3.9,6.4c-0.2,0.1-0.3,0.2-0.3,0.4c0,7.7,0,15.4,0,23.1c0,0.2,0.1,0.3,0.3,0.3c0.5,0,1.1,0,1.6,0.1
	c1.3,0.3,2.3,1.6,2.3,2.9c0,3.6,0,7.1,0,10.7c0,1.6-1.4,3-3,3c-0.9,0-1.8,0-2.7,0C68.4,90,56.7,90,45,90z M45,23
	c6.1,0,12.2,0,18.2,0c0.4,0,0.9,0,1.3,0c0.3,0,0.3,0,0.2-0.3c-1-1.9-2.2-3.7-3.7-5.3c-1.9-2.1-4.2-3.7-6.8-4.9
	c-1.6-0.8-3.3-1.3-5.1-1.6c-1.9-0.4-3.9-0.5-5.8-0.3c-2.1,0.2-4.2,0.6-6.2,1.4c-2.2,0.8-4.2,2-6.1,3.5c-2.4,2-4.3,4.3-5.7,7
	C25.2,23,25,23,25.8,23C32.2,23,38.6,23,45,23z M45,44C45,44,45,44,45,44c11,0,22.1,0,33.1,0c0.1,0,0.2,0,0.4,0
	c0.7,0,1.1-0.5,1.1-1.1c0-0.6,0-1.2,0-1.7c0-0.9-0.4-1.3-1.3-1.3c-1.3,0-2.6,0-3.9,0c-13.4,0-26.8,0-40.3,0c-6.3,0-12.6,0-19,0
	c-1.1,0-2.3,0-3.4,0c-0.7,0-1.1,0.4-1.1,1.1c0,0.7,0,1.3,0,2c0,0.6,0.4,1,1,1.1c0.2,0,0.4,0,0.5,0c4.3,0,8.6,0,12.9,0
	C31.6,44,38.3,44,45,44z M45,83.7c11.3,0,22.6,0,33.8,0c0.2,0,0.3,0,0.5,0c0.2,0,0.2-0.1,0.2-0.2c0-1.2,0-2.5,0-3.7
	c0-0.2-0.1-0.2-0.3-0.2c-0.1,0-0.1,0-0.2,0c-9.3,0-18.7,0-28,0c-12.9,0-25.9,0-38.8,0c-0.5,0-1,0-1.5,0c-0.2,0-0.3,0.1-0.3,0.3
	c0,1.2,0,2.4,0,3.7c0,0.2,0.1,0.3,0.3,0.3c0.5,0,0.9,0,1.4,0C23.1,83.7,34.1,83.7,45,83.7z M45,29.3c-7.9,0-15.8,0-23.7,0
	c-0.7,0-1.5,0-2.2,0c-0.2,0-0.3,0.1-0.3,0.3c0,1.2,0,2.3,0,3.5c0,0.4,0,0.4,0.4,0.4c0,0,0.1,0,0.1,0c16.9,0,33.8,0,50.7,0
	c0.3,0,0.5,0,0.8,0c0.2,0,0.3-0.1,0.3-0.3c0-1.2,0-2.4,0-3.6c0-0.2-0.1-0.3-0.3-0.3c-0.6,0-1.2,0-1.8,0C61.1,29.3,53,29.3,45,29.3z
	 M62.8,61.8c0-3.7,0-7.4,0-11.1c0-0.4,0-0.4-0.4-0.4c-2.5,0-5.1,0-7.6,0c-0.4,0-0.4,0-0.4,0.4c0,7.4,0,14.9,0,22.3
	c0,0.3,0,0.4,0.4,0.4c2.5,0,5.1,0,7.6,0c0.4,0,0.4,0,0.4-0.4C62.8,69.2,62.8,65.5,62.8,61.8z M35.6,61.8
	C35.6,61.8,35.6,61.8,35.6,61.8c0-3.7,0-7.4,0-11.1c0-0.4,0-0.4-0.4-0.4c-2.5,0-4.9,0-7.4,0c-0.6,0-0.6-0.1-0.6,0.6
	c0,7.4,0,14.7,0,22.1c0,0.3,0,0.3,0.3,0.3c2.5,0,5.1,0,7.6,0c0.4,0,0.4,0,0.4-0.4C35.6,69.1,35.6,65.5,35.6,61.8z M20.9,61.8
	c0-3.7,0-7.4,0-11.2c0-0.3,0-0.4-0.3-0.4c-1.9,0-3.7,0-5.6,0c-0.3,0-0.4,0-0.4,0.3c0,7.4,0,14.8,0,22.3c0,0.4,0,0.4,0.4,0.4
	c1.8,0,3.6,0,5.3,0c0.1,0,0.2,0,0.3,0c0.2,0,0.2-0.1,0.2-0.2c0-0.1,0-0.2,0-0.3C20.9,69.1,20.9,65.4,20.9,61.8z M48.1,61.7
	c0-3.7,0-7.4,0-11.1c0-0.4,0-0.4-0.4-0.4c-1.9,0-3.7,0-5.6,0c-0.3,0-0.4,0-0.4,0.4c0,7.4,0,14.8,0,22.3c0,0.4,0,0.4,0.4,0.4
	c1.8,0,3.6,0,5.5,0c0.4,0,0.4,0,0.4-0.4C48.1,69.1,48.1,65.4,48.1,61.7z M75.3,61.7c0-1.8,0-3.7,0-5.5c0-1.9,0-3.8,0-5.7
	c0-0.2-0.1-0.3-0.3-0.3c-1.9,0-3.8,0-5.7,0c-0.2,0-0.3,0.1-0.3,0.3c0,0.1,0,0.2,0,0.3c0,7.1,0,14.2,0,21.3c0,0.3,0,0.5,0,0.8
	c0,0.2,0.1,0.3,0.3,0.3c1.9,0,3.7,0,5.6,0c0.3,0,0.3,0,0.3-0.3C75.3,69.2,75.3,65.5,75.3,61.7z"/>
</svg>
