<?xml version="1.0" encoding="utf-8"?>
<!-- Generator: Adobe Illustrator 25.4.1, SVG Export Plug-In . SVG Version: 6.00 Build 0)  -->
<svg version="1.1" id="Layer_1" xmlns="http://www.w3.org/2000/svg" xmlns:xlink="http://www.w3.org/1999/xlink" x="0px" y="0px"
	 viewBox="0 0 90 90" style="enable-background:new 0 0 90 90;" xml:space="preserve">
<style type="text/css">
	.st0{fill:#468AF7;}
</style>
<path class="st0" d="M10.9,90c-1.4-0.9-1.7-2.2-0.6-3.1c0.3-0.3,0.8-0.4,1.3-0.6c0-0.3,0-0.6,0-1c0-10.6,0-21.1,0-31.7
	c0-1.9,0.5-2.4,2.4-2.4c5.9,0,11.7,0,17.6,0c0.3,0,0.6,0,1.1,0c0-0.4,0-0.7,0-1c0-10.5,0-21,0-31.5c0-2.2,0.4-2.7,2.7-2.7
	c0.2,0,0.5,0,0.8,0c0-0.6,0-1.2,0-1.8c0-1.1,0-2.2,0-3.3c0-1,0.5-1.6,1.4-1.9c0.3-0.1,0.6-0.3,0.7-0.6c0.8-2,2.2-3.5,4.3-4.3
	c0.5-0.2,0.7-0.5,0.6-1c0-0.3,0-0.6,0-1c-0.1-1.1,0.3-1.9,1.2-2.4c0.4,0,0.7,0,1.1,0c1.2,0.6,1.4,1.6,1.2,2.7
	c-0.1,0.9,0.2,1.4,1.1,1.8c1.8,0.7,3,2.1,3.7,3.9c0.2,0.4,0.3,0.7,0.9,0.8c0.9,0.1,1.4,0.9,1.4,1.9c0,1.6,0,3.3,0,4.9
	c0,0,0,0,0.1,0.2c0.5,0,1,0,1.6,0c1.1,0,1.7,0.7,1.8,1.8c0,0.3,0,0.6,0,0.9c0,22.2,0,44.3,0,66.5c0,0.4,0,0.8,0,1.2
	c3.5,0,7,0,10.5,0c0-1.2,0-2.4,0-3.6c-5.7-1.5-7.6-6.7-6.8-10.5c0.8-4,4.5-7,8.7-7c4.2,0,7.8,3.1,8.5,7.2c0.8,4.7-1.6,8.3-6.8,10.2
	c0,1.2,0,2.4,0,3.7c1.3,0,2.5,0,3.8,0c0.9,0,1.9,0,2.8,0c1.3,0,2,0.4,2.3,1.2c0.3,0.9-0.1,1.6-1.1,2.3C56.4,90,33.6,90,10.9,90z
	 M36.2,86.4c5.9,0,11.7,0,17.5,0c0-22.3,0-44.5,0-66.7c-5.9,0-11.7,0-17.5,0C36.2,41.9,36.2,64.1,36.2,86.4z M32.6,79.4
	c0-1.2,0-2.3,0-3.5c-2.9,0-5.7,0-8.5,0c-1.2,0-2-0.7-2-1.7c0-1,0.8-1.8,2-1.8c2.2,0,4.5,0,6.7,0c0.6,0,1.2,0,1.8,0
	c0-1.2,0-2.4,0-3.5c-2.9,0-5.7,0-8.5,0c-1.2,0-2-0.7-2-1.8c0-1,0.8-1.7,2-1.7c2.5,0,5,0,7.6,0c0.3,0,0.6,0,0.9,0c0-1.2,0-2.4,0-3.5
	c-0.1,0-0.2,0-0.2,0c-1,0-2.1,0-3.1,0c-1.3,0-2.1-0.7-2.1-1.8c0-1.1,0.8-1.7,2.1-1.7c1.1,0,2.2,0,3.3,0c0-1.2,0-2.4,0-3.5
	c-5.9,0-11.7,0-17.5,0c0,10.6,0,21.1,0,31.6c5.9,0,11.6,0,17.5,0c0-1.2,0-2.3,0-3.5c-0.4,0-0.7,0-1,0c-2.5,0-5,0-7.5,0
	c-1.2,0-2-0.7-2-1.7c0-1,0.8-1.8,2-1.8c0.2,0,0.5,0,0.7,0C27.4,79.4,30,79.4,32.6,79.4z M71.4,79.1c2.4-0.8,3.8-3.3,3.4-5.7
	c-0.5-2.7-2.8-4.6-5.5-4.4c-2.6,0.1-4.7,2.2-5,4.7c-0.2,2.4,1.3,4.8,3.4,5.4c0.3-2.4,0.7-3.1,1.8-3.1C70.9,76,71.3,76.7,71.4,79.1z
	 M50.2,12.6c-3.5,0-7,0-10.5,0c0,1.2,0,2.3,0,3.4c3.5,0,7,0,10.5,0C50.2,14.9,50.2,13.8,50.2,12.6z M42.1,9c1.9,0,3.9,0,5.8,0
	C46.4,6.5,42.9,7.1,42.1,9z"/>
<path class="st0" d="M43.2,53.1c0,9.1,0,18.3,0,27.4c0,0.3,0,0.6,0,0.9c-0.1,0.9-0.9,1.6-1.8,1.6c-0.9,0-1.6-0.7-1.7-1.6
	c0-0.3,0-0.6,0-0.9c0-18.3,0-36.6,0-54.8c0-1.7,0.6-2.5,1.8-2.5c1.1,0,1.7,0.9,1.7,2.5C43.2,34.8,43.2,43.9,43.2,53.1z"/>
<path class="st0" d="M46.8,55.5c0-8.3,0-16.5,0-24.8c0-0.3,0-0.5,0-0.8c0.1-1,0.8-1.7,1.8-1.7c0.9,0,1.7,0.7,1.7,1.7
	c0,0.2,0,0.5,0,0.7c0,16.6,0,33.2,0,49.8c0,0.3,0,0.5,0,0.8c-0.1,0.9-0.9,1.6-1.8,1.6c-0.9,0-1.6-0.7-1.7-1.7c0-0.3,0-0.6,0-0.9
	C46.8,72.1,46.8,63.8,46.8,55.5z"/>
<path class="st0" d="M48.5,26.7c-1,0-1.8-0.8-1.8-1.8c0-1,0.8-1.7,1.8-1.7c0.9,0,1.7,0.8,1.8,1.7C50.3,25.9,49.5,26.7,48.5,26.7z"/>
<path class="st0" d="M25.7,60.1c0,1-0.8,1.8-1.8,1.7c-1,0-1.8-0.8-1.7-1.8c0-0.9,0.8-1.7,1.8-1.7C24.9,58.3,25.7,59.1,25.7,60.1z"/>
</svg>
