<?xml version="1.0" encoding="utf-8"?>
<!-- Generator: Adobe Illustrator 25.4.1, SVG Export Plug-In . SVG Version: 6.00 Build 0)  -->
<svg version="1.1" id="Layer_1" xmlns="http://www.w3.org/2000/svg" xmlns:xlink="http://www.w3.org/1999/xlink" x="0px" y="0px"
	 viewBox="0 0 90 90" style="enable-background:new 0 0 90 90;" xml:space="preserve">
<style type="text/css">
	.st0{fill:#468AF7;}
</style>
<path class="st0" d="M0,30.9c0.9-1,1.8-2,2.7-3c0.9-0.9,1.8-1.8,2.7-2.7c0.9-0.9,1.6-1,2.7-0.3c0.9,0.6,2,0.3,2.9-0.6
	c0.9-0.9,1.1-2,0.6-2.9c-0.7-1.1-0.6-1.7,0.3-2.6c3.4-3.4,6.7-6.8,10.1-10.1c1-1,1.9-0.9,2.8,0C25,9,25.2,9.3,25.4,9.6
	c2.4-1.8,4.9-3,7.7-3.3c5.7-0.7,10.5,1.2,14.3,5.5c0.6,0.6,0.7,1.4,0.2,2.1c-0.5,0.8-1.2,0.9-2.1,0.8c-2.7-0.5-5.4-0.3-7.8,1.2
	c-1.1,0.7-2.1,1.6-3,2.4c0.6,1,1.4,1.8,1.4,2.6c0,0.8-0.8,1.6-1.2,2.5c4.9,4.9,9.9,9.9,15,15c1.4-1.7,2.5-3.6,3.5-5.6
	c1.4-3.1,1.9-6.4,2.5-9.7c0.3-1.4,0.5-2.8,0.8-4.2c0.4-1.9,1.2-2.3,3-1.7c2.2,0.8,4.3,1.6,6.5,2.4c0.5-1,0.8-2,1.4-2.9
	c2.4-4.3,6.1-6.7,10.8-7.6c1.5-0.3,2.5,0.9,2,2.5c-1.3,3.6-2.6,7.2-3.9,10.8c-0.1,0.3-0.2,0.5-0.3,0.9c1,0.4,2,0.7,3,1.1
	c0.1-0.3,0.2-0.6,0.3-0.8c1.2-3.3,2.5-6.6,3.7-9.9c0.3-0.8,0.7-1.4,1.6-1.6c0.9-0.1,1.4,0.4,1.9,1c5.7,7,4,17.4-3.6,22.1
	c-2.1,1.3-4.5,2.1-6.9,3.1c-3.4,1.5-6.9,2.9-10.2,4.4c-2.5,1.2-4.7,2.9-6.7,4.9c0.2,0.3,0.4,0.5,0.7,0.7
	c8.6,8.6,17.2,17.2,25.8,25.8c1.4,1.4,1.4,2.1,0,3.5c-1.7,1.7-3.4,3.4-5.1,5.1c-1.2,1.2-2,1.2-3.3,0c-8.6-8.6-17.2-17.2-25.8-25.8
	c-0.2-0.2-0.5-0.5-0.7-0.8c-0.4,0.3-0.6,0.6-0.8,0.8c-8,8-16,16-24.1,24.1c-2.5,2.5-5.5,2.9-8.3,1.3c-3.3-1.9-4.3-6.6-1.9-9.6
	c0.3-0.4,0.7-0.8,1.1-1.2c7.9-7.9,15.9-15.9,23.8-23.8c0.2-0.2,0.6-0.4,0.8-0.6C36.2,42,31.2,37,26.1,31.8c-0.1,0.1-0.3,0.3-0.5,0.5
	c-1.1,1-1.6,1.1-2.9,0.4c-0.8-0.5-1.6-0.2-2.3,0.2c-1.4,0.9-1.7,2.2-0.9,3.7c0.4,0.8,0.3,1.5-0.3,2.1c-1.7,1.7-3.3,3.4-5,5
	c-0.8,0.8-1.8,0.8-2.6,0c-3.7-3.7-7.3-7.3-11-11c-0.2-0.2-0.4-0.6-0.6-0.9C0,31.5,0,31.2,0,30.9z M59.8,21c-0.3,1.8-0.7,3.4-0.9,5
	c-1,6.9-4.1,12.7-9.1,17.6C39.6,53.7,29.5,63.9,19.4,74.1c-0.3,0.3-0.6,0.6-0.8,0.9c-1.4,1.8-0.5,4.3,1.7,4.9
	c1.4,0.3,2.4-0.2,3.3-1.2c11.1-11.1,22.2-22.3,33.4-33.4c2.5-2.5,5.3-4.6,8.6-6c4.7-2,9.4-4.1,14.1-6c3.7-1.5,5.8-4.3,6.7-8.1
	c0.6-2.5,0.3-4.9-0.9-7.4c-1.1,3.1-2.2,6-3.3,8.9c-0.6,1.7-1.4,2-3.1,1.4c-3.9-1.4-7.7-2.9-11.6-4.3C64.9,22.8,62.4,21.9,59.8,21z
	 M53.4,53.9c8.5,8.5,17.1,17.1,25.5,25.5c1.1-1.1,2.3-2.3,3.4-3.4c-8.5-8.5-17-17-25.5-25.5C55.7,51.6,54.6,52.8,53.4,53.9z
	 M24.1,28.6c2.6-2.6,5.2-5.2,7.7-7.7c-2.8-2.8-5.7-5.7-8.5-8.5c-2.5,2.5-5.1,5.1-7.7,7.7C18.4,22.9,21.3,25.8,24.1,28.6z M28.8,29.3
	c5,5,10.1,10.1,15.1,15.1c1.1-1.1,2.3-2.3,3.3-3.4c-5-5-10.1-10.1-15.1-15.1C31.1,27,29.9,28.2,28.8,29.3z M4.3,31.4
	c2.8,2.8,5.7,5.7,8.5,8.5c0.9-0.8,1.7-1.6,2.5-2.4c-2.9-2.9-5.7-5.7-8.6-8.6C6,29.7,5.2,30.5,4.3,31.4z M28.2,11.9
	c1.4,1.4,2.7,2.7,3.9,4c1.3-1,2.5-2.2,4-3c1.5-0.8,3.1-1.3,4.7-1.9C37.4,8.8,31.5,9.2,28.2,11.9z M11.6,28.1c1.5,1.5,3,3,4.5,4.5
	c0.7-1.5,1.9-2.6,3.5-3.3c-1.6-1.6-3.1-3.1-4.7-4.7C14.2,26.2,13,27.4,11.6,28.1z M76,13.4c-3.4,1.6-5.4,4-6.5,7.5
	c1.1,0.4,2.2,0.8,3.3,1.2C73.9,19.1,74.9,16.4,76,13.4z"/>
<path class="st0" d="M68.8,36c-0.2-0.1-0.5-0.1-0.8-0.2c-2.6-0.9-5.1-1.8-7.7-2.8c-1.5-0.5-1.9-1.3-1.3-2.8c0.6-1.7,1.2-3.4,1.8-5
	c0.5-1.3,1.3-1.7,2.6-1.2c2.6,0.9,5.3,1.9,7.9,2.8c1.3,0.5,1.7,1.3,1.2,2.6c-0.6,1.8-1.3,3.5-1.9,5.3C70.4,35.5,69.8,36,68.8,36z
	 M62.7,30.2c1.8,0.6,3.5,1.3,5.3,1.9c0.3-0.9,0.6-1.6,0.9-2.5c-1.8-0.6-3.5-1.3-5.3-1.9C63.2,28.6,63,29.3,62.7,30.2z"/>
<path class="st0" d="M23,76.7c0,1-0.8,1.8-1.8,1.8c-1,0-1.8-0.8-1.8-1.8c0-1,0.9-1.8,1.8-1.8C22.2,74.9,23,75.7,23,76.7z"/>
</svg>
