<?xml version="1.0" encoding="utf-8"?>
<!-- Generator: Adobe Illustrator 25.4.1, SVG Export Plug-In . SVG Version: 6.00 Build 0)  -->
<svg version="1.1" id="Layer_1" xmlns="http://www.w3.org/2000/svg" xmlns:xlink="http://www.w3.org/1999/xlink" x="0px" y="0px"
	 viewBox="0 0 54 54" style="enable-background:new 0 0 54 54;" xml:space="preserve">
<g>
	<path d="M0.2,4.7c0.2-0.4,0.3-0.9,0.6-1.3C1.5,2.4,2.4,2,3.6,2c8.2,0,16.6,0,24.8,0c1.3,0,2.6,0,3.9,0c2,0,3.4,1.4,3.4,3.4
		c0,1.1,0,2.2,0,3.4c0,0.8-0.4,1.2-1,1.2c-0.7,0-1.1-0.5-1.1-1.3c0-1.1,0-2.2,0-3.3c0-0.9-0.4-1.3-1.3-1.3c-9.5,0-19.2,0-28.7,0
		c-0.9,0-1.3,0.5-1.3,1.3c0,13.2,0,26.3,0,39.5c0,0.9,0.4,1.3,1.3,1.3c9.6,0,19.2,0,28.8,0c0.9,0,1.3-0.4,1.3-1.3c0-1.3,0-2.5,0-3.8
		c0-0.1,0-0.2,0-0.4c-6.5,0.5-11-4.8-10.9-9.9c0-3,1.1-5.5,3.3-7.4c2.2-2,4.8-2.8,7.7-2.6c0-0.9,0-1.8,0-2.7c0-0.5,0.2-0.9,0.6-1.1
		c0.7-0.3,1.5,0.1,1.5,0.9c0,0.9,0,1.9,0,2.8c0,0.3,0.1,0.4,0.4,0.6c5.5,2.1,7.9,7.9,5.8,13.3c-0.1,0.3-0.1,0.5,0.1,0.7
		c0.6,0.6,1.3,1.3,1.9,1.9c1-0.6,1.3-0.6,2.1,0.2c1.8,1.8,3.6,3.6,5.4,5.4c1,1,2,2.1,2.3,3.5c0,0.5,0,0.9,0,1.4l-0.1,0.1
		c-0.4,1.9-1.5,3.1-3.3,3.6s-3.4,0-4.8-1.3c-2-2-4.1-4.1-6.1-6.1c-0.8-0.8-0.9-1.1-0.2-2.1c-0.5-0.5-1.1-1-1.6-1.6
		c-0.4-0.5-0.8-0.7-1.5-0.3c-0.3,0.2-0.4,0.3-0.4,0.6c0,1.4,0,2.8,0,4.2c0,0.3,0,0.6-0.1,0.9c-0.4,1.6-1.6,2.5-3.4,2.5
		c-9.4,0-18.9,0-28.3,0c-0.2,0-0.4,0-0.6,0c-1.4-0.1-2.5-0.9-2.9-2.2c-0.1-0.2-0.1-0.3-0.2-0.5C0.2,32,0.2,18.3,0.2,4.7z M32.6,22.8
		c-4.4,0-7.8,3.5-7.8,7.9s3.6,7.8,8,7.8c4.3,0,7.7-3.6,7.7-7.9C40.5,26.4,36.9,22.8,32.6,22.8z M41.2,43c2,2,4,4,6,6
		c0.6,0.6,1.3,0.7,2.1,0.6c1-0.2,1.7-0.8,2-1.7c0.3-1,0.1-1.8-0.6-2.6c-1.9-2-3.9-3.9-5.8-5.8c0,0-0.1,0-0.1-0.1
		C43.6,40.6,42.4,41.8,41.2,43z M42.3,38.8c-0.6-0.6-1.2-1.2-1.8-1.8c-0.6,0.6-1.1,1.2-1.7,1.7c0.5,0.5,1.1,1.2,1.7,1.8
		C41.1,39.9,41.7,39.3,42.3,38.8z"/>
	<path d="M48.7,51.9c-1.3,0-2.5-0.5-3.6-1.6c-1.3-1.3-2.6-2.6-4-4c-0.7-0.7-1.4-1.4-2.1-2.1c-0.9-0.9-1-1.3-0.4-2.2
		c-0.1-0.1-0.2-0.2-0.3-0.3c-0.4-0.4-0.8-0.7-1.1-1.1c-0.4-0.4-0.6-0.5-1.1-0.3c-0.2,0.1-0.3,0.2-0.2,0.4c0,1.4,0,2.8,0,4.2
		c0,0.3,0,0.6-0.1,0.9c-0.4,1.7-1.8,2.8-3.6,2.8c-7.5,0-15,0-22.5,0H4H3.9c-0.2,0-0.4,0-0.5,0c-1.5-0.1-2.7-1-3.2-2.3
		c0-0.1-0.1-0.2-0.1-0.3c0-0.1,0-0.1-0.1-0.2l0,0V4.6V4.5c0-0.1,0.1-0.2,0.1-0.3c0.1-0.3,0.3-0.7,0.5-1c0.7-1,1.7-1.5,3.1-1.5l0,0
		c6.3,0,12.6,0,18.9,0h7.1c0.9,0,1.8,0,2.7,0c2.2,0,3.7,1.5,3.7,3.7c0,1.1,0,2.1,0,3.4c0,0.9-0.5,1.5-1.3,1.5
		c-0.4,0-0.7-0.1-0.9-0.3c-0.3-0.3-0.4-0.7-0.4-1.2c0-0.5,0-1,0-1.5c0-0.6,0-1.2,0-1.8c0-0.7-0.3-1-1-1c-9.5,0-19.2,0-28.7,0
		c-0.7,0-1,0.3-1,1.1c0,13.2,0,26.3,0,39.5c0,0.7,0.3,1,1,1c9.2,0,18.9,0,28.8,0c0.7,0,1-0.3,1-1c0-1,0-2.1,0-3.1v-0.7
		c0,0,0,0,0-0.1c-2.9,0.2-5.6-0.8-7.6-2.8c-2.1-2-3.4-4.8-3.3-7.4c0-3.1,1.2-5.7,3.4-7.6c2.1-1.9,4.7-2.8,7.6-2.7v-0.5
		c0-0.6,0-1.2,0-1.8c0-0.6,0.3-1.1,0.8-1.3c0.4-0.2,0.9-0.2,1.2,0.1c0.4,0.2,0.6,0.7,0.6,1.1c0,0.9,0,1.8,0,2.8c0,0.2,0,0.2,0.2,0.3
		c2.7,1,4.8,3,5.9,5.6c1.1,2.6,1.1,5.5,0,8.1c-0.1,0.2-0.1,0.3,0.1,0.4c0.5,0.4,0.9,0.9,1.4,1.4c0.1,0.1,0.2,0.3,0.4,0.4
		c1-0.6,1.4-0.5,2.2,0.4c0.5,0.5,1.1,1.1,1.6,1.6c1.2,1.2,2.5,2.5,3.8,3.7c1,0.9,2,2.1,2.3,3.7v0.1V48v0.1c0,0,0,0,0,0.1l0,0
		c-0.4,2-1.6,3.3-3.5,3.8C49.6,51.8,49.1,51.9,48.7,51.9z M36.6,39.6c0.4,0,0.7,0.2,1.1,0.6c0.3,0.4,0.7,0.7,1.1,1.1
		c0.2,0.2,0.3,0.3,0.5,0.5l0.2,0.2l-0.1,0.2c-0.6,0.9-0.6,1,0.2,1.8c0.7,0.7,1.4,1.4,2.1,2.1c1.3,1.3,2.6,2.6,4,4
		c1.3,1.3,2.8,1.7,4.5,1.3c1.7-0.5,2.7-1.6,3.1-3.4c0-0.1,0-0.1,0.1-0.2v-1.2c-0.3-1.4-1.2-2.5-2.2-3.4c-1.3-1.2-2.5-2.5-3.8-3.7
		c-0.5-0.5-1.1-1.1-1.6-1.6C45,37.1,45,37.1,44,37.7l-0.2,0.1l-0.2-0.2c-0.2-0.2-0.4-0.4-0.5-0.5c-0.4-0.4-0.9-0.9-1.3-1.3
		c-0.3-0.3-0.4-0.6-0.2-1c1.1-2.5,1.1-5.3,0-7.6c-1-2.4-3-4.3-5.6-5.3c-0.4-0.2-0.6-0.4-0.6-0.8c0-1,0-1.9,0-2.8
		c0-0.3-0.1-0.5-0.4-0.7c-0.2-0.1-0.5-0.1-0.7,0c-0.3,0.1-0.5,0.4-0.5,0.8c0,0.6,0,1.2,0,1.8v1.1h-0.3c-2.9-0.2-5.5,0.6-7.4,2.5
		c-2.1,1.6-3.2,4.1-3.2,6.9c0,2.6,1.1,5.2,3.1,7c2,1.9,4.7,2.8,7.5,2.6h0.3v0.3v0.1c0,0.1,0,0.2,0,0.3v0.7c0,1,0,2.1,0,3.1
		c0,1-0.6,1.6-1.6,1.6c-9.9,0-19.5,0-28.8,0c-1,0-1.6-0.6-1.6-1.6c0-13.2,0-26.3,0-39.5c0-1,0.6-1.6,1.6-1.6c9.5,0,19.2,0,28.7,0
		c1,0,1.6,0.6,1.6,1.6c0,0.6,0,1.2,0,1.8c0,0.5,0,1,0,1.5c0,0.4,0.1,0.6,0.3,0.8c0.1,0.1,0.3,0.2,0.5,0.2c0.6,0,0.7-0.5,0.8-1
		c0-1.2,0-2.3,0-3.3c0-1.9-1.3-3.1-3.1-3.1c-0.9,0-1.8,0-2.7,0h-7.1c-6.3,0-12.6,0-18.9,0l0,0c-1.2,0-2,0.4-2.6,1.3
		C0.9,3.8,0.7,4.1,0.6,4.4c0,0.1-0.1,0.3-0.2,0.4v40.9v0.1c0,0.1,0.1,0.2,0.1,0.3c0.4,1.2,1.4,1.9,2.7,2c0.2,0,0.3,0,0.5,0h0.1h5.9
		c7.5,0,15,0,22.5,0c1.6,0,2.8-0.9,3.1-2.3c0.1-0.3,0.1-0.6,0.1-0.8c0-1.4,0-2.8,0-4.2c0-0.5,0.2-0.7,0.5-0.9
		C36.1,39.7,36.4,39.6,36.6,39.6z M48.7,49.8c-0.7,0-1.3-0.2-1.8-0.7c-1.5-1.4-2.9-2.9-4.3-4.4c-0.5-0.6-1.1-1.1-1.6-1.7L40.8,43
		l3.9-3.9l0.2,0.1c0,0,0.1,0,0.2,0.1c0.5,0.5,1,1,1.4,1.4c1.4,1.4,2.9,2.9,4.4,4.4c0.8,0.8,1,1.8,0.7,2.8c-0.3,1-1.1,1.7-2.2,1.9
		C49.1,49.8,48.9,49.8,48.7,49.8z M41.6,43c0.5,0.5,1,1,1.5,1.5c1.4,1.4,2.9,2.9,4.3,4.3c0.5,0.5,1.1,0.7,1.9,0.5
		c0.9-0.2,1.5-0.7,1.8-1.5c0.3-0.9,0.1-1.6-0.5-2.3c-1.5-1.5-2.9-3-4.4-4.4c-0.4-0.4-0.9-0.9-1.3-1.3L41.6,43z M40.6,40.9l-2.1-2.2
		l2.1-2.1l2.2,2.2L40.6,40.9z M39.2,38.7l1.3,1.4l1.3-1.3l-1.4-1.4L39.2,38.7z M32.7,38.9c-2.2,0-4.3-0.8-5.9-2.4
		c-1.6-1.5-2.4-3.6-2.4-5.8s0.8-4.3,2.4-5.8c1.5-1.5,3.6-2.4,5.8-2.4v0.3v-0.3c2.2,0,4.3,0.9,5.9,2.4c1.5,1.5,2.4,3.6,2.4,5.8
		C40.8,35.2,37.1,38.9,32.7,38.9C32.8,38.9,32.8,38.9,32.7,38.9z M32.6,23.1c-2.1,0-4,0.8-5.4,2.2S25,28.7,25,30.7
		c0,2.1,0.8,4,2.3,5.4s3.4,2.2,5.5,2.2l0,0c4.2,0,7.4-3.5,7.5-7.6c0-2-0.8-3.9-2.2-5.4C36.5,23.9,34.6,23.1,32.6,23.1L32.6,23.1
		L32.6,23.1z"/>
</g>
<g>
	<path d="M9.7,32.9c0.9,0,1.9,0,2.8,0c0.8,0,1.2,0.4,1.2,1.2c0,1.9,0,3.7,0,5.6c0,0.8-0.4,1.2-1.2,1.2c-1.9,0-3.7,0-5.6,0
		c-0.8,0-1.2-0.4-1.2-1.2c0-1.9,0-3.8,0-5.7c0-0.7,0.4-1.1,1.1-1.1C7.9,32.9,8.8,32.9,9.7,32.9z M8,38.7c1.3,0,2.5,0,3.7,0
		c0-1.3,0-2.5,0-3.7c-1.3,0-2.5,0-3.7,0C8,36.2,8,37.5,8,38.7z"/>
	<path d="M9.7,41.1c-1,0-1.9,0-2.8,0s-1.4-0.5-1.4-1.5c0-2.1,0-3.9,0-5.7c0-0.9,0.5-1.4,1.4-1.4c0.7,0,1.3,0,2,0c0.3,0,0.6,0,0.9,0
		l0,0c0.3,0,0.6,0,0.9,0c0.6,0,1.3,0,2,0c0.9,0,1.4,0.5,1.4,1.4c0,1.8,0,3.6,0,5.6c0,0.9-0.5,1.5-1.5,1.5
		C11.5,41.1,10.6,41.1,9.7,41.1z M8.1,33.1c-0.4,0-0.8,0-1.1,0c-0.6,0-0.9,0.3-0.9,0.9c0,1.7,0,3.6,0,5.7c0,0.6,0.3,0.9,0.9,0.9
		c1.7,0,3.6,0,5.6,0c0.6,0,0.9-0.3,0.9-0.9c0-2,0-3.8,0-5.6c0-0.6-0.3-0.9-0.9-0.9c-0.7,0-1.3,0-2,0c-0.3,0-0.6,0-0.9,0l0,0
		c-0.3,0-0.6,0-0.9,0C8.6,33.1,8.4,33.1,8.1,33.1z M11.9,39H7.7v-4.3h4.3V39z M8.2,38.4h3.2v-3.1H8.2V38.4z"/>
</g>
<g>
	<path d="M9.7,21.1c0.9,0,1.9,0,2.8,0c0.8,0,1.2,0.4,1.2,1.2c0,1.9,0,3.7,0,5.6c0,0.8-0.4,1.2-1.2,1.2c-1.9,0-3.8,0-5.7,0
		c-0.8,0-1.1-0.4-1.1-1.2c0-1.9,0-3.7,0-5.6c0-0.8,0.4-1.2,1.2-1.2C8,21.1,8.8,21.1,9.7,21.1z M8,23.2c0,1.3,0,2.5,0,3.7
		c1.3,0,2.5,0,3.7,0c0-1.3,0-2.5,0-3.7C10.3,23.2,9.1,23.2,8,23.2z"/>
	<path d="M9.7,29.4c-0.9,0-1.9,0-2.8,0s-1.4-0.5-1.4-1.5c0-1.9,0-3.8,0-5.6c0-1,0.5-1.4,1.5-1.4c0.7,0,1.3,0,2,0h0.8
		c0.3,0,0.6,0,0.9,0c0.6,0,1.3,0,2,0c0.9,0,1.4,0.5,1.4,1.4c0,1.9,0,3.7,0,5.6c0,0.9-0.5,1.5-1.4,1.5C11.6,29.4,10.7,29.4,9.7,29.4z
		 M8.1,21.4c-0.4,0-0.7,0-1.1,0c-0.7,0-0.9,0.2-0.9,0.9c0,1.8,0,3.7,0,5.6c0,0.6,0.3,0.9,0.9,0.9c1.9,0,3.8,0,5.6,0
		c0.6,0,0.9-0.3,0.9-0.9c0-1.9,0-3.7,0-5.6c0-0.6-0.3-0.9-0.9-0.9c-0.7,0-1.3,0-2,0c-0.3,0-0.6,0-0.9,0H8.8
		C8.6,21.4,8.4,21.4,8.1,21.4z M11.9,27.2H7.7v-4.3h4.3V27.2z M8.3,26.7h3.2v-3.1H8.3V26.7z"/>
</g>
<g>
	<path d="M9.7,9.4c0.9,0,1.8,0,2.7,0s1.3,0.4,1.3,1.2c0,1.8,0,3.7,0,5.5c0,0.8-0.4,1.2-1.2,1.2c-1.8,0-3.7,0-5.5,0
		c-0.8,0-1.2-0.4-1.2-1.2c0-1.9,0-3.7,0-5.6c0-0.8,0.4-1.2,1.2-1.2C7.9,9.4,8.8,9.4,9.7,9.4z M11.6,11.5c-1.3,0-2.5,0-3.7,0
		c0,1.3,0,2.5,0,3.7c1.3,0,2.5,0,3.7,0c0-0.1,0-0.2,0-0.3C11.6,13.8,11.6,12.7,11.6,11.5z"/>
	<path d="M9.7,17.6c-0.9,0-1.9,0-2.8,0s-1.5-0.5-1.5-1.5c0-2,0-3.8,0-5.6c0-0.9,0.5-1.4,1.4-1.4c0.7,0,1.3,0,2,0c0.3,0,0.6,0,0.9,0
		l0,0c0.3,0,0.5,0,0.8,0c0.6,0,1.3,0,1.9,0c1,0,1.5,0.5,1.5,1.5c0,2,0,3.8,0,5.5c0,1-0.5,1.5-1.5,1.5C11.5,17.6,10.6,17.6,9.7,17.6z
		 M8.1,9.6c-0.4,0-0.8,0-1.1,0c-0.6,0.1-0.9,0.3-0.9,0.9c0,1.8,0,3.6,0,5.6C6.1,16.7,6.4,17,7,17c1.8,0,3.6,0,5.5,0
		c0.7,0,0.9-0.3,0.9-1c0-1.7,0-3.5,0-5.5c0-0.7-0.2-1-1-1c-0.6,0-1.3,0-1.9,0c-0.3,0-0.5,0-0.8,0l0,0c-0.3,0-0.6,0-0.9,0
		C8.6,9.7,8.4,9.6,8.1,9.6z M11.8,15.5H7.7v-4.3h4.3v1c0,0.9,0,1.8,0,2.7c0,0.1,0,0.1,0,0.2v0.1L11.8,15.5z M8.3,14.9h3.2
		c0-0.9,0-1.8,0-2.7v-0.4H8.3V14.9z"/>
</g>
<g>
	<path d="M23.7,9.4c1.7,0,3.4,0,5.1,0c0.6,0,1,0.3,1.2,0.7c0.2,0.6-0.2,1.2-0.8,1.3c-0.2,0-0.4,0-0.6,0c-3.2,0-6.5,0-9.6,0
		c-1,0-1.5-0.3-1.5-1S18,9.3,19,9.3C20.6,9.4,22.1,9.4,23.7,9.4z"/>
	<path d="M22.8,11.7c-1.3,0-2.6,0-3.9,0c-1.5,0-1.7-0.8-1.7-1.3c0-0.4,0.1-0.7,0.3-0.9C17.9,9.2,18.4,9,19,9c1.3,0,2.6,0,3.8,0h0.9
		h1.5c1.2,0,2.4,0,3.6,0c0.7,0,1.2,0.3,1.4,0.9c0.1,0.4,0.1,0.8-0.1,1.1c-0.2,0.3-0.5,0.5-0.9,0.6c-0.2,0-0.4,0-0.6,0
		C26.6,11.7,24.7,11.7,22.8,11.7z M20.8,9.7c-0.6,0-1.2,0-1.8,0c-0.5,0-0.9,0.1-1,0.3c-0.1,0.1-0.2,0.3-0.2,0.5c0,0.2,0,0.8,1.2,0.8
		c3.2,0,6.5,0,9.6,0c0.2,0,0.4,0,0.5,0c0.2,0,0.4-0.2,0.5-0.4c0.1-0.2,0.1-0.4,0.1-0.6c0-0.1-0.2-0.5-0.9-0.5c-1.2,0-2.4,0-3.6,0
		h-1.5h-0.9C22.1,9.7,21.5,9.7,20.8,9.7z"/>
</g>
<g>
	<path d="M22.1,15.9c-1.2,0-2.3,0-3.5,0c-0.7,0-1.2-0.4-1.2-1c0-0.6,0.5-1,1.2-1c2.3,0,4.6,0,6.9,0c0.7,0,1.2,0.4,1.2,1
		c0,0.6-0.5,1.1-1.2,1.1C24.4,15.9,23.3,15.9,22.1,15.9z"/>
	<path d="M20.1,16.2c-0.5,0-1,0-1.4,0c-0.4,0-0.8-0.2-1.1-0.4c-0.2-0.2-0.4-0.6-0.4-0.9c0-0.8,0.6-1.3,1.5-1.3c2.2,0,4.6,0,6.9,0
		c0.9,0,1.5,0.5,1.5,1.3c0,0.4-0.1,0.7-0.3,0.9c-0.3,0.3-0.7,0.4-1.2,0.4c-0.8,0-1.6,0-2.4,0h-1c-0.4,0-0.7,0-1.1,0
		C20.8,16.2,20.5,16.2,20.1,16.2z M22.1,14.1c-1.2,0-2.3,0-3.5,0c-0.6,0-0.9,0.3-0.9,0.8c0,0.2,0.1,0.4,0.2,0.5
		c0.2,0.2,0.4,0.3,0.7,0.3c0.8,0,1.6,0,2.4,0c0.4,0,0.7,0,1.1,0h1c0.8,0,1.6,0,2.4,0c0.3,0,0.6-0.1,0.8-0.3c0.1-0.1,0.2-0.3,0.2-0.5
		c0-0.5-0.4-0.8-0.9-0.8C24.4,14.1,23.2,14.1,22.1,14.1z"/>
</g>
<g>
	<path d="M20.7,23.2c-0.7,0-1.4,0-2.1,0c-0.7,0-1.1-0.5-1.1-1.1s0.5-1,1.1-1c1.4,0,2.8,0,4.2,0c0.7,0,1.1,0.5,1.1,1.1s-0.4,1-1.1,1
		C22.1,23.3,21.4,23.2,20.7,23.2z"/>
	<path d="M19.5,23.5c-0.3,0-0.6,0-0.8,0c-0.4,0-0.8-0.2-1-0.4c-0.2-0.2-0.4-0.6-0.4-0.9c0-0.7,0.6-1.3,1.4-1.3c1.4,0,2.8,0,4.2,0
		c0.4,0,0.8,0.1,1,0.4c0.2,0.2,0.4,0.6,0.4,0.9c0,0.7-0.6,1.3-1.4,1.3c-0.5,0-1,0-1.5,0c-0.2,0-0.4,0-0.7,0l0,0c-0.2,0-0.4,0-0.6,0
		C19.9,23.5,19.7,23.5,19.5,23.5z M20.8,21.4c-0.7,0-1.4,0-2.1,0c-0.5,0-0.8,0.3-0.8,0.7c0,0.2,0.1,0.4,0.2,0.5
		c0.2,0.2,0.4,0.3,0.6,0.3c0.5,0,1,0,1.5,0c0.2,0,0.4,0,0.6,0l0,0c0.2,0,0.4,0,0.7,0c0.5,0,1,0,1.5,0c0.5,0,0.8-0.3,0.8-0.7
		c0-0.2-0.1-0.4-0.2-0.5c-0.1-0.2-0.4-0.2-0.6-0.2C22.1,21.4,21.5,21.4,20.8,21.4z"/>
</g>
<g>
	<path d="M20.8,39.4c-0.7,0-1.4,0-2.1,0c-0.7,0-1.1-0.4-1.1-1s0.4-1,1.1-1c1.4,0,2.8,0,4.2,0c0.7,0,1.1,0.4,1.1,1s-0.4,1-1.1,1h-0.1
		C22,39.4,21.4,39.4,20.8,39.4L20.8,39.4z"/>
	<path d="M19.5,39.7c-0.3,0-0.5,0-0.8,0c-0.8,0-1.4-0.6-1.4-1.3c0-0.8,0.6-1.3,1.4-1.3c1.4,0,2.8,0,4.2,0c0.8,0,1.4,0.5,1.4,1.3
		c0,0.8-0.5,1.3-1.4,1.3h-0.1h-2.3c-0.1,0-0.2,0-0.4,0C19.9,39.7,19.7,39.7,19.5,39.7z M20.7,37.6c-0.7,0-1.4,0-2.1,0
		c-0.5,0-0.9,0.3-0.9,0.8s0.3,0.7,0.9,0.8c0.5,0,1,0,1.4,0c0.2,0,0.4,0,0.6,0h2h0.1c0.6,0,0.9-0.3,0.9-0.8s-0.3-0.8-0.9-0.8
		S21.4,37.6,20.7,37.6z"/>
</g>
<g>
	<path d="M19.1,25.6c0.2,0,0.3,0,0.5,0c0.6,0,1,0.4,1,1c0,0.5-0.3,1-0.8,1.1c-0.4,0.1-0.8,0.1-1.2,0c-0.6,0-1-0.5-1-1.1s0.5-1,1.1-1
		C18.8,25.6,18.9,25.6,19.1,25.6L19.1,25.6z"/>
	<path d="M19.1,28c-0.2,0-0.4,0-0.6,0c-0.7-0.1-1.3-0.6-1.3-1.4c0-0.7,0.6-1.2,1.3-1.3c0.1,0,0.3,0,0.4,0c0.1,0,0.1,0,0.2,0h0.2
		c0.1,0,0.2,0,0.3,0c0.7,0.1,1.2,0.6,1.3,1.2c0.1,0.7-0.4,1.3-1.1,1.4C19.6,28,19.3,28,19.1,28z M18.8,25.9c-0.1,0-0.1,0-0.2,0
		c-0.5,0-0.8,0.3-0.8,0.7c0,0.4,0.3,0.8,0.7,0.8c0.5,0,0.8,0,1.2,0c0.4-0.1,0.6-0.4,0.6-0.8s-0.3-0.7-0.7-0.7c-0.1,0-0.2,0-0.3,0
		s-0.1,0-0.2,0H18.8L18.8,25.9z"/>
</g>
<g>
	<path d="M19.1,32.9c0.2,0,0.3,0,0.5,0c0.6,0,1,0.4,1,0.9c0,0.5-0.3,1-0.9,1.1c-0.4,0.1-0.9,0.1-1.3,0c-0.6-0.1-0.9-0.6-0.9-1.1
		c0-0.5,0.5-0.9,1-1C18.7,32.9,18.9,32.9,19.1,32.9L19.1,32.9z"/>
	<path d="M19.1,35.2c-0.2,0-0.5,0-0.7,0c-0.7-0.1-1.2-0.7-1.1-1.4c0.1-0.7,0.6-1.2,1.3-1.2c0.1,0,0.3,0,0.4,0c0.1,0,0.1,0,0.2,0h0.2
		c0.1,0,0.3,0,0.4,0c0.7,0,1.2,0.5,1.3,1.2c0.1,0.7-0.4,1.3-1.1,1.4C19.5,35.2,19.3,35.2,19.1,35.2z M18.8,33.1c-0.1,0-0.1,0-0.2,0
		c-0.4,0-0.7,0.3-0.8,0.7c0,0.4,0.3,0.8,0.7,0.8c0.4,0,0.8,0,1.2,0c0.4,0,0.7-0.4,0.6-0.8c0-0.4-0.3-0.7-0.7-0.7c-0.1,0-0.2,0-0.3,0
		s-0.1,0-0.2,0H18.8L18.8,33.1z"/>
</g>
<g>
	<path d="M34.6,12.4c0.6,0,1,0.5,1,1c0,0.6-0.5,1-1,1c-0.6,0-1.1-0.5-1-1.1C33.7,12.9,34.1,12.4,34.6,12.4z"/>
	<path d="M34.6,14.8L34.6,14.8c-0.4,0-0.7-0.2-1-0.4c-0.2-0.3-0.4-0.6-0.4-0.9c0-0.7,0.6-1.3,1.3-1.3l0,0l0,0c0.7,0,1.3,0.6,1.3,1.3
		C35.9,14.2,35.3,14.8,34.6,14.8z M34.6,12.7c-0.4,0-0.7,0.3-0.8,0.7c0,0.2,0.1,0.4,0.2,0.5c0.2,0.2,0.4,0.2,0.6,0.2l0,0
		c0.4,0,0.7-0.3,0.7-0.8C35.3,13,35,12.7,34.6,12.7L34.6,12.7z"/>
</g>
<g>
	<path d="M31.1,32.2c1.4-1.4,2.7-2.7,4-4.1c0.1-0.1,0.3-0.3,0.4-0.4c0.4-0.3,1-0.3,1.3,0c0.4,0.4,0.5,0.9,0.1,1.4
		c-0.1,0.2-0.3,0.4-0.5,0.5c-1.5,1.5-3,3-4.5,4.5c-0.7,0.7-1.2,0.7-1.9,0c-0.7-0.7-1.5-1.5-2.2-2.2c-0.5-0.5-0.6-1.1-0.1-1.6
		c0.4-0.4,1.1-0.4,1.6,0.1C30,31.1,30.5,31.6,31.1,32.2z"/>
	<path d="M31.1,34.9c-0.4,0-0.7-0.2-1.1-0.6L29.7,34c-0.6-0.6-1.2-1.2-1.9-1.9c-0.6-0.6-0.7-1.4-0.1-2c0.2-0.3,0.6-0.4,0.9-0.4
		c0.4,0,0.8,0.2,1.1,0.5c0.4,0.4,0.7,0.7,1.1,1.1c0.1,0.1,0.2,0.2,0.3,0.3l0.9-0.9c1-1,2-2,3-3l0.1-0.1c0.1-0.1,0.2-0.2,0.4-0.3
		c0.5-0.4,1.2-0.4,1.7,0c0.5,0.5,0.6,1.2,0.2,1.7c-0.1,0.2-0.3,0.3-0.4,0.5l-0.1,0.1c-1.5,1.5-3,3-4.5,4.5
		C31.8,34.7,31.5,34.9,31.1,34.9z M28.5,30.4L28.5,30.4c-0.2,0-0.4,0.1-0.5,0.2c-0.5,0.5-0.1,0.9,0.1,1.2c0.6,0.6,1.2,1.2,1.8,1.9
		l0.3,0.3c0.6,0.6,0.9,0.6,1.5,0c1.5-1.5,3-3,4.5-4.5l0.1-0.1c0.1-0.1,0.3-0.3,0.4-0.4c0.2-0.3,0.2-0.7-0.1-1c-0.3-0.2-0.7-0.3-1,0
		c-0.1,0.1-0.2,0.2-0.3,0.3l-0.1,0.1c-1,1-2,2-3,3l-1.3,1.3l0-0.3c-0.2-0.2-0.4-0.4-0.5-0.5c-0.4-0.4-0.7-0.8-1.1-1.1
		C29,30.5,28.8,30.4,28.5,30.4z"/>
</g>
</svg>
