<?xml version="1.0" encoding="utf-8"?>
<!-- Generator: Adobe Illustrator 25.4.1, SVG Export Plug-In . SVG Version: 6.00 Build 0)  -->
<svg version="1.1" id="Layer_1" xmlns="http://www.w3.org/2000/svg" xmlns:xlink="http://www.w3.org/1999/xlink" x="0px" y="0px"
	 viewBox="0 0 54 54" style="enable-background:new 0 0 54 54;" xml:space="preserve">
<path d="M15.7,6.4c0-0.5,0-0.8,0-1.2c0-1.4,0.6-2.1,2.1-2.1c1.4,0,2.8,0,4.2,0c0.3,0,0.5-0.1,0.6-0.4C23.5,1,25,0,27,0
	c2,0,3.5,1,4.4,2.8c0.1,0.3,0.3,0.3,0.6,0.3c1.4,0,2.8,0,4.2,0c1.3,0,1.9,0.7,1.9,1.9c0,0.4,0,0.8,0,1.3c0.2,0,0.4,0,0.6,0
	c1.3,0,2.7,0,4,0c2.8,0,4.9,2.1,4.9,5c0,12.6,0,25.1,0,37.7c0,2.9-2.1,5-5,5c-10.5,0-20.9,0-31.4,0c-3,0-5.1-2.1-5.1-5.1
	c0-12.5,0-25,0-37.5c0-2.9,2.1-5,5-5c1.3,0,2.5,0,3.8,0C15.3,6.4,15.5,6.4,15.7,6.4z M44.2,30.2c0-6.2,0-12.5,0-18.7
	c0-1.1-0.5-1.6-1.6-1.6c-1.5,0-2.9,0-4.4,0c-0.3,0-0.5,0.1-0.6,0.4C36.8,12,35.3,13,33.2,13c-4.2,0-8.4,0-12.6,0c-2,0-3.5-1-4.4-2.8
	c-0.1-0.3-0.3-0.3-0.6-0.3c-1.4,0-2.8,0-4.1,0c-1.2,0-1.8,0.5-1.8,1.8c0,12.4,0,24.8,0,37.2c0,1.2,0.5,1.7,1.7,1.7
	c10.3,0,20.7,0,31,0c1.3,0,1.8-0.5,1.8-1.8C44.2,42.6,44.2,36.4,44.2,30.2z M19.2,6.6c0,0.4,0,0.8,0,1.2c0,1.3,0.5,1.8,1.8,1.8
	c3.3,0,6.5,0,9.8,0c0.8,0,1.6,0,2.5,0c0.8,0,1.3-0.5,1.4-1.1c0.1-0.6,0-1.2,0-1.8c-1.4,0-2.8,0-4.2,0c-1.4,0-1.9-0.5-2.1-1.9
	C28.3,4,27.7,3.5,27,3.5c-0.7,0-1.3,0.5-1.4,1.3c-0.2,1.4-0.7,1.9-2.1,1.9C22.1,6.6,20.7,6.6,19.2,6.6z"/>
<path d="M19.9,20.7c0.7,0.6,1.3,1.2,1.9,1.8c0.8,0.8,0.8,1.9,0.1,2.6c-0.7,0.7-1.8,0.6-2.5-0.1c-0.6-0.6-1.1-1.1-1.7-1.7
	c0,0-0.1,0-0.2-0.1c-0.6,0.6-1.2,1.3-1.9,1.9c-0.5,0.5-1.1,0.6-1.8,0.4c-0.6-0.2-1-0.7-1.1-1.3c-0.1-0.6,0.1-1.1,0.5-1.6
	c0.6-0.6,1.2-1.2,1.9-1.9c-0.7-0.7-1.3-1.3-2-1.9c-0.6-0.6-0.7-1.4-0.3-2.1c0.4-0.6,1.1-1,1.8-0.8c0.4,0.1,0.7,0.3,1,0.6
	c0.6,0.6,1.2,1.2,1.8,1.8c0.7-0.7,1.3-1.3,1.9-2c0.5-0.5,1.3-0.6,2-0.3c0.6,0.3,1.1,1,0.9,1.7c-0.1,0.4-0.3,0.8-0.5,1.1
	C21.2,19.5,20.5,20,19.9,20.7z"/>
<path d="M17.6,43.5c0.8-0.8,1.5-1.6,2.3-2.4c0.9-0.9,1.8-1.8,2.7-2.7c0.8-0.8,1.9-0.8,2.6-0.1c0.7,0.7,0.6,1.8-0.1,2.5
	c-2,2-4.1,4-6.2,6.1c-0.9,0.8-1.8,0.8-2.7,0c-1-1-2-1.9-2.9-2.9c-0.8-0.8-0.8-1.9-0.1-2.6c0.7-0.7,1.8-0.7,2.5,0.1
	C16.2,42.2,16.8,42.8,17.6,43.5z"/>
<path d="M17.4,32.5c1.6-1.6,3.1-3.1,4.6-4.6c0.2-0.2,0.4-0.5,0.7-0.7c0.7-0.6,1.7-0.5,2.4,0.1c0.6,0.7,0.6,1.7,0,2.3
	c-2.2,2.2-4.3,4.3-6.5,6.4c-0.6,0.6-1.6,0.6-2.3,0c-1.1-1.1-2.2-2.2-3.3-3.3c-0.7-0.7-0.6-1.7,0-2.4c0.7-0.7,1.7-0.7,2.4,0
	C16.2,31.1,16.8,31.8,17.4,32.5z"/>
<path d="M34.9,44.5c-1.6,0-3.2,0-4.8,0c-1.4,0-2.2-1.3-1.5-2.5c0.3-0.6,0.9-0.9,1.5-0.9c3.2,0,6.4,0,9.5,0c1,0,1.7,0.8,1.7,1.7
	c0,1-0.7,1.7-1.8,1.7C38.1,44.5,36.5,44.5,34.9,44.5z"/>
<path d="M34.9,33.4c-1.6,0-3.1,0-4.7,0c-0.9,0-1.5-0.6-1.7-1.3c-0.2-0.7,0.2-1.6,0.9-1.9c0.3-0.1,0.6-0.2,0.9-0.2c3.1,0,6.2,0,9.3,0
	c0.8,0,1.4,0.3,1.7,1.1c0.3,0.6,0.2,1.4-0.4,1.9c-0.4,0.3-0.9,0.5-1.3,0.5C38,33.5,36.4,33.4,34.9,33.4z"/>
<path d="M34.9,22.4c-1.6,0-3.2,0-4.8,0c-0.9,0-1.5-0.5-1.7-1.3c-0.2-0.7,0.1-1.5,0.8-1.9c0.3-0.2,0.7-0.3,1-0.3c3.1,0,6.2,0,9.3,0
	c1.1,0,1.9,0.7,1.9,1.7c0,1-0.8,1.7-1.9,1.7C38,22.4,36.5,22.4,34.9,22.4C34.9,22.4,34.9,22.4,34.9,22.4z"/>
</svg>
