<?xml version="1.0" encoding="utf-8"?>
<!-- Generator: Adobe Illustrator 25.4.1, SVG Export Plug-In . SVG Version: 6.00 Build 0)  -->
<svg version="1.1" id="Layer_1" xmlns="http://www.w3.org/2000/svg" xmlns:xlink="http://www.w3.org/1999/xlink" x="0px" y="0px"
	 viewBox="0 0 90 90" style="enable-background:new 0 0 90 90;" xml:space="preserve">
<g>
	<path d="M34.8,30c-6.6-0.5-12.9-1.5-19.1-3.5c-2.1-0.7-4.2-1.5-6.3-2.4c-2.4-1.1-3.4-3.6-2.4-5.9c1-2.3,3.5-3.2,6-2.2
		c6.2,2.6,12.7,4.1,19.3,4.8c7.3,0.9,14.6,1,21.9,0.3c7.9-0.7,15.7-2.1,23.1-5.3c2.4-1,4.9,0,5.9,2.3c1,2.3,0,4.8-2.5,5.9
		c-5.6,2.5-11.4,4-17.4,5c-2.6,0.4-5.3,0.7-8,1c0,0.3,0,0.7,0,1c0,18.6,0,37.1,0,55.7c0,1.6-0.5,2.3-1.5,2.3c-1,0-1.4-0.7-1.4-2.2
		c0-19.1,0-38.2,0-57.2c0-2.1,0.3-2.4,2.4-2.5c7.1-0.5,14-1.7,20.7-4.1c1.3-0.5,2.7-1,4-1.6c1-0.4,1.3-1.2,1-2
		c-0.4-0.8-1.2-1.1-2.2-0.7c-7.9,3.3-16.3,4.8-24.8,5.5c-7.7,0.6-15.5,0.4-23.1-0.6C24,22.7,17.9,21.2,12,18.8
		c-0.4-0.2-0.9-0.3-1.3-0.3c-0.7,0.1-1.1,0.6-1.2,1.3c-0.1,0.8,0.3,1.3,1,1.6c2.8,1,5.6,2.2,8.5,3c5.2,1.5,10.6,2.3,16,2.6
		c0.3,0,0.7,0.1,1,0.1c1.3,0.1,1.7,0.6,1.7,1.9c0,19.4,0,38.7,0,58.1c0,0.2,0,0.4,0,0.6C37.5,88.5,37,89,36.2,89
		c-0.8,0-1.3-0.5-1.4-1.3c-0.1-0.3,0-0.7,0-1c0-18.5,0-37.1,0-55.6C34.8,30.8,34.8,30.4,34.8,30z"/>
	<path d="M53.8,90C53.8,90,53.8,90,53.8,90c-1.2,0-2.5-0.6-2.5-3.2l0-57.2c0-2.6,0.7-3.3,3.3-3.5c7.6-0.5,14.3-1.8,20.4-4
		c1.3-0.5,2.7-1,3.9-1.6c0.3-0.1,0.4-0.3,0.5-0.4c0-0.1,0-0.2,0-0.4c-0.1-0.1-0.2-0.5-0.9-0.2c-7.3,3-15.3,4.8-25.1,5.6
		c-7.9,0.6-15.8,0.4-23.3-0.6c-7-0.9-13.1-2.5-18.5-4.8c-0.5-0.2-0.7-0.2-0.8-0.2c-0.1,0-0.3,0-0.3,0.4c0,0.2,0,0.4,0.4,0.6
		c0.8,0.3,1.6,0.6,2.4,0.9c2,0.7,4,1.5,6,2.1c4.7,1.4,9.8,2.2,15.8,2.6c0.4,0,0.7,0.1,1,0.1c1.8,0.2,2.5,1.1,2.6,2.9
		c0,19.4,0,38.7,0,58.1c0,0,0,0.1,0,0.1c0,0.2,0,0.4,0,0.7c-0.3,1.3-1.2,2.1-2.4,2.1c0,0,0,0,0,0c-1.3,0-2.2-0.8-2.4-2.1
		c-0.1-0.3-0.1-0.7,0-0.9c0-0.1,0-0.2,0-0.2l0-55.8c-7.1-0.6-13-1.7-18.4-3.5c-2-0.6-4-1.4-6.4-2.5c-1.4-0.6-2.5-1.7-3-3.1
		c-0.5-1.3-0.5-2.8,0.1-4.1c1.3-2.8,4.3-3.9,7.3-2.7c5.5,2.3,11.7,3.9,19,4.8c7.1,0.8,14.4,1,21.7,0.3c9-0.8,16.2-2.4,22.8-5.2
		c2.9-1.2,6,0,7.2,2.8c1.2,2.8,0,5.9-3,7.2c-5.3,2.4-11,4-17.6,5c-1.8,0.3-3.6,0.5-5.5,0.7c-0.6,0.1-1.1,0.1-1.7,0.2v55.8
		c0,1.2-0.3,2.1-0.8,2.6C55.2,89.7,54.6,90,53.8,90z M79.1,17.5c1,0,1.8,0.5,2.2,1.5c0.3,0.6,0.3,1.3,0.1,1.9
		c-0.3,0.6-0.8,1.2-1.5,1.5c-1.3,0.6-2.6,1.1-4,1.6c-6.3,2.2-13.2,3.6-21,4.1c-1.1,0.1-1.3,0.2-1.4,0.2c0,0-0.1,0.3-0.1,1.3l0,57.2
		c0,1.2,0.3,1.2,0.5,1.2c0.1,0,0.2,0,0.3-0.1c0,0,0.2-0.3,0.2-1.2V29.2l0.9-0.1c0.9-0.1,1.7-0.2,2.6-0.3c1.9-0.2,3.6-0.4,5.4-0.7
		c6.4-1,12-2.6,17.1-4.9c1.9-0.9,2.8-2.8,2-4.6c-0.8-1.8-2.7-2.6-4.6-1.8c-6.8,2.9-14.2,4.5-23.4,5.3c-7.4,0.6-14.8,0.5-22.1-0.3
		c-7.5-0.9-13.9-2.5-19.6-4.9c-2-0.8-3.9-0.1-4.7,1.7c-0.4,0.9-0.4,1.8-0.1,2.6c0.3,0.9,1.1,1.6,2,2c2.4,1,4.3,1.8,6.2,2.4
		c5.5,1.8,11.5,2.9,18.9,3.5l0.9,0.1l0,57.6c0,0.1,0,0.2,0,0.3c0,0.2,0,0.4,0,0.5C35.8,88,36,88,36.2,88c0.2,0,0.4,0,0.5-0.5
		c0-0.1,0-0.2,0-0.3c0-0.1,0-0.1,0-0.2c0-19.4,0-38.7,0-58.1c0-0.8,0-0.8-0.8-0.9c-0.3,0-0.6-0.1-1-0.1c-6.1-0.4-11.3-1.3-16.2-2.7
		c-2.1-0.6-4.2-1.4-6.2-2.2c-0.8-0.3-1.6-0.6-2.4-0.9c-1.1-0.4-1.8-1.4-1.7-2.6c0.1-1.2,0.9-2.1,2.1-2.2c0.5-0.1,1.1,0,1.8,0.3
		c5.3,2.2,11.2,3.8,18,4.7c7.5,1,15.2,1.2,22.9,0.6c9.6-0.7,17.4-2.5,24.5-5.4C78.3,17.5,78.7,17.5,79.1,17.5z"/>
</g>
<g>
	<path d="M25.8,56.7c-0.4,0-0.7,0-1,0c-6.8,0-13.6,0-20.4,0c-1.7,0-2.3-1-1.5-2.5c3.8-7.5,7.5-15,11.3-22.5c0.2-0.4,0.5-0.9,0.9-1.1
		c0.8-0.5,1.7-0.1,2.2,0.9c3,6.1,6.1,12.2,9.1,18.3c0.8,1.5,1.7,3,2.2,4.6c0.3,1,0.3,2.2,0.1,3.3c-0.9,5.3-5.2,9.6-10.5,10.6
		c-5.2,1-10.7-1.4-13.6-5.8c-0.1-0.1-0.2-0.3-0.2-0.4c-0.5-0.8-0.3-1.7,0.4-2.1c0.7-0.5,1.5-0.2,2.1,0.5C7.5,61.3,8.1,62.3,9,63
		c5.8,5.1,15,2.1,16.7-5.5C25.7,57.3,25.8,57.1,25.8,56.7z M25,53.8c-3.1-6.3-6.2-12.4-9.3-18.7c-3.2,6.3-6.2,12.5-9.3,18.7
		C12.6,53.8,18.7,53.8,25,53.8z"/>
	<path d="M15.7,69.5c-4.8,0-9.4-2.4-12-6.5l0,0c-0.1-0.1-0.2-0.3-0.2-0.4c-0.7-1.3-0.4-2.7,0.7-3.4c1.1-0.7,2.4-0.4,3.4,0.7
		c0.2,0.2,0.3,0.4,0.5,0.6c0.5,0.7,1,1.3,1.6,1.8c2.5,2.2,5.8,2.8,8.9,1.8c3-1,5.3-3.4,6.1-6.4l-5.3,0c-5,0-10,0-15.1,0
		c-1.5,0-2.2-0.6-2.5-1.1c-0.3-0.5-0.6-1.4,0.1-2.8c1.7-3.4,3.4-6.9,5.2-10.3c2-4.1,4.1-8.1,6.1-12.2c0.4-0.7,0.8-1.2,1.2-1.5
		c0.6-0.4,1.2-0.4,1.8-0.3c0.7,0.2,1.4,0.8,1.8,1.6c1.7,3.5,3.5,6.9,5.2,10.4c1.3,2.6,2.6,5.3,3.9,7.9c0.2,0.5,0.5,0.9,0.7,1.4
		c0.6,1.1,1.2,2.2,1.6,3.4c0.3,1,0.4,2.2,0.1,3.8c-0.9,5.6-5.6,10.3-11.3,11.4C17.5,69.4,16.6,69.5,15.7,69.5z M5.5,60.7
		c-0.1,0-0.2,0-0.2,0.1c-0.3,0.2-0.2,0.5-0.1,0.8c0.1,0.1,0.1,0.2,0.2,0.3l0,0C8,66,13.1,68.2,18,67.3c4.9-0.9,8.9-5,9.7-9.8
		c0.2-1.2,0.2-2.1,0-2.8c-0.4-1-0.9-2-1.4-3.1c-0.3-0.5-0.5-0.9-0.8-1.4c-1.3-2.6-2.6-5.3-3.9-7.9c-1.7-3.5-3.5-6.9-5.2-10.4
		c-0.2-0.4-0.4-0.6-0.6-0.6c-0.1,0-0.1,0-0.3,0.1c-0.1,0-0.3,0.2-0.5,0.7c-2,4.1-4.1,8.1-6.1,12.2c-1.7,3.4-3.4,6.9-5.2,10.3
		c-0.3,0.5-0.3,0.8-0.2,0.9c0,0.1,0.3,0.2,0.8,0.2c5,0,10,0,15.1,0l7.5,0l-0.1,1.1c0,0.1,0,0.2,0,0.3c0,0.2,0,0.4-0.1,0.6
		c-0.9,3.9-3.7,7-7.5,8.2c-3.8,1.2-7.8,0.4-10.8-2.2c-0.7-0.6-1.3-1.4-1.8-2.1C6.3,61.5,6.2,61.2,6,61C5.8,60.7,5.6,60.7,5.5,60.7z
		 M26.6,54.8H4.7l10.9-21.9L26.6,54.8z M7.9,52.8h15.5l-7.8-15.5L7.9,52.8z"/>
</g>
<g>
	<path d="M84.5,56.7c-0.4,0-0.8,0-1.1,0c-6.8,0-13.6,0-20.3,0c-1.7,0-2.3-1-1.5-2.6c3.7-7.5,7.5-15,11.2-22.4
		c0.2-0.4,0.5-0.9,0.9-1.2c0.8-0.5,1.6-0.1,2.1,0.9c2.6,5.1,5.1,10.3,7.7,15.4c1.3,2.5,2.6,5,3.7,7.5c0.4,0.9,0.2,2.2,0.1,3.2
		c-0.9,5.3-5.3,9.7-10.6,10.6c-5.4,1-10.9-1.5-13.6-6.1c-0.2-0.3-0.3-0.5-0.4-0.8c-0.1-0.7,0.1-1.2,0.8-1.5c0.6-0.3,1.2-0.2,1.7,0.3
		c0.3,0.3,0.4,0.6,0.6,0.9c2.6,3.6,6.1,5.1,10.5,4.3c4.3-0.8,6.9-3.5,8-7.7C84.4,57.4,84.4,57.1,84.5,56.7z M83.7,53.8
		c-3.1-6.2-6.2-12.4-9.3-18.7c-3.2,6.3-6.2,12.5-9.3,18.7C71.3,53.8,77.4,53.8,83.7,53.8z"/>
	<path d="M74.4,69.5c-4.9,0-9.6-2.5-12.1-6.7c-0.2-0.3-0.4-0.7-0.5-1.2c-0.2-1.1,0.3-2,1.3-2.6c1-0.5,2-0.3,2.8,0.5
		c0.2,0.2,0.4,0.5,0.5,0.7c0.1,0.1,0.1,0.2,0.2,0.3c2.5,3.3,5.7,4.7,9.5,3.9c3.7-0.7,6.1-2.9,7.2-6.6l-5.3,0c-5,0-9.9,0-14.9,0
		c-1.5,0-2.2-0.6-2.5-1.1c-0.3-0.5-0.6-1.5,0.1-2.9c1.7-3.3,3.3-6.6,5-9.9c2.1-4.2,4.2-8.4,6.3-12.5c0.4-0.7,0.8-1.3,1.3-1.6
		c0.6-0.3,1.2-0.4,1.8-0.2c0.7,0.2,1.3,0.8,1.7,1.6c1.4,2.7,2.7,5.4,4.1,8.1c1.2,2.4,2.4,4.9,3.6,7.3c0.4,0.7,0.8,1.5,1.1,2.2
		c0.9,1.7,1.8,3.5,2.6,5.4c0.5,1.2,0.3,2.5,0.1,3.7c-0.9,5.7-5.6,10.4-11.4,11.4C76.1,69.4,75.3,69.5,74.4,69.5z M64.2,60.7
		c-0.1,0-0.1,0-0.2,0.1c-0.2,0.1-0.3,0.2-0.2,0.5c0,0.2,0.2,0.4,0.2,0.5c2.6,4.3,7.6,6.5,12.6,5.6c5-0.9,9-4.9,9.8-9.8
		c0.1-0.7,0.3-1.9,0-2.7c-0.7-1.8-1.7-3.5-2.5-5.2c-0.4-0.7-0.8-1.5-1.2-2.3c-1.2-2.4-2.4-4.9-3.6-7.3c-1.4-2.7-2.7-5.4-4.1-8.1
		c-0.2-0.4-0.4-0.5-0.5-0.6c-0.1,0-0.1,0-0.2,0c-0.1,0-0.3,0.2-0.6,0.8c-2.1,4.2-4.2,8.4-6.3,12.5c-1.6,3.3-3.3,6.6-5,9.9
		c-0.3,0.6-0.3,0.9-0.2,1c0,0.1,0.3,0.2,0.9,0.2c5,0,9.9,0,14.9,0l7.7,0l-0.2,1.1c0,0.1,0,0.2,0,0.3c0,0.2-0.1,0.4-0.1,0.6
		c-1.2,4.6-4.3,7.6-8.8,8.4c-4.6,0.9-8.5-0.7-11.4-4.7c-0.1-0.1-0.2-0.2-0.3-0.4c-0.1-0.2-0.2-0.3-0.3-0.4
		C64.4,60.7,64.3,60.7,64.2,60.7z M85.3,54.7H63.4l10.9-21.8L85.3,54.7z M66.6,52.8h15.5l-7.8-15.5L66.6,52.8z"/>
</g>
<g>
	<path d="M53.8,9.8c0,4.8-4,8.8-8.8,8.8c-4.8,0-8.8-4-8.8-8.8c0-4.8,4-8.8,8.8-8.8C49.9,1,53.8,4.9,53.8,9.8z M45,15.6
		c3.2,0,5.9-2.6,5.9-5.9c0-3.2-2.6-5.8-5.8-5.9c-3.2,0-5.9,2.6-5.9,5.8C39.1,13,41.8,15.6,45,15.6z"/>
	<path d="M45,19.6c-2.6,0-5-1-6.9-2.9c-1.9-1.9-2.9-4.3-2.9-6.9c0-2.6,1-5.1,2.9-6.9C40,1,42.4,0,45,0c0,0,0,0,0,0
		c5.4,0,9.8,4.4,9.8,9.8l0,0C54.8,15.2,50.4,19.6,45,19.6C45,19.6,45,19.6,45,19.6z M45,2C45,2,45,2,45,2c-2.1,0-4,0.8-5.5,2.3
		c-1.5,1.5-2.3,3.4-2.3,5.5c0,2.1,0.8,4,2.3,5.5c1.5,1.5,3.4,2.3,5.5,2.3c0,0,0,0,0,0c4.3,0,7.8-3.5,7.8-7.8v0C52.8,5.5,49.3,2,45,2
		z M45,16.6C45,16.6,45,16.6,45,16.6c-1.8,0-3.5-0.7-4.8-2c-1.3-1.3-2-3-2-4.9c0-1.8,0.7-3.5,2-4.8c1.3-1.3,3-2,4.9-2
		c3.7,0,6.8,3.1,6.8,6.8c0,1.8-0.7,3.6-2,4.9C48.6,15.9,46.8,16.6,45,16.6z M45,4.9c-1.3,0-2.5,0.5-3.4,1.4
		c-0.9,0.9-1.4,2.1-1.5,3.4c0,1.3,0.5,2.5,1.4,3.5c0.9,0.9,2.1,1.4,3.4,1.4l0,0c0,0,0,0,0,0c1.3,0,2.5-0.5,3.5-1.4
		c0.9-0.9,1.4-2.2,1.4-3.5C49.9,7.1,47.7,4.9,45,4.9C45.1,4.9,45,4.9,45,4.9z"/>
</g>
<g>
	<path d="M43.6,72.9c0-4.7,0-9.4,0-14c0-0.3,0-0.6,0-0.8c0.1-0.8,0.6-1.3,1.4-1.3c0.8,0,1.3,0.5,1.4,1.3c0.1,0.3,0,0.5,0,0.8
		c0,9.4,0,18.7,0,28.1c0,0.3,0,0.6,0,0.8C46.3,88.5,45.8,89,45,89c-0.8,0-1.3-0.5-1.4-1.3c0-0.3,0-0.5,0-0.8
		C43.6,82.2,43.6,77.6,43.6,72.9z"/>
	<path d="M45,90c-1.2,0-2.2-0.8-2.4-2.1c-0.1-0.3,0-0.6,0-0.8c0-0.1,0-0.1,0-0.2c0-3.9,0-7.8,0-11.7v-4.7c0-3.9,0-7.8,0-11.7
		c0-0.1,0-0.1,0-0.2c0-0.2,0-0.5,0-0.8c0.2-1.3,1.2-2.1,2.4-2.1c0,0,0,0,0,0c1.2,0,2.2,0.8,2.4,2.1c0.1,0.3,0,0.6,0,0.8
		c0,0.1,0,0.1,0,0.2c0,9.4,0,18.7,0,28.1c0,0.1,0,0.1,0,0.2c0,0.2,0,0.5,0,0.8C47.2,89.2,46.3,90,45,90C45,90,45,90,45,90z M45,57.7
		C45,57.7,45,57.7,45,57.7c-0.2,0-0.4,0-0.5,0.5c0,0.1,0,0.2,0,0.4c0,0.1,0,0.2,0,0.2c0,3.9,0,7.8,0,11.7v4.7c0,3.9,0,7.8,0,11.7
		c0,0.1,0,0.2,0,0.2c0,0.2,0,0.3,0,0.4C44.6,88,44.8,88,45,88c0,0,0,0,0,0c0.2,0,0.4,0,0.5-0.5c0-0.1,0-0.2,0-0.4c0-0.1,0-0.2,0-0.2
		c0-9.4,0-18.7,0-28.1c0-0.1,0-0.2,0-0.2c0-0.2,0-0.3,0-0.4C45.4,57.8,45.3,57.7,45,57.7z"/>
</g>
</svg>
