<?xml version="1.0" encoding="utf-8"?>
<!-- Generator: Adobe Illustrator 25.4.1, SVG Export Plug-In . SVG Version: 6.00 Build 0)  -->
<svg version="1.1" id="Layer_1" xmlns="http://www.w3.org/2000/svg" xmlns:xlink="http://www.w3.org/1999/xlink" x="0px" y="0px"
	 viewBox="0 0 90 90" style="enable-background:new 0 0 90 90;" xml:space="preserve">
<path d="M0,34c0.6-1.3,1.6-1.8,3-1.7c4.1,0.1,8.1,0,12.2,0c2.7,0,3.2,0.4,3.6,3.1c1.5,0.2,2.8-0.2,4-1c4.6-3,9.1-6,13.7-8.9
	c4.3-2.8,9-2.7,13.1,0.4c0.4,0.3,0.8,0.5,1.2,0.9c2.4-2.2,5.1-3.8,8.2-4.9c15.9-5.6,32.4,7.3,30.9,24c-1.2,12.8-12.5,22.3-25.3,21.1
	c-1-0.1-2.1,0.1-3.2,0.1c-6.2,0-12.5,0-18.7,0c-0.5,0-1,0-1.5-0.2c-1-0.3-1.6-1.3-1.5-2.4c0.1-1.1,0.9-2,2.1-2.1c0.4,0,0.9,0,1.3,0
	c6.2,0,12.4,0,18.6,0c2.8,0,4.6-2.3,3.7-4.8c-0.5-1.6-1.9-2.4-3.8-2.4c-5.8,0-11.5,0-17.3,0c-3.5,0-6.3-2.5-6.9-6
	c-0.6-3.6,1.6-7.1,5.1-8c1-0.2,1.2-0.7,1.3-1.6c0.5-2.9,1.6-5.6,3.1-8.1c0.2-0.4,0.5-0.7,0.7-1.1c-2.6-2.5-5.6-2.8-8.5-0.9
	c-4,2.6-7.9,5.2-11.9,7.8c-3.8,2.5-3.9,2.5-8.4,3.1c0,7.3,0,14.6,0,22.1c1.3,0,2.6,0,3.9,0c1.7,0,2.7,0.9,2.7,2.3
	c0,1.4-1,2.3-2.7,2.4c-0.6,0-1.3,0-1.9,0c-0.6,0-1.3,0-2,0c-0.3,2.1-1.7,2.5-3.6,2.5c-4.1-0.1-8.1-0.1-12.2,0
	c-1.4,0-2.4-0.4-3.1-1.7C0,56.5,0,45.3,0,34z M60,50.3c0-0.3,0-0.4,0-0.6c0.1-1.6,0.8-2.5,2.2-2.6c1.3-0.1,2.1,0.7,2.6,2.2
	c0.1,0.3,0.3,0.6,0.5,0.6c1.1,0.1,2.2,0,3.4,0c0-1.4,0-2.6,0-4c-1.3,0-2.5,0-3.7,0c-2.6-0.1-4.6-2-4.8-4.6c-0.1-1.3-0.1-2.5,0-3.8
	c0.1-2.3,1.4-3.9,3.5-4.7c0.3-0.1,0.7-0.6,0.8-0.9c0.2-1.5,1-2.3,2.3-2.4c1.3,0,2.3,0.8,2.4,2.4c0.1,0.6,0.3,0.8,0.9,1
	c2.1,0.7,3.4,2.5,3.5,4.5c0,1.3-0.8,2.4-2,2.6c-1.2,0.2-2.3-0.5-2.7-1.8c-0.1-0.2-0.1-0.4-0.2-0.7c-1.2,0-2.4,0-3.7,0
	c0,1.2,0,2.4,0,3.7c1.3,0,2.4,0,3.6,0c1.5,0,2.7,0.6,3.7,1.6c1.9,2.1,1.9,8.1,0,10.1c-0.5,0.6-1.3,0.9-1.9,1.3
	c-0.2,0.2-0.5,0.2-0.9,0.4c1.2,2.4,1.2,4.8,0.3,7.3c0.6-0.1,1-0.1,1.3-0.2c7.5-2.1,12.3-6.8,13.9-14.4c1.5-7.5-0.9-13.9-7.1-18.5
	c-6.2-4.6-13-5.1-19.9-1.4C50,31.6,46.3,41,49,49.3c0.2,0.5,0.3,1,1,1C53.3,50.3,56.6,50.3,60,50.3z M4.8,37.1c0,9.3,0,18.4,0,27.6
	c3.1,0,6.1,0,9.1,0c0-9.3,0-18.5,0-27.6C10.8,37.1,7.8,37.1,4.8,37.1z M44.3,50.3c-0.3-1.6-0.6-3-0.8-4.5c-1.1,0.5-1.5,1.3-1.4,2.3
	C42.1,49.3,42.9,50.1,44.3,50.3z"/>
<path d="M32.5,62.4c1.3,0,2.3,1.1,2.3,2.4c0,1.3-1.1,2.3-2.4,2.3c-1.3,0-2.4-1.2-2.3-2.5C30.2,63.3,31.2,62.3,32.5,62.4z"/>
</svg>
