<?xml version="1.0" encoding="utf-8"?>
<!-- Generator: Adobe Illustrator 25.4.1, SVG Export Plug-In . SVG Version: 6.00 Build 0)  -->
<svg version="1.1" id="Layer_1" xmlns="http://www.w3.org/2000/svg" xmlns:xlink="http://www.w3.org/1999/xlink" x="0px" y="0px"
	 viewBox="0 0 90 90" style="enable-background:new 0 0 90 90;" xml:space="preserve">
<style type="text/css">
	.st0{fill:#010101;}
</style>
<g>
	<path class="st0" d="M74.4,1.1H15.6c-5.5,0-10,4.5-10,10v63.5c0,2.8,2.3,5.1,5.1,5.1h22.5c0.9,0,1.7-0.8,1.7-1.7
		c0-0.9-0.8-1.7-1.7-1.7H10.8c-0.9,0-1.7-0.8-1.7-1.7V11c0-3.6,2.9-6.5,6.5-6.5h51.2c-1.5,1.7-2.4,4-2.4,6.5v55.3
		c0,1.6-1.3,2.9-2.9,2.9c-1.2,0-2.3-0.8-2.7-2l-2.6-7.8c-0.7-2.2-2.8-3.7-5.1-3.7c-3,0-5.4,2.4-5.4,5.4v1.3h-8.9
		c-0.9,0-1.7,0.8-1.7,1.7c0,0.9,0.8,1.7,1.7,1.7h8.9v8.5c0,2.5,0.5,5,1.5,7.3l2.5,6.1c0.3,0.7,0.9,1.1,1.6,1.1c0.2,0,0.4,0,0.7-0.1
		c0.9-0.4,1.3-1.4,0.9-2.2l-2.5-6.1c-0.8-1.9-1.2-3.9-1.2-6V61.2c0-1.1,0.9-1.9,1.9-1.9c0.8,0,1.6,0.5,1.8,1.3l2.6,7.8
		c0.9,2.6,3.3,4.3,6,4.3c3.5,0,6.3-2.8,6.3-6.3V36.9l2.3,2.3c4.1,4.1,6.3,9.5,6.3,15.3v18.2c0,4.7-1.1,9.5-3.1,13.8
		c-0.4,0.9,0,1.9,0.8,2.3c0.9,0.4,1.9,0,2.3-0.8c2.2-4.7,3.4-10,3.4-15.2V54.5c0-6.7-2.6-13-7.4-17.7l-4.7-4.7v-1.6h11.3
		c2.8,0,5.1-2.3,5.1-5.1V11C84.3,5.5,79.8,1.1,74.4,1.1z M80.9,25.3c0,0.9-0.8,1.7-1.7,1.7H67.8V11c0-3.6,2.9-6.5,6.5-6.5
		s6.5,2.9,6.5,6.5V25.3z"/>
	<path class="st0" d="M74.9,90c-0.4,0-0.8-0.1-1.2-0.3c-0.7-0.3-1.2-0.9-1.4-1.6c-0.2-0.7-0.2-1.4,0.1-2.1c2-4.1,3-8.7,3-13.3V54.5
		c0-5.5-2.1-10.7-6-14.6l-0.5-0.5v26.9c0,4-3.3,7.3-7.3,7.3c-3.2,0-6-2-7-5L52,60.9c-0.1-0.4-0.5-0.6-0.8-0.6
		c-0.5,0-0.9,0.4-0.9,0.9v13.3c0,1.9,0.4,3.8,1.1,5.6l2.5,6.1c0.3,0.7,0.3,1.4,0,2.1c-0.3,0.7-0.8,1.2-1.5,1.5
		c-0.3,0.1-0.7,0.2-1.1,0.2c-1.1,0-2.1-0.7-2.5-1.7l-2.5-6.1c-1-2.5-1.5-5.1-1.5-7.7V67h-7.9c-1.5,0-2.7-1.2-2.7-2.7
		c0-1.5,1.2-2.7,2.7-2.7h7.9v-0.3c0-3.5,2.9-6.4,6.4-6.4c2.8,0,5.2,1.8,6.1,4.4l2.6,7.8c0.3,0.8,1,1.3,1.7,1.3c1,0,1.8-0.8,1.8-1.8
		V11c0-1.9,0.5-3.8,1.5-5.5H15.6c-3,0-5.5,2.5-5.5,5.5v63.5c0,0.4,0.3,0.7,0.7,0.7h22.5c1.5,0,2.7,1.2,2.7,2.7s-1.2,2.7-2.7,2.7
		H10.8c-3.4,0-6.2-2.8-6.2-6.2V11c0-6.1,4.9-11,11-11h58.7c6.1,0,11,4.9,11,11v14.2c0,3.4-2.8,6.2-6.2,6.2H68.9v0.2l4.4,4.4
		c4.9,4.9,7.7,11.5,7.7,18.5v18.2c0,5.4-1.2,10.8-3.5,15.7c-0.3,0.7-0.9,1.2-1.6,1.4C75.5,89.9,75.2,90,74.9,90z M36.9,63.6
		c-0.4,0-0.7,0.3-0.7,0.7c0,0.4,0.3,0.7,0.7,0.7h9.9v9.6c0,2.4,0.5,4.7,1.4,6.9l2.5,6.1c0.1,0.3,0.4,0.4,0.6,0.4
		c0.1,0,0.2,0,0.3-0.1c0.2-0.1,0.3-0.2,0.4-0.4c0.1-0.2,0.1-0.4,0-0.5l-2.5-6.1c-0.9-2-1.3-4.2-1.3-6.4V61.2c0-1.6,1.3-3,3-3
		c1.3,0,2.4,0.8,2.8,2l2.6,7.8c0.7,2.2,2.7,3.6,5,3.6c2.9,0,5.3-2.4,5.3-5.3V34.4l4.1,4c4.3,4.3,6.6,10,6.6,16v18.2
		c0,4.9-1.1,9.8-3.2,14.2c-0.1,0.2-0.1,0.4,0,0.5c0.1,0.2,0.2,0.3,0.4,0.4c0.2,0.1,0.4,0.1,0.5,0c0.2-0.1,0.3-0.2,0.4-0.4
		c2.2-4.6,3.3-9.7,3.3-14.8V54.5c0-6.4-2.5-12.5-7.1-17l-5-5v-3.1h12.4c2.3,0,4.1-1.8,4.1-4.1V11c0-4.9-4-8.9-8.9-8.9H15.6
		c-4.9,0-8.9,4-8.9,8.9v63.5c0,2.3,1.8,4.1,4.1,4.1h22.5c0.4,0,0.7-0.3,0.7-0.7s-0.3-0.7-0.7-0.7H10.8c-1.5,0-2.7-1.2-2.7-2.7V11
		c0-4.2,3.4-7.6,7.6-7.6h53.5l-1.5,1.7c-1.4,1.6-2.2,3.7-2.2,5.8v55.3c0,2.2-1.8,3.9-3.9,3.9c-1.7,0-3.2-1.1-3.7-2.7l-2.6-7.8
		c-0.6-1.8-2.2-3-4.1-3c-2.4,0-4.3,1.9-4.3,4.3v2.4H36.9z M79.2,28H66.8V11c0-4.2,3.4-7.6,7.6-7.6c4.2,0,7.6,3.4,7.6,7.6v14.2
		C81.9,26.8,80.7,28,79.2,28z M68.9,26h10.3c0.4,0,0.7-0.3,0.7-0.7V11c0-3-2.5-5.5-5.5-5.5S68.9,8,68.9,11V26z"/>
</g>
<g>
	<path class="st0" d="M40.9,76.3c-0.5,0-0.9,0.2-1.2,0.5c-0.3,0.3-0.5,0.8-0.5,1.2c0,0.5,0.2,0.9,0.5,1.2s0.8,0.5,1.2,0.5
		c0.5,0,0.9-0.2,1.2-0.5c0.3-0.3,0.5-0.8,0.5-1.2c0-0.5-0.2-0.9-0.5-1.2C41.8,76.4,41.3,76.3,40.9,76.3z"/>
	<path class="st0" d="M40.9,80.7c-0.7,0-1.4-0.3-1.9-0.8c-0.5-0.5-0.8-1.2-0.8-1.9c0-0.7,0.3-1.4,0.8-1.9c0.5-0.5,1.2-0.8,1.9-0.8
		c0.7,0,1.4,0.3,1.9,0.8c0.5,0.5,0.8,1.2,0.8,1.9c0,0.7-0.3,1.4-0.8,1.9C42.3,80.4,41.6,80.7,40.9,80.7z M40.9,77.3
		c-0.2,0-0.4,0.1-0.5,0.2c-0.1,0.1-0.2,0.3-0.2,0.5c0,0.2,0.1,0.4,0.2,0.5c0.1,0.1,0.3,0.2,0.5,0.2c0.2,0,0.4-0.1,0.5-0.2
		c0.1-0.1,0.2-0.3,0.2-0.5c0-0.2-0.1-0.4-0.2-0.5C41.2,77.4,41.1,77.3,40.9,77.3z"/>
</g>
<g>
	<path class="st0" d="M29.3,13.8c0-1.9-1.5-3.4-3.4-3.4h-7.6c-1.9,0-3.4,1.5-3.4,3.4v7.6c0,1.9,1.5,3.4,3.4,3.4h7.6
		c1.9,0,3.4-1.5,3.4-3.4V13.8z M25.9,21.3h-7.6v-7.6h7.6V21.3C25.9,21.3,25.9,21.3,25.9,21.3z"/>
	<path class="st0" d="M25.9,25.8h-7.6c-2.5,0-4.5-2-4.5-4.5v-7.6c0-2.5,2-4.5,4.5-4.5h7.6c2.5,0,4.5,2,4.5,4.5v7.6
		C30.4,23.8,28.4,25.8,25.9,25.8z M18.3,11.4c-1.3,0-2.4,1.1-2.4,2.4v7.6c0,1.3,1.1,2.4,2.4,2.4h7.6c1.3,0,2.4-1.1,2.4-2.4v-7.6
		c0-1.3-1.1-2.4-2.4-2.4H18.3z M26.9,22.4h-9.6v-9.6h9.6L26.9,22.4z M19.4,20.3h5.5l0-5.5h-5.5V20.3z"/>
</g>
<g>
	<path class="st0" d="M29.3,34.4c0-1.9-1.5-3.4-3.4-3.4h-7.6c-1.9,0-3.4,1.5-3.4,3.4v7.6c0,1.9,1.5,3.4,3.4,3.4h7.6
		c1.9,0,3.4-1.5,3.4-3.4V34.4z M25.9,41.9h-7.6v-7.6h7.6V41.9C25.9,41.9,25.9,41.9,25.9,41.9z"/>
	<path class="st0" d="M25.9,46.4h-7.6c-2.5,0-4.5-2-4.5-4.5v-7.6c0-2.5,2-4.5,4.5-4.5h7.6c2.5,0,4.5,2,4.5,4.5v7.6
		C30.4,44.4,28.4,46.4,25.9,46.4z M18.3,32c-1.3,0-2.4,1.1-2.4,2.4v7.6c0,1.3,1.1,2.4,2.4,2.4h7.6c1.3,0,2.4-1.1,2.4-2.4v-7.6
		c0-1.3-1.1-2.4-2.4-2.4H18.3z M26.9,43h-9.6v-9.6h9.6L26.9,43z M19.4,40.9h5.5l0-5.5h-5.5V40.9z"/>
</g>
<g>
	<path class="st0" d="M25.9,51.5h-7.6c-1.9,0-3.4,1.5-3.4,3.4v7.6c0,1.9,1.5,3.4,3.4,3.4h7.6c1.9,0,3.4-1.5,3.4-3.4V55
		C29.3,53.1,27.8,51.5,25.9,51.5z M25.9,62.5h-7.6V55h7.6V62.5C25.9,62.5,25.9,62.5,25.9,62.5z"/>
	<path class="st0" d="M25.9,67h-7.6c-2.5,0-4.5-2-4.5-4.5V55c0-2.5,2-4.5,4.5-4.5h7.6c2.5,0,4.5,2,4.5,4.5v7.6
		C30.4,65,28.4,67,25.9,67z M18.3,52.6c-1.3,0-2.4,1.1-2.4,2.4v7.6c0,1.3,1.1,2.4,2.4,2.4h7.6c1.3,0,2.4-1.1,2.4-2.4V55
		c0-1.3-1.1-2.4-2.4-2.4H18.3z M26.9,63.6h-9.6V54h9.6L26.9,63.6z M19.4,61.5h5.5l0-5.5h-5.5V61.5z"/>
</g>
<g>
	<path class="st0" d="M56.6,24.8c0.9,0,1.7-0.8,1.7-1.7s-0.8-1.7-1.7-1.7H44.7c-0.9,0-1.7,0.8-1.7,1.7s0.8,1.7,1.7,1.7H56.6z"/>
	<path class="st0" d="M56.6,25.8H44.7c-1.5,0-2.7-1.2-2.7-2.7c0-1.5,1.2-2.7,2.7-2.7h11.8c1.5,0,2.7,1.2,2.7,2.7
		C59.3,24.6,58.1,25.8,56.6,25.8z M44.7,22.4c-0.4,0-0.7,0.3-0.7,0.7s0.3,0.7,0.7,0.7h11.8c0.4,0,0.7-0.3,0.7-0.7s-0.3-0.7-0.7-0.7
		H44.7z"/>
</g>
<g>
	<path class="st0" d="M36.9,24.8c0.5,0,0.9-0.2,1.2-0.5c0.3-0.3,0.5-0.8,0.5-1.2s-0.2-0.9-0.5-1.2c-0.3-0.3-0.8-0.5-1.2-0.5
		c-0.5,0-0.9,0.2-1.2,0.5c-0.3,0.3-0.5,0.8-0.5,1.2s0.2,0.9,0.5,1.2C36,24.6,36.4,24.8,36.9,24.8z"/>
	<path class="st0" d="M36.9,25.8c-0.7,0-1.4-0.3-1.9-0.8c-0.5-0.5-0.8-1.2-0.8-1.9s0.3-1.4,0.8-1.9c0.5-0.5,1.2-0.8,1.9-0.8
		c0.7,0,1.4,0.3,1.9,0.8c0.5,0.5,0.8,1.2,0.8,1.9s-0.3,1.4-0.8,1.9C38.3,25.5,37.6,25.8,36.9,25.8z M36.9,22.4
		c-0.2,0-0.4,0.1-0.5,0.2c-0.1,0.1-0.2,0.3-0.2,0.5s0.1,0.4,0.2,0.5c0.1,0.1,0.3,0.2,0.5,0.2c0.2,0,0.4-0.1,0.5-0.2s0.2-0.3,0.2-0.5
		s-0.1-0.4-0.2-0.5S37.1,22.4,36.9,22.4z"/>
</g>
<g>
	<path class="st0" d="M36.9,45.4h19.7c0.9,0,1.7-0.8,1.7-1.7c0-0.9-0.8-1.7-1.7-1.7H36.9c-0.9,0-1.7,0.8-1.7,1.7
		C35.2,44.6,35.9,45.4,36.9,45.4z"/>
	<path class="st0" d="M56.6,46.4H36.9c-1.5,0-2.7-1.2-2.7-2.7s1.2-2.7,2.7-2.7h19.7c1.5,0,2.7,1.2,2.7,2.7S58.1,46.4,56.6,46.4z
		 M36.9,43c-0.4,0-0.7,0.3-0.7,0.7s0.3,0.7,0.7,0.7h19.7c0.4,0,0.7-0.3,0.7-0.7S56.9,43,56.6,43H36.9z"/>
</g>
</svg>
