<?xml version="1.0" encoding="utf-8"?>
<!-- Generator: Adobe Illustrator 25.4.1, SVG Export Plug-In . SVG Version: 6.00 Build 0)  -->
<svg version="1.1" id="Layer_1" xmlns="http://www.w3.org/2000/svg" xmlns:xlink="http://www.w3.org/1999/xlink" x="0px" y="0px"
	 viewBox="0 0 54 54" style="enable-background:new 0 0 54 54;" xml:space="preserve">
<path d="M27.3,0c0.4,0.2,0.9,0.3,1.3,0.5c0.9,0.4,1.7,1.1,2.1,2.1C30.9,2.9,31,3,31.4,3c1.2,0,2.5,0,3.7,0c1.5,0,2.1,0.7,2.1,2.2
	c0,0.2,0,0.5,0,0.8c0.2,0,0.4,0,0.6,0c2.1,0,4.1,0,6.2,0c1.4,0,2.1,0.7,2.1,2.1c0,14.6,0,29.2,0,43.8c0,1.4-0.7,2.1-2.1,2.1
	c-11.6,0-23.3,0-34.9,0c-1.4,0-2.1-0.7-2.1-2.1c0-14.6,0-29.2,0-43.8c0-1.4,0.7-2.1,2.1-2.1c2,0,4.1,0,6.1,0c0.2,0,0.4,0,0.7,0
	c0-0.4,0-0.7,0-1.1c0-1.2,0.7-1.9,1.9-1.9c1.3,0,2.6,0,4,0c0.2,0,0.4-0.1,0.5-0.3c0.7-1.4,1.8-2.2,3.4-2.6c0.1,0,0.1-0.1,0.2-0.1
	C26.3,0,26.8,0,27.3,0z M42.5,9.6c-1.8,0-3.5,0-5.3,0c0,0.4,0,0.7,0,1c0,1.2-0.7,1.9-1.9,1.9c-5.9,0-11.7,0-17.6,0
	c-1.2,0-1.8-0.7-1.9-1.9c0-0.3,0-0.7,0-1c-1.8,0-3.5,0-5.3,0c0,13.6,0,27.2,0,40.8c10.7,0,21.3,0,31.9,0
	C42.5,36.8,42.5,23.2,42.5,9.6z M19.5,8.9c4.7,0,9.4,0,14.1,0c0-0.8,0-1.5,0-2.3c-1.3,0-2.5,0-3.8,0c-1.3,0-1.9-0.5-2.1-1.8
	c-0.1-0.5-0.3-0.9-0.8-1c-0.8-0.3-1.4,0.2-1.5,1.1c-0.2,1.2-0.8,1.8-2,1.8c-0.5,0-1.1,0-1.6,0c-0.7,0-1.5,0-2.3,0
	C19.5,7.4,19.5,8.1,19.5,8.9z"/>
<path d="M23,19.6c0.7,0.6,1.3,1.1,1.9,1.7c1,1.1,0.4,2.7-1.1,2.9c-0.6,0.1-1.2-0.1-1.6-0.6c-0.5-0.5-1-1.1-1.6-1.7
	c-0.6,0.6-1.1,1.1-1.6,1.6c-0.8,0.8-1.9,0.8-2.6,0.1c-0.7-0.7-0.7-1.8,0.1-2.6c0.5-0.5,1-1,1.5-1.5c0,0,0,0,0-0.2
	c-0.5-0.5-1.1-1-1.6-1.6c-0.7-0.7-0.7-1.7-0.2-2.4c0.7-0.9,1.9-0.9,2.7-0.2c0.6,0.5,1.1,1.1,1.7,1.8c0.6-0.6,1.1-1.3,1.7-1.8
	c1.1-1,2.7-0.4,3,1c0.1,0.7-0.1,1.2-0.6,1.7C24.2,18.5,23.7,19,23,19.6z"/>
<path d="M37.2,40.3c0,2.6-2.2,4.8-4.8,4.8c-2.6,0-4.8-2.2-4.7-4.8c0-2.6,2.2-4.7,4.8-4.7C35,35.6,37.2,37.7,37.2,40.3z M33.6,40.3
	c0-0.6-0.5-1.1-1.1-1.1c-0.6,0-1.2,0.5-1.2,1.2c0,0.6,0.5,1.1,1.1,1.1C33.1,41.5,33.6,41,33.6,40.3z"/>
<path d="M25.3,38.4c-0.4-0.2-0.9-0.4-1.3-0.7c-1.6-1.3-2.8-2.9-3.6-4.8c-0.8-1.8-1.4-3.7-1.7-5.6c-0.2-1,0.4-1.9,1.4-2.1
	c1-0.2,1.9,0.4,2.1,1.5c0.3,1.8,0.8,3.6,1.7,5.3c0.6,1.2,1.4,2.2,2.4,3c0.6,0.5,0.9,1.2,0.7,2C26.8,37.7,26.1,38.3,25.3,38.4z"/>
</svg>
