<?xml version="1.0" encoding="utf-8"?>
<!-- Generator: Adobe Illustrator 25.4.1, SVG Export Plug-In . SVG Version: 6.00 Build 0)  -->
<svg version="1.1" id="Layer_1" xmlns="http://www.w3.org/2000/svg" xmlns:xlink="http://www.w3.org/1999/xlink" x="0px" y="0px"
	 viewBox="0 0 54 54" style="enable-background:new 0 0 54 54;" xml:space="preserve">
<path d="M44.9,54c-10.9,0-21.8,0-32.7,0c-0.5-0.2-1-0.2-1.5-0.5C8.8,52.6,8,51,8,48.9C8,37,8,25.2,8,13.3c0-0.2,0-0.4,0-0.7
	c-2.1,0-4.2,0-6.3,0c0-0.2,0-0.3,0-0.5c0-2.4,0-4.8,0-7.2c0-3,2-5,5-5c10.4,0,20.7,0,31.1,0c0.5,0,1,0,1.5,0.2
	c2.2,0.6,3.5,2.4,3.6,4.7c0,0.5,0,1.1,0,1.6c1,0,2-0.1,2.9,0c3,0.5,5.1,2.3,6.1,5.2c1,2.9,0.5,5.6-1.6,7.8c-2.3,2.5-4.7,4.8-7.1,7.2
	c-0.3,0.3-0.4,0.5-0.4,0.9c0,5.5,0,10.9,0,16.4c0,0.2,0,0.4,0,0.6c2.1,0,4.2,0,6.3,0c0,1.7,0,3.3,0,4.9c0,1.5-0.7,2.8-2,3.7
	C46.5,53.5,45.7,53.7,44.9,54z M11,3.2c0.1,0.8,0.1,1.6,0.1,2.4c0,14.5,0,29,0,43.4c0,1.1,0.6,1.8,1.6,1.8c1,0,1.6-0.7,1.6-1.8
	c0-1.1,0-2.2,0-3.3c0-0.4,0-0.8,0-1.2c8.5,0,16.9,0,25.3,0c0-4.8,0-9.5,0-14.2c-0.2,0.2-0.3,0.3-0.5,0.4c-2.4,2.4-4.8,4.8-7.2,7.2
	c-0.3,0.3-0.5,0.4-0.9,0.4c-2.6,0-5.3,0-7.9,0c-0.4,0-0.6,0.1-0.9,0.4c-1.2,1.2-2.4,2.4-3.6,3.6c-0.7-0.7-1.4-1.4-2.2-2.2
	c1.2-1.2,2.4-2.3,3.6-3.5c0.2-0.2,0.3-0.5,0.3-0.8c0-2.7,0-5.3,0-8c0-0.4,0.1-0.6,0.4-0.9c5.4-5.4,10.7-10.8,16.1-16.2
	c0.8-0.8,1.7-1.6,2.5-2.5c0.1-0.1,0.2-0.4,0.2-0.5c0-0.8,0-1.6,0-2.4c0-1.4-0.6-2-2-2c-8.7,0-17.4,0-26.1,0
	C11.4,3.2,11.2,3.2,11,3.2z M46,47.7c-9.5,0-19,0-28.4,0c-0.1,1.1-0.1,2.1-0.2,3.1c0.1,0,0.3,0,0.5,0c8.8,0,17.5,0,26.3,0
	c0.1,0,0.2,0,0.4,0c0.8-0.1,1.4-0.7,1.5-1.5C46,48.8,46,48.3,46,47.7z M41.6,19.3c1.4,0,2.7,0,4.1,0c0.1,0,0.3-0.1,0.4-0.2
	c0.7-0.6,1.4-1.3,2-2c1.5-1.8,1.3-4.6-0.4-6.3c-1.7-1.7-4.5-1.9-6.2-0.3c-2.9,2.7-5.7,5.6-8.6,8.4c-0.1,0.1-0.1,0.3-0.1,0.4
	c0.3,1,0.7,2.1,1,3.2c3.2-3.2,6.3-6.3,9.3-9.3c0.8,0.8,1.5,1.5,2.2,2.2C44.1,16.6,42.9,18,41.6,19.3z M30.3,21.7
	c-0.1,0.1-0.1,0.1-0.2,0.1c-2.1,2.1-4.2,4.2-6.3,6.3c-0.1,0.1-0.2,0.4-0.2,0.6c0,0.9,0,1.9,0,2.8c0,0.4,0,0.8,0,1.3
	c2.6-2.6,5.1-5.1,7.6-7.6c0.1-0.1,0.2-0.3,0.1-0.4C31,23.8,30.6,22.8,30.3,21.7z M42.8,22.7c-0.1-0.1-0.1-0.2-0.2-0.2
	c-1.3,0-2.6,0-3.9,0c-0.3,0-0.6,0.1-0.8,0.3c-1.7,1.7-3.3,3.4-5,5.1c-0.1,0.1-0.2,0.2-0.4,0.5c1.5,0,2.9,0,4.3,0
	c0.1,0,0.2-0.1,0.3-0.2C39.1,26.3,41,24.5,42.8,22.7z M8,9.5C8,9.3,8,9.2,8,9c0-1.5,0-2.9,0-4.4c0-0.8-0.7-1.5-1.6-1.5
	c-0.8,0-1.5,0.6-1.6,1.5c0,0.5,0,0.9,0,1.4c0,1.1,0,2.2,0,3.4C5.9,9.5,6.9,9.5,8,9.5z M33.9,31.6c0-0.1-0.1-0.1-0.1-0.2
	c-1.4,0-2.8,0-4.1,0c-0.1,0-0.3,0.1-0.4,0.2c-1,1-2,2-3,3c-0.1,0.1-0.1,0.2-0.2,0.3c1.4,0,2.8,0,4.1,0c0.1,0,0.3-0.1,0.4-0.2
	C31.6,33.8,32.7,32.7,33.9,31.6z"/>
</svg>
